<svg xmlns="http://www.w3.org/2000/svg" width="64.551" height="64.554" viewBox="0 0 64.551 64.554">
  <g id="Group_915" data-name="Group 915" transform="translate(-1465.437 -7974.339)">
    <path id="Path_3721" data-name="Path 3721" d="M1850.988,727.116a32.25,32.25,0,1,1-19.712-29.74,32.192,32.192,0,0,1,19.712,29.74" transform="translate(-321 7279.5)" fill="#f18020"/>
    <path id="Path_3722" data-name="Path 3722" d="M1821.478,724.243v-2.467q0-4,1.411-5.627a4.546,4.546,0,0,1,3.907-1.625,15.773,15.773,0,0,1,3.644.424v-6.914a13.77,13.77,0,0,0-4.6-.744c-8.346,0-12.282,4.96-12.282,14.4v2.551h-6.575v6.985h6.575v15.714h7.924V731.228h6.558l2.412-6.985Z" transform="translate(-321.001 7280.418)" fill="#fff"/>
  </g>
</svg>
