<svg xmlns="http://www.w3.org/2000/svg" width="64.55" height="64.551" viewBox="0 0 64.55 64.551">
  <g id="Group_914" data-name="Group 914" transform="translate(-1555.174 -7974.34)">
    <path id="Path_3723" data-name="Path 3723" d="M1908.449,759.391h0a32.275,32.275,0,1,1,32.275-32.275,32.275,32.275,0,0,1-32.275,32.275" transform="translate(-321 7279.5)" fill="#f18020"/>
    <path id="Path_3724" data-name="Path 3724" d="M1895.654,710a4.326,4.326,0,0,0-4.321,4.32v25.591a4.326,4.326,0,0,0,4.321,4.319h25.589a4.323,4.323,0,0,0,4.32-4.319V714.32a4.324,4.324,0,0,0-4.32-4.32Zm25.589,36.333h-25.589a6.431,6.431,0,0,1-6.424-6.422V714.32a6.433,6.433,0,0,1,6.424-6.423h25.589a6.431,6.431,0,0,1,6.423,6.423v25.591a6.429,6.429,0,0,1-6.423,6.422" transform="translate(-321 7279.5)" fill="#fff"/>
    <path id="Path_3725" data-name="Path 3725" d="M1895.654,710a4.326,4.326,0,0,0-4.321,4.32v25.591a4.326,4.326,0,0,0,4.321,4.319h25.589a4.323,4.323,0,0,0,4.32-4.319V714.32a4.324,4.324,0,0,0-4.32-4.32Zm25.589,36.333h-25.589a6.431,6.431,0,0,1-6.424-6.422V714.32a6.433,6.433,0,0,1,6.424-6.423h25.589a6.431,6.431,0,0,1,6.423,6.423v25.591a6.429,6.429,0,0,1-6.423,6.422" transform="translate(-321 7279.5)" fill="none" stroke="#fff" stroke-miterlimit="10" stroke-width="1"/>
    <path id="Path_3726" data-name="Path 3726" d="M1908.449,719.356a7.759,7.759,0,1,0,7.758,7.76,7.767,7.767,0,0,0-7.758-7.76m0,17.621a9.864,9.864,0,1,1,6.972-2.889,9.785,9.785,0,0,1-6.972,2.889" transform="translate(-321 7279.5)" fill="#fff"/>
    <path id="Path_3727" data-name="Path 3727" d="M1908.449,719.356a7.759,7.759,0,1,0,7.758,7.76,7.767,7.767,0,0,0-7.758-7.76m0,17.621a9.864,9.864,0,1,1,6.972-2.889,9.785,9.785,0,0,1-6.972,2.889" transform="translate(-321 7279.5)" fill="none" stroke="#fff" stroke-miterlimit="10" stroke-width="1"/>
    <path id="Path_3728" data-name="Path 3728" d="M1922.33,714.808a1.892,1.892,0,1,1-1.893-1.893,1.892,1.892,0,0,1,1.893,1.893" transform="translate(-321 7279.5)" fill="#fff"/>
    <path id="Path_3729" data-name="Path 3729" d="M1922.33,714.808a1.892,1.892,0,1,1-1.893-1.893,1.892,1.892,0,0,1,1.893,1.893" transform="translate(-321 7279.5)" fill="none" stroke="#fff" stroke-miterlimit="10" stroke-width="1"/>
  </g>
</svg>
