<svg xmlns="http://www.w3.org/2000/svg" width="64.551" height="64.551" viewBox="0 0 64.551 64.551">
  <g id="Group_916" data-name="Group 916" transform="translate(-1644.464 -7974.34)">
    <path id="Path_3730" data-name="Path 3730" d="M1997.74,759.391h0a32.275,32.275,0,1,1,32.275-32.275,32.276,32.276,0,0,1-32.275,32.275" transform="translate(-321 7279.5)" fill="#f18020"/>
    <path id="Path_3731" data-name="Path 3731" d="M1984.409,706.856a4.841,4.841,0,1,1-4.842,4.841,4.842,4.842,0,0,1,4.842-4.841m-4.18,13.354h8.358v26.864h-8.358Z" transform="translate(-321 7276.5)" fill="#fff"/>
    <path id="Path_3732" data-name="Path 3732" d="M1993.825,720.21h8v3.673h.115a8.767,8.767,0,0,1,7.9-4.34c8.454,0,10.016,5.564,10.016,12.8v14.733h-8.348V734.01c0-3.115-.054-7.123-4.339-7.123-4.346,0-5.008,3.4-5.008,6.9v13.286h-8.339Z" transform="translate(-321 7276.5)" fill="#fff"/>
  </g>
</svg>
