<svg width="394" height="254" viewBox="0 0 394 254" fill="none" xmlns="http://www.w3.org/2000/svg">
<g clip-path="url(#clip0_415_3795)">
<path d="M296.492 39.2839C294.187 41.59 294.243 45.3524 296.639 47.5907C298.807 49.6167 302.277 49.64 304.472 47.6281C306.906 45.4014 306.974 41.604 304.659 39.2909C302.405 37.0363 298.737 37.0363 296.492 39.2863V39.2839Z" fill="#252323"/>
<path d="M88.3819 37.4961C86.0765 39.8021 86.1325 43.5646 88.5289 45.8029C90.6966 47.8288 94.1664 47.8522 96.3621 45.8402C98.7958 43.6136 98.8635 39.8161 96.5488 37.5031C94.2947 35.2484 90.6266 35.2484 88.3819 37.4984V37.4961Z" fill="#252323"/>
<path d="M0 0V254H394V0H0ZM39.2383 73.0222L85.7708 29.6374C85.7708 29.6374 94.9293 21.1602 109.009 40.3296C122.781 59.0764 165.423 115.578 195.349 145.015L182.497 157.876C179.757 156.557 175.042 155.455 170.237 159.61C164.677 164.409 152.548 175.603 146.707 181.008C144.88 182.703 142.043 182.647 140.281 180.884L39.1193 79.6952C37.2642 77.8397 37.3156 74.8124 39.2383 73.0222ZM168.858 201.295C155.618 209.726 155.618 215.468 155.714 217.97C155.803 220.502 155.754 224.36 152.727 225.172C149.076 226.153 142.022 227.376 137.012 224.08C129.975 219.445 132.754 211.672 139.044 205.191C145.342 198.707 196.999 146.665 196.999 146.665L209.865 159.537C209.865 159.537 182.095 192.87 168.858 201.295ZM256.988 224.08C251.978 227.376 244.924 226.153 241.273 225.172C238.246 224.36 238.197 220.502 238.286 217.97C238.382 215.468 238.382 209.726 225.142 201.295C218.24 196.903 207.387 185.739 198.581 176.06C205.18 168.745 210.362 162.583 211.475 161.253C227.258 177.164 250.832 200.945 254.956 205.191C261.246 211.672 264.025 219.445 256.988 224.08ZM354.881 79.6952L253.719 180.884C251.957 182.647 249.12 182.703 247.293 181.008C241.452 175.603 229.323 164.409 223.763 159.61C218.958 155.455 214.243 156.557 211.503 157.876L198.651 145.015C228.577 115.578 271.219 59.0764 284.991 40.3296C299.071 21.1602 308.229 29.6374 308.229 29.6374L354.762 73.0222C356.684 74.8124 356.736 77.8397 354.881 79.6952Z" fill="#252323"/>
</g>
<defs>
<clipPath id="clip0_415_3795">
<rect width="394" height="254" fill="white"/>
</clipPath>
</defs>
</svg>
