<svg id="Group_912" data-name="Group 912" xmlns="http://www.w3.org/2000/svg" xmlns:xlink="http://www.w3.org/1999/xlink" width="64.551" height="64.551" viewBox="0 0 64.551 64.551">
  <defs>
    <clipPath id="clip-path">
      <rect id="Rectangle_588" data-name="Rectangle 588" width="64.551" height="64.551" fill="#f18020"/>
    </clipPath>
  </defs>
  <g id="Group_911" data-name="Group 911" clip-path="url(#clip-path)">
    <path id="Path_14670" data-name="Path 14670" d="M64.551,32.275a32.272,32.272,0,1,1-6.93-19.984,31.947,31.947,0,0,1,6.93,19.984" fill="#f18020"/>
    <path id="Path_14671" data-name="Path 14671" d="M525.709,599.337v2.25c.032-.372.049-.75.049-1.13s-.015-.75-.049-1.12m-7.143,1.938v-.819a6.054,6.054,0,0,1-.056.819Z" transform="translate(-484.775 -560.344)" fill="#f18020"/>
    <path id="Path_14672" data-name="Path 14672" d="M263.892,185.462v7.678c-.045,0-.09,0-.135,0a13.653,13.653,0,0,1-8.572-3.011v14.931a.088.088,0,0,1,0,.024A13.037,13.037,0,1,1,242.2,190.895v7.193a5.845,5.845,0,1,0,5.787,6.664h.056V175.22h7.143v.408a9.907,9.907,0,0,0,8.708,9.834" transform="translate(-214.251 -163.82)" fill="#fff"/>
    <path id="Path_14673" data-name="Path 14673" d="M629.132,633.92v.024h0a.086.086,0,0,0,0-.024" transform="translate(-588.198 -592.677)" fill="#f18020"/>
    <path id="Path_14674" data-name="Path 14674" d="M518.566,616.546v.819h-.056a6.055,6.055,0,0,0,.056-.819" transform="translate(-484.775 -576.433)" fill="#f18020"/>
  </g>
</svg>
