<svg width="195" height="189" viewBox="0 0 195 189" fill="none" xmlns="http://www.w3.org/2000/svg">
<g clip-path="url(#clip0_331_8999)">
<path d="M41.9022 42.8951C45.4487 40.8308 48.7906 38.367 51.0849 36.4759C49.2688 33.1127 47.6518 29.9366 46.6207 27.836C42.4938 19.4363 37.5099 15.7071 28.8304 10.5645C28.6645 10.4668 28.753 10.5143 28.8331 10.5589C32.3132 5.11186 30.6547 2.20116 29.9637 1.7626C28.3826 0.756981 27.5063 1.87992 26.9784 2.80173C26.6356 2.20954 26.127 1.61175 25.4055 1.03352C22.6994 -1.13134 22.0194 0.483229 21.9586 2.39669C21.8287 2.33245 21.6932 2.26541 21.555 2.20116C21.4251 2.12853 21.2979 2.06987 21.1791 2.02517C13.0551 -1.67047 16.8476 5.39399 16.8476 5.39399C16.3417 5.21521 15.6673 5.06158 14.78 4.94705C14.2631 4.83252 13.7683 4.78783 13.3923 4.81576C6.57308 4.36603 11.1506 9.8187 11.1506 9.8187C7.20885 8.06725 6.11699 9.15667 5.53928 9.89133C4.37832 11.3662 7.32218 15.5647 6.99601 16.8915C4.26222 17.9893 1.81038 19.8721 -0.00292969 22.1068C-0.00292969 22.1068 5.05001 23.3219 8.56607 23.2549C8.35046 24.2856 7.77827 27.3527 8.35322 29.3919C9.01663 31.7356 9.25712 32.8166 10.5093 34.2133C11.7255 35.5681 11.9467 35.8055 13.0606 36.3781C13.9949 36.8614 15.0122 37.381 16.7066 37.1324C17.0494 37.0821 17.3534 36.8474 17.616 36.4815C17.8648 37.8698 18.0417 39.0263 18.0583 39.4732C18.1025 40.828 18.2242 42.4649 18.2242 42.4649C18.2242 42.4649 18.4204 45.4231 18.6968 50.5182C21.1542 50.2892 23.7857 49.8618 26.2071 49.278C31.5531 47.993 36.8299 45.8449 41.8939 42.8951H41.9022Z" fill="#2B2B29"/>
<path d="M49.2996 70.1362C55.4969 64.231 60.3591 58.1079 63.3279 53.9989C61.4289 52.348 59.7399 50.5435 58.3606 48.63C56.4423 45.9651 54.1203 42.0125 51.9753 38.1157C49.6728 39.9901 46.3668 42.4036 42.8618 44.4483C37.643 47.4959 32.1948 49.7166 26.6747 51.0491C24.1344 51.6608 21.3785 52.1078 18.8022 52.3452C18.9957 56.0716 19.2196 60.7142 19.4352 66.0244C19.7283 73.2397 21.2458 80.6142 23.4765 87.7597C25.03 87.0697 26.7355 86.2512 28.2558 85.4551C35.5726 81.6198 42.6517 76.4632 49.2996 70.1334V70.1362Z" fill="#2B2B29"/>
<path d="M129.008 85.8629C126.108 85.5612 123.203 85.1953 120.397 84.8406L119.645 84.7456C116.71 84.3741 113.675 83.9914 110.689 83.6394C106.037 83.0891 102.239 82.7343 98.7341 82.5221C95.9257 82.3517 93.6259 82.2734 91.4974 82.2734C85.7894 82.2734 81.0902 82.874 77.1292 84.1059C73.4417 85.254 69.9091 87.2959 67.1891 89.8491C64.201 92.6536 62.2219 96.0169 61.4672 99.5728C61.329 100.226 61.2378 100.894 61.1991 101.562C61.0167 104.682 62.4236 108.693 63.8997 111.283C65.3454 113.822 67.8 116.537 70.4619 118.548C76.5791 123.166 84.9491 125.607 94.6597 125.607C99.3533 125.607 104.356 125.021 109.13 123.906C117.133 122.043 125.483 118.18 135.409 111.755C137.162 110.621 138.823 109.447 140.343 108.274C143.238 106.037 145.913 103.64 148.299 101.154C152.669 96.5979 155.873 92.2989 158.098 88.0138C158.184 87.8518 158.3 87.6647 158.435 87.4468C158.568 87.2373 158.853 86.782 159.013 86.4384C158.623 86.4467 158.225 86.4914 157.808 86.5417C157.468 86.5808 157.117 86.6227 156.757 86.6423C155.809 86.6982 154.85 86.7177 153.921 86.74C153.598 86.7484 153.274 86.754 152.951 86.7624C151.002 86.8127 149.098 86.8406 147.295 86.8406C143.868 86.8406 140.697 86.7512 137.599 86.5669C134.81 86.402 131.921 86.1646 129.01 85.8629H129.008Z" fill="#2B2B29"/>
<path d="M50.5406 71.4686C49.1585 72.7843 47.7598 74.0469 46.3418 75.262C47.2098 76.1783 48.9567 77.9241 51.4279 79.9018C54.6703 82.4969 59.8476 86.0138 66.2495 88.2345C69.1243 85.6255 72.7785 83.5444 76.5904 82.3572C80.7256 81.0695 85.6016 80.4438 91.4921 80.4438C93.6593 80.4438 95.9922 80.5248 98.8366 80.6952C102.378 80.9075 106.209 81.2678 110.894 81.8209C113.888 82.1757 116.925 82.5583 119.864 82.9299L120.616 83.0248C123.413 83.3768 126.307 83.7427 129.187 84.0416C132.073 84.3405 134.937 84.5752 137.698 84.74C139.426 84.8433 141.181 84.9132 142.989 84.9579C139.788 79.2342 136.269 70.8736 133.439 63.5913C131.692 63.5522 129.964 63.4265 128.543 63.379C93.2308 62.1779 93.3469 64.717 82.2708 63.0298C76.2365 62.1108 69.854 59.1945 64.7264 55.1609C61.6969 59.3454 56.7794 65.5243 50.5378 71.4714L50.5406 71.4686Z" fill="#2B2B29"/>
<path d="M69.3728 120.018C66.4787 117.833 63.908 114.984 62.3241 112.199C60.7154 109.372 59.1812 104.956 59.3858 101.456C59.43 100.696 59.5323 99.9332 59.6898 99.1902C60.4223 95.746 62.1776 92.4805 64.8008 89.6648C58.5344 87.3435 53.4815 83.8881 50.2667 81.3098C47.6324 79.198 45.8219 77.3739 44.9484 76.4409C39.8457 80.6617 34.5357 84.2317 29.0902 87.0865C27.4815 87.9301 25.6847 88.7904 24.04 89.5167C26.1049 95.7795 28.6894 101.836 31.4481 107.411C37.5929 119.83 44.4094 126.199 46.6954 128.09C48.4755 129.563 58.7141 137.722 66.8325 141.183C71.9905 132.795 73.1763 124.764 73.4113 122.604C71.9822 121.831 70.6333 120.973 69.3756 120.023L69.3728 120.018Z" fill="#2B2B29"/>
<path d="M151.16 100.757C150.654 101.313 150.134 101.869 149.595 102.43C147.149 104.983 144.404 107.439 141.438 109.729C139.879 110.936 138.176 112.137 136.383 113.299C130.633 117.02 125.395 119.897 120.433 122.04C120.571 123.629 121.061 128.071 122.603 133.9C123.739 138.188 125.212 142.373 126.984 146.342C128.131 148.909 129.574 151.675 130.978 154.074C134.641 152.178 137.452 150.353 137.452 150.353C141.043 148.384 144.639 145.716 148.014 142.133C157.465 132.104 162.319 132.057 163.461 128.716C164.903 124.49 167.795 121.66 169.21 118.894C165.412 115.931 161.667 112.662 158.665 109.643C154.502 105.453 152.188 102.299 151.157 100.751L151.16 100.757Z" fill="#2B2B29"/>
<path d="M129.356 154.893C126.783 156.144 123.955 157.323 121.442 157.904C119.344 158.189 117.061 158.1 115.284 157.935C111.947 157.259 108.428 155.728 105.86 154.348C102.654 155.96 99.1323 157.379 95.8153 157.982C95.4891 158.041 95.1657 158.091 94.8451 158.133L94.8699 158.086C94.2756 158.195 93.6482 158.259 93.0096 158.287H92.9986C92.8687 158.29 92.7388 158.292 92.6088 158.292C92.1196 158.292 91.6331 158.281 91.1493 158.259L91.1438 158.278C89.2973 158.189 87.484 157.89 86.1158 157.608C78.4009 155.921 71.7779 151.136 68.9916 143.189C68.8312 142.736 68.6792 142.3 68.5327 141.878C71.4379 137.079 73.0936 132.423 73.9699 129.202C74.6499 126.694 74.9788 124.694 75.1364 123.464C80.6813 126.076 87.3071 127.439 94.6571 127.439C99.4834 127.439 104.63 126.836 109.537 125.694C112.522 124.998 115.552 124.032 118.681 122.772C118.877 124.761 119.419 128.928 120.842 134.322C122.001 138.711 123.51 142.999 125.32 147.066C126.481 149.664 127.938 152.46 129.356 154.893Z" fill="#F48120"/>
<path d="M93.604 188.693C93.604 188.693 92.1279 188.201 91.1853 188.156C90.8895 188.581 90.3837 189.045 89.6457 188.994C88.6229 188.927 86.0992 188.76 85.4081 188.433C84.7171 188.109 83.277 187.603 82.55 186.723C81.8202 185.841 81.6627 185.869 81.3061 185.589C80.8583 185.239 80.3607 185.125 79.8134 185.246C79.3048 185.355 78.1908 186.631 76.607 186.645C75.0231 186.659 74.2795 186.913 73.3618 186.961C72.1151 187.022 69.409 187.335 69.1657 187.399C68.9253 187.464 65.8847 187.98 65.224 188.377C64.5661 188.774 63.8557 188.726 63.1232 188.438C62.4598 188.179 62.0175 188.061 61.9263 187.746C61.0224 187.813 59.2782 188.656 59.2782 188.656C59.7233 187.735 61.7107 186.642 62.0175 186.477C62.1032 186.271 62.247 186.103 62.4875 186.036C63.173 185.841 64.193 185.349 64.392 185.363C64.5882 185.374 66.2081 184.801 66.5232 184.824C66.8383 184.843 68.7677 184.413 69.2017 184.441C69.6329 184.469 71.0178 184.48 71.1145 184.206C71.214 183.933 71.7309 183.248 70.3986 183.081C69.0635 182.91 67.4326 183.003 67.1064 183.181C66.7775 183.36 66.1915 183.24 65.7575 183.212C65.3235 183.184 64.0741 182.941 63.7894 183.042C63.5047 183.142 62.8413 184.058 62.1336 183.452C61.672 183.056 61.1164 182.737 60.793 182.343C59.8753 182.438 58.2002 183.248 58.2002 183.248C58.5568 182.508 59.9029 181.659 60.5829 181.268C60.7543 180.871 61.2574 180.941 61.8793 180.757C62.645 180.528 63.8751 179.888 65.0416 180.204C66.2081 180.522 68.5189 180.315 69.4643 180.377C70.4096 180.441 71.1615 180.449 71.7143 180.486C72.2644 180.522 75.9325 179.466 76.2753 179.05C76.2753 179.05 76.6346 176.966 78.5336 175.486C80.1755 174.206 81.1071 170.184 81.5023 168.321C81.8976 166.457 83.2106 165.156 83.7386 163.027C84.0067 161.94 84.7226 160.468 85.3971 159.094L90.4362 160.343L88.5372 165.882L85.3031 173.388C85.3031 173.388 82.8153 178.966 82.6495 181.807C83.2991 182.779 84.2223 184.095 84.6452 184.343C85.3307 184.748 87.7992 185.751 88.5068 185.838C89.2117 185.927 90.8011 185.832 91.2821 186.343C91.4203 186.489 91.5087 186.628 91.5585 186.765C92.2578 187.232 93.3193 188.022 93.604 188.693Z" fill="#2B2B29"/>
<path d="M124.989 182.623C124.989 182.623 123.651 182.274 122.813 182.29C122.573 182.684 122.153 183.125 121.495 183.125C120.583 183.128 118.335 183.131 117.702 182.882C117.069 182.637 115.762 182.274 115.065 181.539C114.366 180.799 113.733 181.206 113.332 181.195C112.611 181.176 112.727 181.293 112.011 181.503C111.566 181.631 110.651 182.829 109.247 182.936C107.842 183.044 107.198 183.315 106.386 183.41C105.283 183.542 102.903 183.98 102.69 184.05C102.48 184.123 98.9003 183.628 98.3392 184.019C97.778 184.41 97.3966 184.768 96.7304 184.556C96.1278 184.363 95.727 184.288 95.6275 184.014C94.8286 184.128 93.3332 184.98 93.3332 184.98C93.6732 184.134 95.3732 183.044 95.633 182.882C95.6966 182.693 95.8155 182.536 96.0255 182.463C96.6198 182.248 97.4988 181.751 97.673 181.751C97.8471 181.751 100.227 181.36 100.506 181.36C100.788 181.357 102.546 181.424 102.933 181.424C103.32 181.424 104.163 181.352 104.232 181.103C104.302 180.854 104.724 180.215 103.528 180.145C102.333 180.075 101.114 180.159 100.783 180.148C100.233 180.128 99.1463 179.759 98.7593 179.762C98.3751 179.762 97.2501 179.62 97.0041 179.729C96.758 179.835 96.1306 180.324 95.4202 179.902C95.0332 179.673 94.6047 179.528 94.3256 179.285C93.5212 179.413 92.0562 180.246 92.0562 180.246C92.3298 179.567 93.4742 178.734 94.0547 178.346C94.1846 177.986 94.6351 178.016 95.1742 177.812C95.8431 177.564 96.6834 177.469 97.8416 177.539C98.9141 177.6 101.7 177.804 102.544 177.804C103.387 177.804 104.053 177.768 104.545 177.765C105.037 177.765 108.227 176.609 108.509 176.217C108.509 176.217 108.705 174.349 110.3 172.921C111.685 171.687 112.273 168.064 112.514 166.385C112.754 164.709 113.846 163.474 114.189 161.555C114.291 160.98 114.524 160.276 114.803 159.535L120.254 160.362L119.314 163.846L116.903 171.217C116.903 171.217 114.725 175.324 114.385 177.84C115.179 178.343 116.376 179.095 116.785 179.299C117.418 179.617 119.665 180.36 120.298 180.396C120.931 180.43 122.335 180.251 122.791 180.676C122.924 180.799 123.01 180.916 123.062 181.033C123.709 181.405 124.696 182.044 124.989 182.623Z" fill="#2B2B29"/>
<path d="M194.699 59.5939C194.154 55.7418 186.89 55.0407 191.517 52.9764C196.144 50.9121 195.149 45.0348 194.196 42.9733C193.242 40.909 192.153 40.4984 192.153 40.4984C189.953 39.8866 196.269 41.4202 194.154 35.8195C192.374 31.1042 188.54 31.2271 184.745 32.4367C182.879 33.0317 181.024 33.8864 179.424 34.5596C176.944 35.6016 174.667 37.0485 172.303 38.3223C169.71 39.7218 167.231 41.166 164.97 43.099C163.836 44.0683 162.866 45.1717 161.573 45.9259C160.072 46.8002 158.67 47.5572 157.556 48.9455C156.545 50.2054 155.704 50.2249 154.402 51.2333C152.57 52.6524 152.387 52.5965 150.311 53.6077C146.817 55.3117 143.191 61.8565 139.489 63.0325C138.323 63.4041 136.891 63.5521 135.39 63.594C138.304 71.0468 141.914 79.5358 145.109 84.9969C145.828 85.0053 146.552 85.0108 147.293 85.0108C149.081 85.0108 150.969 84.9857 152.901 84.9354C153.227 84.9271 153.554 84.9187 153.88 84.9131C154.792 84.8935 155.735 84.8712 156.65 84.8181C156.959 84.8014 157.269 84.765 157.598 84.7259C158.148 84.6617 158.723 84.5946 159.32 84.6142C160.19 84.6421 160.591 85.0583 160.771 85.4047C161.271 86.3573 160.547 87.5109 159.964 88.4383C159.853 88.6115 159.751 88.7763 159.701 88.8741C157.904 92.3323 155.502 95.7877 152.409 99.3576C153.446 100.989 155.958 104.352 160.025 108.436C162.839 111.263 166.355 114.336 169.89 117.121C169.901 117.07 169.915 117.02 169.926 116.97C170.656 113.386 171.43 112.699 171.847 110.436C172.267 108.174 177.11 104.481 177.199 103.213C177.287 101.944 179.225 101.595 179.852 100.238C180.48 98.88 181.591 95.6983 181.699 95.0586C181.804 94.4189 181.541 93.6173 181.699 93.0837C181.856 92.5502 182.932 92.5641 183.238 91.1144C183.545 89.6618 183.545 88.8322 183.855 88.0026C184.162 87.1729 184.471 87.5863 185.19 84.684C185.909 81.7789 190.176 79.061 190.176 77.195C190.176 75.329 192.742 73.6697 193.563 72.7368C194.384 71.8038 195.307 71.8038 193.665 70.8708C192.023 69.9378 189.527 70.0579 189.527 70.0579C192.385 68.407 195.243 63.4544 194.699 59.6051V59.5939Z" fill="#2B2B29"/>
</g>
<defs>
<clipPath id="clip0_331_8999">
<rect width="195" height="189" fill="white"/>
</clipPath>
</defs>
</svg>
