<svg width="195" height="189" viewBox="0 0 195 189" fill="none" xmlns="http://www.w3.org/2000/svg">
<g clip-path="url(#clip0_331_9156)">
<path d="M41.9022 42.8949C45.4487 40.8305 48.7906 38.3668 51.0849 36.4757C49.2688 33.1124 47.6518 29.9364 46.6207 27.8358C42.4938 19.4361 37.5099 15.7069 28.8304 10.5643C28.6645 10.4665 28.753 10.514 28.8331 10.5587C32.3132 5.11161 30.6547 2.20091 29.9637 1.76235C28.3826 0.756736 27.5063 1.87967 26.9784 2.80149C26.6356 2.20929 26.127 1.61151 25.4055 1.03328C22.6994 -1.13159 22.0194 0.482985 21.9586 2.39645C21.8287 2.3322 21.6932 2.26516 21.555 2.20091C21.4251 2.12829 21.2979 2.06962 21.1791 2.02493C13.0551 -1.67071 16.8476 5.39374 16.8476 5.39374C16.3417 5.21497 15.6673 5.06133 14.78 4.9468C14.2631 4.83228 13.7683 4.78758 13.3923 4.81552C6.57308 4.36578 11.1506 9.81846 11.1506 9.81846C7.20885 8.06701 6.11699 9.15643 5.53928 9.89109C4.37832 11.366 7.32218 15.5644 6.99601 16.8913C4.26222 17.9891 1.81038 19.8718 -0.00292969 22.1065C-0.00292969 22.1065 5.05001 23.3217 8.56607 23.2546C8.35046 24.2854 7.77827 27.3525 8.35322 29.3917C9.01663 31.7353 9.25712 32.8163 10.5093 34.213C11.7255 35.5678 11.9467 35.8053 13.0606 36.3779C13.9949 36.8612 15.0122 37.3807 16.7066 37.1321C17.0494 37.0818 17.3534 36.8472 17.616 36.4813C17.8648 37.8696 18.0417 39.026 18.0583 39.473C18.1025 40.8278 18.2242 42.4647 18.2242 42.4647C18.2242 42.4647 18.4204 45.4229 18.6968 50.518C21.1542 50.2889 23.7857 49.8615 26.2071 49.2777C31.5531 47.9928 36.8299 45.8447 41.8939 42.8949H41.9022Z" fill="#2B2B29"/>
<path d="M49.2996 70.1357C55.4969 64.2305 60.3591 58.1074 63.3279 53.9984C61.4289 52.3475 59.7399 50.543 58.3606 48.6295C56.4423 45.9646 54.1203 42.012 51.9753 38.1152C49.6728 39.9896 46.3668 42.4031 42.8618 44.4478C37.643 47.4954 32.1948 49.7161 26.6747 51.0486C24.1344 51.6603 21.3785 52.1073 18.8022 52.3447C18.9957 56.0711 19.2196 60.7137 19.4352 66.0239C19.7283 73.2392 21.2458 80.6137 23.4765 87.7592C25.03 87.0692 26.7355 86.2507 28.2558 85.4546C35.5726 81.6193 42.6517 76.4627 49.2996 70.1329V70.1357Z" fill="#2B2B29"/>
<path d="M129.008 85.8629C126.108 85.5612 123.203 85.1953 120.397 84.8406L119.645 84.7456C116.71 84.3741 113.675 83.9914 110.689 83.6394C106.037 83.0891 102.239 82.7343 98.7341 82.5221C95.9257 82.3517 93.6259 82.2734 91.4974 82.2734C85.7894 82.2734 81.0902 82.874 77.1292 84.1059C73.4417 85.254 69.9091 87.2959 67.1891 89.8491C64.201 92.6536 62.2219 96.0169 61.4672 99.5728C61.329 100.226 61.2378 100.894 61.1991 101.562C61.0167 104.682 62.4236 108.693 63.8997 111.283C65.3454 113.822 67.8 116.537 70.4619 118.548C76.5791 123.166 84.9491 125.607 94.6597 125.607C99.3533 125.607 104.356 125.021 109.13 123.906C117.133 122.043 125.483 118.18 135.409 111.755C137.162 110.621 138.823 109.447 140.343 108.274C143.238 106.037 145.913 103.64 148.299 101.154C152.669 96.5979 155.873 92.2989 158.098 88.0138C158.184 87.8518 158.3 87.6647 158.435 87.4468C158.568 87.2373 158.853 86.782 159.013 86.4384C158.623 86.4467 158.225 86.4914 157.808 86.5417C157.468 86.5808 157.117 86.6227 156.757 86.6423C155.809 86.6982 154.85 86.7177 153.921 86.74C153.598 86.7484 153.274 86.754 152.951 86.7624C151.002 86.8127 149.098 86.8406 147.295 86.8406C143.868 86.8406 140.697 86.7512 137.599 86.5669C134.81 86.402 131.921 86.1646 129.01 85.8629H129.008Z" fill="#F48120"/>
<path d="M50.5406 71.4689C49.1585 72.7846 47.7598 74.0472 46.3418 75.2623C47.2098 76.1785 48.9567 77.9244 51.4279 79.9021C54.6703 82.4971 59.8476 86.014 66.2495 88.2347C69.1243 85.6257 72.7785 83.5446 76.5904 82.3575C80.7256 81.0697 85.6016 80.444 91.4921 80.444C93.6593 80.444 95.9922 80.525 98.8366 80.6954C102.378 80.9077 106.209 81.268 110.894 81.8211C113.888 82.1759 116.925 82.5586 119.864 82.9301L120.616 83.0251C123.413 83.377 126.307 83.743 129.187 84.0419C132.073 84.3408 134.937 84.5754 137.698 84.7402C139.426 84.8436 141.181 84.9134 142.989 84.9581C139.788 79.2345 136.269 70.8739 133.439 63.5915C131.692 63.5524 129.964 63.4267 128.543 63.3793C93.2308 62.1781 93.3469 64.7173 82.2708 63.0301C76.2365 62.1111 69.854 59.1948 64.7264 55.1611C61.6969 59.3456 56.7794 65.5246 50.5378 71.4717L50.5406 71.4689Z" fill="#2B2B29"/>
<path d="M69.3728 120.017C66.4787 117.833 63.908 114.983 62.3241 112.198C60.7154 109.372 59.1812 104.955 59.3858 101.455C59.43 100.695 59.5323 99.9327 59.6898 99.1897C60.4223 95.7455 62.1776 92.48 64.8008 89.6643C58.5344 87.343 53.4815 83.8876 50.2667 81.3093C47.6324 79.1975 45.8219 77.3734 44.9484 76.4404C39.8457 80.6612 34.5357 84.2312 29.0902 87.086C27.4815 87.9296 25.6847 88.79 24.04 89.5162C26.1049 95.779 28.6894 101.835 31.4481 107.411C37.5929 119.83 44.4094 126.199 46.6954 128.09C48.4755 129.562 58.7141 137.722 66.8325 141.183C71.9905 132.794 73.1763 124.763 73.4113 122.604C71.9822 121.83 70.6333 120.972 69.3756 120.023L69.3728 120.017Z" fill="#2B2B29"/>
<path d="M151.16 100.758C150.654 101.313 150.134 101.869 149.595 102.431C147.149 104.984 144.404 107.439 141.438 109.73C139.879 110.937 138.176 112.138 136.383 113.3C130.633 117.021 125.395 119.898 120.433 122.04C120.571 123.63 121.061 128.071 122.603 133.901C123.739 138.189 125.212 142.373 126.984 146.343C128.131 148.91 129.574 151.675 130.978 154.075C134.641 152.178 137.452 150.354 137.452 150.354C141.043 148.385 144.639 145.717 148.014 142.133C157.465 132.105 162.319 132.057 163.461 128.716C164.903 124.49 167.795 121.66 169.21 118.895C165.412 115.931 161.667 112.663 158.665 109.643C154.502 105.453 152.188 102.299 151.157 100.752L151.16 100.758Z" fill="#2B2B29"/>
<path d="M129.356 154.893C126.783 156.144 123.955 157.323 121.442 157.904C119.344 158.189 117.061 158.099 115.284 157.935C111.947 157.259 108.428 155.728 105.86 154.348C102.654 155.96 99.1323 157.379 95.8153 157.982C95.4891 158.041 95.1657 158.091 94.8451 158.133L94.8699 158.085C94.2756 158.194 93.6482 158.259 93.0096 158.287H92.9986C92.8687 158.289 92.7388 158.292 92.6088 158.292C92.1196 158.292 91.6331 158.281 91.1493 158.259L91.1438 158.278C89.2973 158.189 87.484 157.89 86.1158 157.608C78.4009 155.92 71.7779 151.135 68.9916 143.188C68.8312 142.736 68.6792 142.3 68.5327 141.878C71.4379 137.079 73.0936 132.423 73.9699 129.202C74.6499 126.693 74.9788 124.693 75.1364 123.464C80.6813 126.076 87.3071 127.439 94.6571 127.439C99.4834 127.439 104.63 126.836 109.537 125.693C112.522 124.998 115.552 124.031 118.681 122.771C118.877 124.76 119.419 128.928 120.842 134.322C122.001 138.71 123.51 142.998 125.32 147.065C126.481 149.663 127.938 152.46 129.356 154.893Z" fill="#2B2B29"/>
<path d="M93.604 188.692C93.604 188.692 92.1279 188.201 91.1853 188.156C90.8895 188.581 90.3837 189.044 89.6457 188.994C88.6229 188.927 86.0992 188.759 85.4081 188.433C84.7171 188.109 83.277 187.603 82.55 186.723C81.8202 185.84 81.6627 185.868 81.3061 185.589C80.8583 185.239 80.3607 185.124 79.8134 185.245C79.3048 185.354 78.1908 186.631 76.607 186.645C75.0231 186.659 74.2795 186.913 73.3618 186.961C72.1151 187.022 69.409 187.335 69.1657 187.399C68.9253 187.463 65.8847 187.98 65.224 188.377C64.5661 188.773 63.8557 188.726 63.1232 188.438C62.4598 188.178 62.0175 188.061 61.9263 187.745C61.0224 187.812 59.2782 188.656 59.2782 188.656C59.7233 187.734 61.7107 186.642 62.0175 186.477C62.1032 186.271 62.247 186.103 62.4875 186.036C63.173 185.84 64.193 185.349 64.392 185.363C64.5882 185.374 66.2081 184.801 66.5232 184.824C66.8383 184.843 68.7677 184.413 69.2017 184.441C69.6329 184.469 71.0178 184.48 71.1145 184.206C71.214 183.932 71.7309 183.248 70.3986 183.08C69.0635 182.91 67.4326 183.002 67.1064 183.181C66.7775 183.36 66.1915 183.24 65.7575 183.212C65.3235 183.184 64.0741 182.941 63.7894 183.041C63.5047 183.142 62.8413 184.058 62.1336 183.452C61.672 183.055 61.1164 182.737 60.793 182.343C59.8753 182.438 58.2002 183.248 58.2002 183.248C58.5568 182.508 59.9029 181.659 60.5829 181.268C60.7543 180.871 61.2574 180.941 61.8793 180.756C62.645 180.527 63.8751 179.888 65.0416 180.203C66.2081 180.522 68.5189 180.315 69.4643 180.377C70.4096 180.441 71.1615 180.449 71.7143 180.485C72.2644 180.522 75.9325 179.466 76.2753 179.05C76.2753 179.05 76.6346 176.966 78.5336 175.485C80.1755 174.206 81.1071 170.183 81.5023 168.32C81.8976 166.457 83.2106 165.155 83.7386 163.027C84.0067 161.94 84.7226 160.468 85.3971 159.094L90.4362 160.342L88.5372 165.882L85.3031 173.387C85.3031 173.387 82.8153 178.966 82.6495 181.807C83.2991 182.779 84.2223 184.094 84.6452 184.343C85.3307 184.748 87.7992 185.751 88.5068 185.838C89.2117 185.927 90.8011 185.832 91.2821 186.343C91.4203 186.488 91.5087 186.628 91.5585 186.765C92.2578 187.231 93.3193 188.022 93.604 188.692Z" fill="#2B2B29"/>
<path d="M124.989 182.622C124.989 182.622 123.651 182.273 122.813 182.29C122.573 182.684 122.153 183.125 121.495 183.125C120.583 183.128 118.335 183.131 117.702 182.882C117.069 182.636 115.762 182.273 115.065 181.539C114.366 180.798 113.733 181.206 113.332 181.195C112.611 181.175 112.727 181.293 112.011 181.502C111.566 181.631 110.651 182.829 109.247 182.935C107.842 183.044 107.198 183.315 106.386 183.41C105.283 183.541 102.903 183.98 102.69 184.05C102.48 184.122 98.9003 183.628 98.3392 184.019C97.778 184.41 97.3966 184.768 96.7304 184.555C96.1278 184.363 95.727 184.287 95.6275 184.014C94.8286 184.128 93.3332 184.98 93.3332 184.98C93.6732 184.134 95.3732 183.044 95.633 182.882C95.6966 182.692 95.8155 182.536 96.0255 182.463C96.6198 182.248 97.4988 181.751 97.673 181.751C97.8471 181.751 100.227 181.36 100.506 181.36C100.788 181.357 102.546 181.424 102.933 181.424C103.32 181.424 104.163 181.351 104.232 181.103C104.302 180.854 104.724 180.215 103.528 180.145C102.333 180.075 101.114 180.159 100.783 180.147C100.233 180.128 99.1463 179.759 98.7593 179.762C98.3751 179.762 97.2501 179.62 97.0041 179.728C96.758 179.835 96.1306 180.323 95.4202 179.902C95.0332 179.673 94.6047 179.527 94.3256 179.284C93.5212 179.413 92.0562 180.245 92.0562 180.245C92.3298 179.566 93.4742 178.734 94.0547 178.346C94.1846 177.985 94.6351 178.016 95.1742 177.812C95.8431 177.564 96.6834 177.469 97.8416 177.538C98.9141 177.6 101.7 177.804 102.544 177.804C103.387 177.804 104.053 177.768 104.545 177.765C105.037 177.765 108.227 176.608 108.509 176.217C108.509 176.217 108.705 174.348 110.3 172.921C111.685 171.686 112.273 168.063 112.514 166.385C112.754 164.708 113.846 163.474 114.189 161.555C114.291 160.979 114.524 160.275 114.803 159.535L120.254 160.362L119.314 163.845L116.903 171.217C116.903 171.217 114.725 175.323 114.385 177.84C115.179 178.343 116.376 179.094 116.785 179.298C117.418 179.617 119.665 180.36 120.298 180.396C120.931 180.43 122.335 180.251 122.791 180.675C122.924 180.798 123.01 180.916 123.062 181.033C123.709 181.405 124.696 182.044 124.989 182.622Z" fill="#2B2B29"/>
<path d="M194.699 59.5937C194.154 55.7416 186.89 55.0404 191.517 52.9761C196.144 50.9118 195.149 45.0346 194.196 42.9731C193.242 40.9087 192.153 40.4981 192.153 40.4981C189.953 39.8864 196.269 41.4199 194.154 35.8192C192.374 31.104 188.54 31.2269 184.745 32.4364C182.879 33.0314 181.024 33.8862 179.424 34.5594C176.944 35.6013 174.667 37.0483 172.303 38.3221C169.71 39.7216 167.231 41.1657 164.97 43.0988C163.836 44.0681 162.866 45.1714 161.573 45.9257C160.072 46.8 158.67 47.557 157.556 48.9453C156.545 50.2051 155.704 50.2247 154.402 51.2331C152.57 52.6521 152.387 52.5962 150.311 53.6074C146.817 55.3114 143.191 61.8563 139.489 63.0323C138.323 63.4038 136.891 63.5519 135.39 63.5938C138.304 71.0465 141.914 79.5356 145.109 84.9966C145.828 85.005 146.552 85.0106 147.293 85.0106C149.081 85.0106 150.969 84.9855 152.901 84.9352C153.227 84.9268 153.554 84.9184 153.88 84.9128C154.792 84.8933 155.735 84.8709 156.65 84.8179C156.959 84.8011 157.269 84.7648 157.598 84.7257C158.148 84.6614 158.723 84.5944 159.32 84.6139C160.19 84.6419 160.591 85.0581 160.771 85.4045C161.271 86.357 160.547 87.5107 159.964 88.4381C159.853 88.6113 159.751 88.7761 159.701 88.8739C157.904 92.3321 155.502 95.7875 152.409 99.3574C153.446 100.989 155.958 104.352 160.025 108.436C162.839 111.263 166.355 114.336 169.89 117.12C169.901 117.07 169.915 117.02 169.926 116.97C170.656 113.386 171.43 112.699 171.847 110.436C172.267 108.173 177.11 104.48 177.199 103.212C177.287 101.944 179.225 101.595 179.852 100.237C180.48 98.8797 181.591 95.6981 181.699 95.0584C181.804 94.4187 181.541 93.617 181.699 93.0835C181.856 92.5499 182.932 92.5639 183.238 91.1141C183.545 89.6616 183.545 88.832 183.855 88.0023C184.162 87.1727 184.471 87.5861 185.19 84.6838C185.909 81.7787 190.176 79.0607 190.176 77.1947C190.176 75.3288 192.742 73.6695 193.563 72.7365C194.384 71.8035 195.307 71.8035 193.665 70.8705C192.023 69.9375 189.527 70.0577 189.527 70.0577C192.385 68.4068 195.243 63.4541 194.699 59.6048V59.5937Z" fill="#2B2B29"/>
</g>
<defs>
<clipPath id="clip0_331_9156">
<rect width="195" height="189" fill="white"/>
</clipPath>
</defs>
</svg>
