<svg width="256" height="168" viewBox="0 0 256 168" fill="none" xmlns="http://www.w3.org/2000/svg">
<path d="M194.974 113.893C194.906 115.522 194.909 117.159 196.814 117.869C198.729 118.583 199.803 117.472 200.599 115.975C201.191 114.864 202.042 115.122 202.913 115.286C203.819 115.458 204.313 116.011 204.481 116.964C204.988 119.841 205.56 120.83 207.425 120.792C210.914 115.763 213.514 109.766 215.243 102.736C213.79 102.193 212.394 101.545 211.107 100.769C208.831 99.3929 206.732 97.7534 204.511 96.019C197.243 90.3395 188.198 83.2741 166.14 81.1042C163.74 80.8685 160.969 80.6047 157.907 80.3203C157.631 92.1148 156.909 102.477 156.374 108.874C165.896 109.773 175.089 107.975 183.916 104.045C184.935 103.592 185.45 104.032 186.072 104.568C188.072 106.292 190.168 107.896 192.442 109.207C194.289 110.273 195.062 111.787 194.977 113.895L194.974 113.893Z" fill="#252323"/>
<path d="M232.363 40.1992C228.88 36.4449 227.144 30.5779 227.292 23.3324C222.046 22.3575 216.824 21.9315 211.618 22.0267C214.912 38.302 218.063 55.7952 218.799 72.2585C219.312 83.6817 218.601 93.5612 216.646 102.01C225.061 104.681 236.115 104.385 243.035 103.13C241.316 92.7066 240.969 82.2532 242.216 71.7497C243.075 64.5018 244.563 57.334 245.136 50.046C245.246 48.625 245.342 47.204 245.442 45.6902C245.269 45.3469 245.138 45.0386 245.043 44.793C239.695 45.0487 235.431 43.5023 232.363 40.1966V40.1992Z" fill="#181818"/>
<path d="M105.443 76.5518C106.34 83.4187 107.541 89.6467 108.996 94.8997C110.021 98.6038 111.154 101.747 112.365 104.273C113.056 104.323 113.725 104.388 114.363 104.468C119.273 103.867 124.158 104.127 129.01 104.844C137.285 106.062 145.511 107.621 153.799 108.729C154.032 108.759 154.266 108.789 154.5 108.817C155.035 102.561 155.756 92.431 156.03 80.905C142.292 79.6645 123.261 78.0455 105.443 76.5568V76.5518Z" fill="#EE8022"/>
<path d="M111.287 107.503C111.212 106.766 111.282 106.217 111.478 105.799C111.458 105.761 111.441 105.724 111.421 105.686C106.661 105.438 100.721 105.859 94.3362 106.972C88.695 107.957 83.2599 109.37 78.3726 111.082C80.418 112.247 81.0461 114.089 81.3125 116.598C81.3904 117.337 81.5839 118.069 81.6115 118.811C81.8729 125.868 81.7447 132.923 81.3904 139.968C85.1947 140.592 88.7679 140.65 91.434 140.542C92.0772 135.096 93.1778 129.708 94.2583 124.317C94.6076 122.58 94.9895 120.849 95.3564 119.117C97.7059 125.009 99.6181 130.873 101.48 136.755C101.744 137.592 101.87 138.507 101.867 139.387C101.865 140.419 101.844 141.45 101.804 142.475C104.367 142.327 108.041 142.049 111.943 141.542C111.86 135.091 112.069 128.648 113.157 122.232C113.247 121.693 113.283 121.197 113.079 120.706C111.33 116.458 111.737 111.926 111.282 107.503H111.287Z" fill="#181818"/>
<path d="M243.281 104.591C239.984 105.198 236.037 105.534 232.046 105.534C231.305 105.534 230.564 105.521 229.823 105.499C225.925 105.373 220.912 104.885 216.299 103.438C214.653 109.94 212.236 115.566 209.039 120.37C209.087 120.36 209.135 120.35 209.185 120.34C209.356 124.463 208.994 128.536 208.522 132.603C208.09 136.302 207.26 139.801 206.009 143.087C209.384 143.402 212.974 143.465 215.862 143.442C217.623 138.292 219.689 133.25 221.789 128.225C223.048 125.215 224.583 122.32 226.156 119.032C227.614 121.766 228.777 124.182 230.164 126.46C231.087 127.974 231.632 129.526 231.79 131.262C232.187 135.636 232.149 139.979 231.762 144.295C234.808 144.117 238.534 143.58 241.952 142.951C242.678 134.593 243.256 126.22 244.821 117.954C245.088 116.543 245.07 115.112 244.759 113.729C244.078 110.709 243.794 107.629 243.281 104.589V104.591Z" fill="#181818"/>
<path d="M29.313 42.3523C29.1145 41.0165 29.1145 39.6982 29.1145 38.6055C29.1145 34.558 30.3232 33.8337 33.243 32.0844C33.8561 31.716 34.5496 31.2999 35.3437 30.7912C38.7636 28.5907 42.6433 27.914 45.2289 29.0644C46.2114 29.503 47.395 30.3701 48.1312 32.0844C49.968 27.879 51.9657 24.24 53.9231 21.5483C53.3678 21.3879 52.8175 21.215 52.2697 21.0245C51.8325 20.8741 51.4053 20.7012 50.8123 20.4782C52.2999 19.3704 53.7774 18.5384 54.9584 17.3404C55.9057 16.3805 57.0792 15.4081 56.7048 13.8994C56.3078 12.3105 54.7649 12.0097 53.4105 11.6613C50.6364 10.9471 48.2619 11.907 46.1084 13.5636C45.1661 14.2903 44.3042 15.1224 43.4172 15.8968C43.1157 15.6211 43.2062 15.3755 43.274 15.165C44.1535 12.4333 43.0177 10.4834 40.8492 8.93961C40.3391 8.57621 39.8214 8.21282 39.2762 7.90455C36.0473 6.09758 33.5119 3.69163 32.4138 0C29.9789 3.05255 30.881 6.84944 35.1552 10.699C34.321 10.4082 33.8637 10.2554 33.4114 10.0875C31.9389 9.54361 30.4287 9.49348 29.0316 10.1727C27.9385 10.704 27.0942 10.4057 26.1972 9.85187C24.2774 8.66644 23.0085 6.92964 22.026 4.95225C21.7923 4.48108 21.5837 3.99488 21.2948 3.36583C20.747 3.99989 20.6037 4.66654 20.5459 5.35825C20.2821 8.5286 21.3375 11.1676 23.8879 13.0974C24.7498 13.7515 24.7046 14.1199 23.9834 14.8367C22.4431 16.368 20.9505 17.9569 19.5308 19.5985C17.8397 21.5508 16.5531 23.7337 15.8948 26.2775C15.3872 28.2348 14.2012 29.8438 12.8116 31.2824C11.1004 33.0543 9.34399 34.7785 7.73581 36.6507C6.27086 38.3574 4.33854 39.5077 2.34088 40.5102C0.737728 41.3172 -0.0387201 42.6054 0.00148432 44.3497C0.0316376 45.6003 0.1422 46.8584 0.345735 48.0915C0.481425 48.9035 0.78547 49.723 1.32069 50.322C16.2189 44.0565 25.6142 41.3799 29.3105 42.3498L29.313 42.3523Z" fill="#181818"/>
<path d="M29.8834 44.6204C29.8457 44.5202 29.808 44.4174 29.7754 44.3147C29.7125 44.1818 29.5819 44.0189 29.2653 43.8786C26.554 42.6831 17.0004 45.3898 2.65747 51.3596C3.87868 52.3345 4.79836 53.55 5.73562 54.8081C6.7533 56.1715 8.37152 56.387 9.96211 56.1289C11.6758 55.8507 13.3644 55.4196 15.0605 55.0387C17.0833 54.5851 19.0835 54.6352 21.0912 55.154C23.0361 55.6552 24.991 55.9936 26.9636 56.1514C32.655 53.0187 31.0996 48.2344 29.8859 44.6179L29.8834 44.6204Z" fill="#181818"/>
<path d="M44.6283 30.4027C42.4849 29.4479 39.1555 30.0844 36.1427 32.0217C35.3285 32.5455 34.6249 32.9691 34.0018 33.34C31.1749 35.0342 30.5869 35.3876 30.5869 38.603C30.5869 41.0265 30.5869 44.6906 33.0318 46.5702C35.0144 48.094 38.3715 48.292 43.0201 47.1617C44.1584 42.6255 45.6108 38.2196 47.229 34.2297C46.9049 32.3124 46.0304 31.0243 44.6308 30.4002L44.6283 30.4027Z" fill="#181818"/>
<path d="M37.7712 49.362C35.5072 49.362 33.698 48.8607 32.3084 47.8633C32.517 49.0262 32.5924 50.2392 32.3788 51.4597C32.0521 53.3393 31.0671 54.9433 29.4438 56.2565C30.5319 56.259 31.6274 56.2089 32.7331 56.0961C36.0323 55.7628 38.5476 58.3116 40.7187 60.7928C41.0303 56.8355 41.7037 52.7604 42.6334 48.758C40.8242 49.159 39.206 49.362 37.7712 49.362Z" fill="#181818"/>
<path d="M76.3173 110.267C81.6821 108.27 87.7605 106.631 94.0826 105.528C100.269 104.448 105.978 104.007 110.695 104.18C109.576 101.714 108.536 98.7488 107.579 95.2877C106.086 89.8894 104.855 83.4835 103.945 76.4236C80.8629 74.4963 60.1501 72.8121 56.1221 72.4863C55.8507 74.7394 55.6522 77.0301 55.5366 79.3533C57.6197 86.5311 60.238 93.5058 64.1203 99.9668C66.9798 104.726 70.6887 108.859 76.061 110.197C76.1489 110.22 76.2344 110.242 76.3198 110.265L76.3173 110.267Z" fill="#181818"/>
<path d="M89.2378 142.076C86.916 142.076 84.1846 141.926 81.3075 141.46C81.2522 142.477 81.1919 143.495 81.1266 144.51C80.825 149.279 79.3953 153.555 74.9125 156.232C73.7189 156.943 72.6836 157.986 71.9474 159.239C71.1257 160.64 71.3845 161.65 73.0053 162.156C74.0079 162.469 75.0356 162.622 76.096 162.605C79.0962 162.552 82.0513 162.088 84.9987 161.625C87.9387 161.164 88.6875 160.174 88.2327 157.194C87.9663 155.447 87.7729 154.014 89.866 153.209C90.8711 152.823 90.8887 151.62 90.8711 150.648C90.8183 147.753 90.9716 144.886 91.2606 142.036C90.6274 142.061 89.9489 142.074 89.2328 142.074L89.2378 142.076Z" fill="#181818"/>
<path d="M72.2163 23.0114C65.3991 22.826 64.6 23.247 61.1525 22.8886C59.2252 22.6881 57.323 22.3924 55.451 21.9463C52.8704 25.3472 50.139 30.6102 47.8323 36.7304C44.6737 45.1036 42.6509 53.9454 42.1333 61.6244L42.0906 62.251C43.151 63.1307 44.2516 63.4464 45.2567 64.6695C46.3849 66.0429 48.7997 68.3461 50.3526 69.5115C50.6742 69.8874 50.9959 70.2608 51.3175 70.6367C52.6166 72.1505 53.5765 73.8171 54.3127 75.6166C55.2098 65.2284 57.7628 54.5946 61.9315 43.8931C65.1101 35.7329 68.7687 28.7205 72.2163 23.0114Z" fill="#181818"/>
<path d="M241.341 149.427C241.515 147.773 241.673 146.116 241.821 144.457C240.479 144.7 238.982 144.953 237.451 145.171C235.084 145.51 233.17 145.695 231.619 145.775C231.252 149.169 230.677 152.547 229.931 155.908C229.378 158.402 228.159 160.642 226.297 162.484C225.448 163.324 224.659 164.231 224.254 165.389C223.586 167.309 224.089 168.065 226.109 167.998C228.571 167.915 231.067 167.396 233.484 167.657C236.645 167.998 237.838 166.389 238.668 163.832C238.974 162.888 239.085 161.968 239.168 161.003C239.258 159.98 239.298 158.732 240.467 158.364C242.273 157.793 242.196 156.617 241.841 155.196C241.369 153.304 241.133 151.382 241.339 149.432L241.341 149.427Z" fill="#181818"/>
<path d="M186.214 84.5115C195.064 87.6041 200.413 91.6867 205.052 95.2305C207.241 96.8996 209.306 98.4786 211.512 99.7793C212.656 100.453 213.909 101.035 215.249 101.531C217.148 93.2506 217.834 83.5516 217.329 72.3264C217.191 69.2663 216.97 66.1661 216.679 63.0459H188.231C187.777 72.4316 186.54 82.0654 186.214 84.509V84.5115Z" fill="#181818"/>
<path d="M249.719 48.0014C250.347 48.2345 251.028 48.3047 251.759 48.2144C249.85 42.5905 247.246 37.2348 244.377 32.0419C242.819 29.2199 240.568 26.6736 237.128 25.7664C234.532 25.0822 231.971 24.2953 229.333 23.7364C229.147 23.6963 228.958 23.6587 228.773 23.6211C228.697 30.3227 230.315 35.8263 233.444 39.2021C236.301 42.2797 240.359 43.6582 245.503 43.2973C245.52 43.2973 245.538 43.2973 245.555 43.2973C245.882 43.2973 246.171 43.5128 246.261 43.8311C246.272 43.8612 247.226 47.0741 249.719 48.0039V48.0014Z" fill="#181818"/>
<path d="M111.73 156.384C112.607 155.592 112.323 154.635 112.293 153.68C112.177 150.131 112.036 146.582 111.968 143.036C107.998 143.545 104.294 143.818 101.731 143.958C101.324 150.843 99.8945 157.494 96.1555 163.594C95.2183 165.126 95.8515 165.735 97.4019 165.958C100.38 166.386 103.37 166.374 106.342 166.061C110.853 165.589 112.712 162.78 111.627 158.264C111.468 157.607 111.127 156.928 111.73 156.382V156.384Z" fill="#181818"/>
<path d="M103.757 74.9374C103.433 72.2683 103.156 69.5115 102.925 66.6845C102.073 56.1986 101.96 45.2841 102.606 35.9485C102.917 31.4524 103.395 27.3773 104.026 23.8009C102.661 23.7408 101.294 23.6831 99.9298 23.618C91.8738 23.2471 83.8003 23.3047 75.7368 23.0816C75.2795 23.0691 74.6538 23.0691 73.9452 23.0716C67.4848 33.6929 59.0243 50.8253 56.303 71.0303C60.4692 71.3686 80.9207 73.0302 103.757 74.9374Z" fill="#181818"/>
<path d="M212.771 35.7411C211.932 31.1247 211.035 26.5508 210.128 22.0723C204.024 22.3053 197.938 23.2527 191.855 24.8867C189.475 25.5258 187.093 26.195 184.691 26.7839C185.512 31.1923 185.997 34.889 186.113 37.1496C195.817 35.9416 206.517 35.7386 212.768 35.7436L212.771 35.7411Z" fill="#181818"/>
<path d="M254.908 90.1427C253.734 82.8672 253.707 75.6318 254.355 68.3237C254.85 62.7198 254.36 57.1235 252.842 51.7051C252.649 51.0109 252.44 50.3217 252.222 49.635C251.862 49.6951 251.51 49.7252 251.164 49.7252C250.478 49.7252 249.819 49.6074 249.191 49.3718C248.794 49.2214 248.427 49.0335 248.093 48.8154C251.892 58.6498 252.036 68.9477 250.857 79.2708C249.769 88.8194 249.337 98.2628 251.239 107.734C251.588 109.473 251.573 111.282 251.784 113.054C251.845 113.563 252.091 114.205 252.646 114.245C253.279 114.29 253.34 113.588 253.498 113.114C253.641 112.691 253.727 112.25 253.865 111.826C256.182 104.694 256.074 97.4006 254.903 90.1427H254.908Z" fill="#181818"/>
<path d="M152.198 27.5879C148.622 27.2295 145.054 26.7985 141.494 26.3499C129.533 24.8436 117.527 24.38 105.523 23.8662C103.566 34.8584 103.086 50.472 104.395 66.5668C104.631 69.4815 104.92 72.3186 105.257 75.0629C123.125 76.5565 142.25 78.1831 156.065 79.4312C156.085 78.4813 156.1 77.5214 156.113 76.5566C156.372 56.4819 155.03 39.8733 152.2 27.5904L152.198 27.5879Z" fill="#181818"/>
<path d="M157.583 76.5865C157.57 77.5865 157.553 78.5789 157.533 79.5639C160.641 79.8471 163.45 80.1077 165.883 80.3408C173.589 81.0826 179.738 82.3959 184.794 84.0324C185.344 79.8797 187.611 61.7398 186.731 51.0859C186.42 51.0859 186.113 51.0884 185.809 51.0884C176.778 51.0884 170.637 50.1937 168.245 47.9106C167.431 47.1311 167.041 46.2038 167.089 45.1538C167.25 41.6 172.65 39.0913 183.595 37.4873C183.945 37.4347 184.299 37.387 184.653 37.3369C184.555 35.159 184.08 31.505 183.264 27.1191C180.185 27.8209 177.075 28.3522 173.898 28.4725C167.162 28.7281 160.448 28.3697 153.759 27.7382C154.806 32.3771 155.648 37.6001 156.269 43.3819C157.304 52.9931 157.746 64.1633 157.585 76.584L157.583 76.5865Z" fill="#181818"/>
<path d="M188.204 51.0687C188.45 54.1413 188.445 57.8079 188.297 61.5772H216.538C216.136 57.5447 215.623 53.4797 215.03 49.4121C204.667 50.3244 195.589 50.9534 188.206 51.0687H188.204Z" fill="#181818"/>
<path d="M183.806 38.9412C170.699 40.8635 168.626 43.7005 168.556 45.2218C168.528 45.8383 168.757 46.3721 169.26 46.8508C171.184 48.6904 176.768 49.6227 185.849 49.6252H185.861C194.566 49.6252 205.315 48.7931 214.809 47.9586C214.268 44.3672 213.668 40.7758 213.03 37.2095C206.323 37.1969 194.164 37.4225 183.803 38.9412H183.806Z" fill="#181818"/>
<path d="M205.441 144.497C203.273 149.59 200.039 154.148 195.634 158.118C194.664 158.993 194.041 160.043 193.692 161.309C193.224 163 193.704 163.943 195.549 163.938C198.536 163.933 201.524 163.928 204.512 163.862C205.487 163.84 206.562 163.682 207.06 162.722C208.14 160.642 209.914 158.838 209.778 156.246C209.756 155.81 209.728 155.158 210.349 155.294C212.459 155.75 212.751 154.163 213.075 152.848C213.733 150.169 214.51 147.532 215.367 144.923C215.198 144.923 215.03 144.923 214.859 144.923C212.015 144.923 208.638 144.828 205.444 144.497H205.441Z" fill="#181818"/>
</svg>
