<svg width="336" height="175" viewBox="0 0 336 175" fill="none" xmlns="http://www.w3.org/2000/svg">
<rect width="336" height="40" fill="#181818"/>
<path d="M68.3969 13.3984H71.7172V9.33594H74.3187V20H71.7172V15.8125H68.3969V20H65.7953V9.33594H68.3969V13.3984ZM83.0047 9.05469C84.6818 9.05469 86.0958 9.67448 87.2469 10.9141C88.2469 11.987 88.7469 13.2396 88.7469 14.6719C88.7469 15.6719 88.4865 16.6068 87.9656 17.4766C87.4656 18.3151 86.7859 18.9844 85.9266 19.4844C85.0203 20.0156 84.0333 20.2812 82.9656 20.2812C81.9604 20.2812 81.0021 20.0156 80.0906 19.4844C79.226 18.9844 78.5464 18.3151 78.0516 17.4766C77.5307 16.6016 77.2703 15.638 77.2703 14.5859C77.2703 13.6172 77.5307 12.7109 78.0516 11.8672C78.6036 10.9766 79.312 10.2865 80.1766 9.79688C81.0568 9.30208 81.9995 9.05469 83.0047 9.05469ZM83.0047 11.4688C82.0411 11.4688 81.2469 11.8464 80.6219 12.6016C80.1271 13.1953 79.8797 13.8698 79.8797 14.625C79.8797 15.599 80.2156 16.3958 80.8875 17.0156C81.5073 17.5833 82.2078 17.8672 82.9891 17.8672C83.5568 17.8672 84.0906 17.7161 84.5906 17.4141C85.0906 17.112 85.476 16.7161 85.7469 16.2266C86.0073 15.7526 86.1375 15.2344 86.1375 14.6719C86.1375 13.7604 85.8146 12.987 85.1687 12.3516C84.5698 11.763 83.8484 11.4688 83.0047 11.4688ZM93.0344 9.33594L94.7844 15.1094L96.4719 9.33594H98.5891L100.277 15.1172L102.027 9.33594H104.745L101.511 20H99.2688L97.5266 14.0547L95.7922 20H93.55L90.3156 9.33594H93.0344ZM116.031 11.75V20H113.43V11.75H110.969V9.33594H118.492V11.75H116.031ZM125.873 9.05469C127.551 9.05469 128.965 9.67448 130.116 10.9141C131.116 11.987 131.616 13.2396 131.616 14.6719C131.616 15.6719 131.355 16.6068 130.834 17.4766C130.334 18.3151 129.655 18.9844 128.795 19.4844C127.889 20.0156 126.902 20.2812 125.834 20.2812C124.829 20.2812 123.871 20.0156 122.959 19.4844C122.095 18.9844 121.415 18.3151 120.92 17.4766C120.399 16.6016 120.139 15.638 120.139 14.5859C120.139 13.6172 120.399 12.7109 120.92 11.8672C121.472 10.9766 122.181 10.2865 123.045 9.79688C123.926 9.30208 124.868 9.05469 125.873 9.05469ZM125.873 11.4688C124.91 11.4688 124.116 11.8464 123.491 12.6016C122.996 13.1953 122.748 13.8698 122.748 14.625C122.748 15.599 123.084 16.3958 123.756 17.0156C124.376 17.5833 125.077 17.8672 125.858 17.8672C126.426 17.8672 126.959 17.7161 127.459 17.4141C127.959 17.112 128.345 16.7161 128.616 16.2266C128.876 15.7526 129.006 15.2344 129.006 14.6719C129.006 13.7604 128.683 12.987 128.037 12.3516C127.439 11.763 126.717 11.4688 125.873 11.4688ZM147.245 12.8906C146.813 12.3906 146.396 12.0286 145.995 11.8047C145.599 11.5807 145.167 11.4688 144.698 11.4688C143.719 11.4688 142.925 11.8438 142.316 12.5938C141.831 13.1875 141.589 13.8776 141.589 14.6641C141.589 15.6068 141.92 16.3906 142.581 17.0156C143.185 17.5833 143.896 17.8672 144.714 17.8672C145.188 17.8672 145.626 17.7552 146.027 17.5312C146.433 17.3021 146.855 16.9323 147.292 16.4219L149.159 18.1328C147.826 19.5651 146.355 20.2812 144.745 20.2812C143.678 20.2812 142.688 20.0156 141.777 19.4844C140.922 18.9896 140.248 18.3203 139.753 17.4766C139.237 16.6016 138.98 15.6667 138.98 14.6719C138.98 13.6771 139.235 12.7448 139.745 11.875C140.266 10.9896 140.972 10.2969 141.862 9.79688C142.748 9.30208 143.717 9.05469 144.769 9.05469C145.868 9.05469 146.876 9.3724 147.792 10.0078C148.214 10.2995 148.654 10.6901 149.112 11.1797L147.245 12.8906ZM156.814 9.05469C158.491 9.05469 159.905 9.67448 161.056 10.9141C162.056 11.987 162.556 13.2396 162.556 14.6719C162.556 15.6719 162.296 16.6068 161.775 17.4766C161.275 18.3151 160.595 18.9844 159.736 19.4844C158.83 20.0156 157.843 20.2812 156.775 20.2812C155.77 20.2812 154.811 20.0156 153.9 19.4844C153.035 18.9844 152.356 18.3151 151.861 17.4766C151.34 16.6016 151.08 15.638 151.08 14.5859C151.08 13.6172 151.34 12.7109 151.861 11.8672C152.413 10.9766 153.121 10.2865 153.986 9.79688C154.866 9.30208 155.809 9.05469 156.814 9.05469ZM156.814 11.4688C155.851 11.4688 155.056 11.8464 154.431 12.6016C153.936 13.1953 153.689 13.8698 153.689 14.625C153.689 15.599 154.025 16.3958 154.697 17.0156C155.317 17.5833 156.017 17.8672 156.798 17.8672C157.366 17.8672 157.9 17.7161 158.4 17.4141C158.9 17.112 159.285 16.7161 159.556 16.2266C159.817 15.7526 159.947 15.2344 159.947 14.6719C159.947 13.7604 159.624 12.987 158.978 12.3516C158.379 11.763 157.658 11.4688 156.814 11.4688ZM170.648 9.05469C172.326 9.05469 173.74 9.67448 174.891 10.9141C175.891 11.987 176.391 13.2396 176.391 14.6719C176.391 15.6719 176.13 16.6068 175.609 17.4766C175.109 18.3151 174.43 18.9844 173.57 19.4844C172.664 20.0156 171.677 20.2812 170.609 20.2812C169.604 20.2812 168.646 20.0156 167.734 19.4844C166.87 18.9844 166.19 18.3151 165.695 17.4766C165.174 16.6016 164.914 15.638 164.914 14.5859C164.914 13.6172 165.174 12.7109 165.695 11.8672C166.247 10.9766 166.956 10.2865 167.82 9.79688C168.701 9.30208 169.643 9.05469 170.648 9.05469ZM170.648 11.4688C169.685 11.4688 168.891 11.8464 168.266 12.6016C167.771 13.1953 167.523 13.8698 167.523 14.625C167.523 15.599 167.859 16.3958 168.531 17.0156C169.151 17.5833 169.852 17.8672 170.633 17.8672C171.201 17.8672 171.734 17.7161 172.234 17.4141C172.734 17.112 173.12 16.7161 173.391 16.2266C173.651 15.7526 173.781 15.2344 173.781 14.6719C173.781 13.7604 173.458 12.987 172.812 12.3516C172.214 11.763 171.492 11.4688 170.648 11.4688ZM184.342 13.875L188.405 20H185.327L182.561 15.7578L181.959 16.3984V20H179.358V9.33594H181.959V12.8516L185.264 9.33594H188.623L184.342 13.875ZM202.206 17.7891H198.355L197.597 20H194.847L198.831 9.33594H201.737L205.73 20H202.964L202.206 17.7891ZM201.386 15.375L200.284 12.1328L199.175 15.375H201.386ZM220.148 11.25L217.984 12.6172C217.688 12.1484 217.448 11.8411 217.266 11.6953C217.083 11.5443 216.854 11.4688 216.578 11.4688C216.359 11.4688 216.172 11.5078 216.016 11.5859C215.88 11.6536 215.766 11.763 215.672 11.9141C215.583 12.0599 215.539 12.2057 215.539 12.3516C215.539 12.6589 215.865 12.9349 216.516 13.1797L217.469 13.5312C218.375 13.8698 219.047 14.276 219.484 14.75C219.984 15.2865 220.234 15.9323 220.234 16.6875C220.234 17.3385 220.062 17.9453 219.719 18.5078C219.365 19.0703 218.885 19.5104 218.281 19.8281C217.703 20.1302 217.062 20.2812 216.359 20.2812C215.38 20.2812 214.536 19.9896 213.828 19.4062C213.474 19.1146 213.198 18.7839 213 18.4141C212.802 18.0443 212.633 17.5443 212.492 16.9141L215.055 16.2266C215.164 16.7109 215.268 17.0521 215.367 17.25C215.57 17.6615 215.911 17.8672 216.391 17.8672C216.76 17.8672 217.06 17.7448 217.289 17.5C217.513 17.2708 217.625 17.013 217.625 16.7266C217.625 16.5182 217.534 16.3411 217.352 16.1953C217.169 16.0443 216.844 15.8802 216.375 15.7031L215.469 15.3594C213.792 14.724 212.953 13.7188 212.953 12.3438C212.953 11.2708 213.388 10.4193 214.258 9.78906C214.93 9.29948 215.716 9.05469 216.617 9.05469C217.388 9.05469 218.052 9.22917 218.609 9.57812C219.167 9.92188 219.68 10.4792 220.148 11.25ZM227.334 11.75V20H224.733V11.75H222.272V9.33594H229.795V11.75H227.334ZM238.591 11.7188H234.739V13.4062H238.161V15.8047H234.739V17.5859H238.731V20H232.161V9.33594H238.591V11.7188ZM248.191 17.7891H244.339L243.581 20H240.831L244.816 9.33594H247.722L251.714 20H248.948L248.191 17.7891ZM247.37 15.375L246.269 12.1328L245.159 15.375H247.37ZM259.095 13.875L263.158 20H260.08L257.314 15.7578L256.712 16.3984V20H254.111V9.33594H256.712V12.8516L260.017 9.33594H263.377L259.095 13.875Z" fill="#FEFEFE"/>
<path d="M76.5122 26.4258V33H75.6905V26.4258H73.7891V25.6685H78.4082V26.4258H76.5122ZM80.9346 28.9019H84.6836V25.6685H85.5054V33H84.6836V29.6646H80.9346V33H80.1128V25.6685H80.9346V28.9019ZM91.813 26.4258H88.8589V28.9019H91.4854V29.6646H88.8589V32.2373H91.9258V33H88.0371V25.6685H91.813V26.4258ZM98.3803 30.0298V33H97.5586V25.6685H99.0625C99.5136 25.6685 99.8824 25.7114 100.169 25.7974C100.455 25.8797 100.704 26.0176 100.915 26.2109C101.367 26.6227 101.592 27.167 101.592 27.8438C101.592 28.5205 101.367 29.0666 100.915 29.4819C100.658 29.7183 100.36 29.8722 100.024 29.9438C99.7338 30.0011 99.4134 30.0298 99.0625 30.0298H98.3803ZM98.3803 29.2832H99.1591C99.7177 29.2832 100.126 29.1597 100.384 28.9126C100.652 28.6548 100.787 28.2985 100.787 27.8438C100.787 27.3926 100.652 27.0417 100.384 26.791C100.126 26.5475 99.7177 26.4258 99.1591 26.4258H98.3803V29.2832ZM107.218 26.4258H104.264V28.9019H106.89V29.6646H104.264V32.2373H107.331V33H103.442V25.6685H107.218V26.4258ZM112.397 29.8203L114.154 33H113.241L111.592 29.9976C111.32 30.019 111.105 30.0298 110.947 30.0298H110.265V33H109.443V25.6685H110.947C111.427 25.6685 111.819 25.7114 112.123 25.7974C112.431 25.8833 112.702 26.0265 112.934 26.2271C113.16 26.4204 113.337 26.6639 113.466 26.9575C113.595 27.2511 113.66 27.5609 113.66 27.8867C113.66 28.5563 113.418 29.0934 112.934 29.498C112.784 29.6234 112.605 29.7308 112.397 29.8203ZM110.265 29.2832H111.044C111.66 29.2832 112.113 29.165 112.403 28.9287C112.704 28.6816 112.854 28.3343 112.854 27.8867C112.854 27.4248 112.704 27.0632 112.403 26.8018C112.116 26.5511 111.663 26.4258 111.044 26.4258H110.265V29.2832ZM119.575 26.4258H116.879V28.9019H119.339V29.6646H116.879V33H116.057V25.6685H119.575V26.4258ZM125.405 26.4258H122.451V28.9019H125.077V29.6646H122.451V32.2373H125.517V33H121.629V25.6685H125.405V26.4258ZM132.84 27.2744C132.593 27.013 132.366 26.8197 132.158 26.6943C131.739 26.4365 131.274 26.3076 130.762 26.3076C129.809 26.3076 129.048 26.6675 128.479 27.3872C128.035 27.953 127.813 28.6029 127.813 29.3369C127.813 30.2214 128.119 30.9572 128.731 31.5444C129.293 32.0887 129.968 32.3608 130.756 32.3608C131.164 32.3608 131.531 32.2856 131.857 32.1353C132.183 31.9813 132.523 31.7271 132.878 31.3726L133.436 31.9365C133.118 32.2552 132.826 32.4915 132.561 32.6455C132.017 32.9678 131.42 33.1289 130.772 33.1289C130.06 33.1289 129.404 32.9499 128.807 32.5918C128.255 32.2588 127.816 31.8076 127.491 31.2383C127.154 30.6439 126.986 30.0101 126.986 29.3369C126.986 28.6637 127.154 28.0317 127.491 27.4409C127.827 26.8429 128.286 26.3774 128.866 26.0444C129.446 25.7078 130.079 25.5396 130.767 25.5396C131.283 25.5396 131.744 25.6309 132.153 25.8135C132.561 25.9961 132.978 26.2951 133.404 26.7104L132.84 27.2744ZM137.483 26.4258V33H136.661V26.4258H134.76V25.6685H139.379V26.4258H137.483ZM146.542 26.4258V33H145.721V26.4258H143.819V25.6685H148.438V26.4258H146.542ZM150.965 25.6685V33H150.143V25.6685H150.965ZM153.502 33V25.6685H154.383L157.079 30.4702L159.77 25.6685H160.651V33H159.829V27.0811L157.444 31.3511H156.708L154.323 27.0811V33H153.502ZM166.964 26.4258H164.01V28.9019H166.636V29.6646H164.01V32.2373H167.076V33H163.188V25.6685H166.964V26.4258ZM175.201 28.918L177.028 31.0986C177.189 30.8158 177.361 30.4129 177.543 29.8901L178.279 30.0942C178.053 30.7996 177.814 31.3475 177.559 31.7378L178.617 33H177.661L177.092 32.3125C176.519 32.8568 175.821 33.1289 174.997 33.1289C174.231 33.1289 173.62 32.8979 173.166 32.436C172.786 32.0529 172.596 31.5999 172.596 31.0771C172.596 30.6654 172.72 30.284 172.967 29.9331C173.218 29.5822 173.631 29.2062 174.208 28.8052L174.17 28.7568C173.633 28.1051 173.364 27.5501 173.364 27.0918C173.364 26.6442 173.524 26.2664 173.842 25.9585C174.133 25.6792 174.507 25.5396 174.965 25.5396C175.441 25.5396 175.826 25.6971 176.12 26.0122C176.388 26.2987 176.523 26.637 176.523 27.0273C176.523 27.3639 176.428 27.6665 176.238 27.9351C176.052 28.2 175.706 28.5277 175.201 28.918ZM174.761 28.3916C175.173 28.0729 175.452 27.8169 175.599 27.6235C175.749 27.4266 175.824 27.2171 175.824 26.9951C175.824 26.7624 175.742 26.5708 175.577 26.4204C175.413 26.2664 175.207 26.1895 174.96 26.1895C174.666 26.1895 174.435 26.2915 174.267 26.4956C174.134 26.6567 174.068 26.8447 174.068 27.0596C174.068 27.3854 174.299 27.8294 174.761 28.3916ZM176.587 31.7002L174.648 29.3369C174.387 29.5303 174.197 29.6789 174.079 29.7827C173.613 30.2017 173.381 30.6206 173.381 31.0396C173.381 31.4692 173.572 31.8219 173.955 32.0977C174.231 32.2982 174.575 32.3984 174.987 32.3984C175.624 32.3984 176.157 32.1657 176.587 31.7002ZM185.953 26.4258V33H185.131V26.4258H183.23V25.6685H187.849V26.4258H185.953ZM193.329 26.4258H190.375V28.9019H193.002V29.6646H190.375V32.2373H193.442V33H189.553V25.6685H193.329V26.4258ZM195.555 33V25.6685H196.436L199.132 30.4702L201.823 25.6685H202.704V33H201.882V27.0811L199.497 31.3511H198.761L196.377 27.0811V33H195.555ZM206.063 30.0298V33H205.241V25.6685H206.745C207.196 25.6685 207.565 25.7114 207.851 25.7974C208.138 25.8797 208.386 26.0176 208.598 26.2109C209.049 26.6227 209.275 27.167 209.275 27.8438C209.275 28.5205 209.049 29.0666 208.598 29.4819C208.34 29.7183 208.043 29.8722 207.706 29.9438C207.416 30.0011 207.096 30.0298 206.745 30.0298H206.063ZM206.063 29.2832H206.841C207.4 29.2832 207.808 29.1597 208.066 28.9126C208.335 28.6548 208.469 28.2985 208.469 27.8438C208.469 27.3926 208.335 27.0417 208.066 26.791C207.808 26.5475 207.4 26.4258 206.841 26.4258H206.063V29.2832ZM214.9 26.4258H211.946V28.9019H214.572V29.6646H211.946V32.2373H215.013V33H211.124V25.6685H214.9V26.4258ZM220.08 29.8203L221.836 33H220.923L219.274 29.9976C219.002 30.019 218.787 30.0298 218.629 30.0298H217.947V33H217.126V25.6685H218.629C219.109 25.6685 219.501 25.7114 219.806 25.7974C220.114 25.8833 220.384 26.0265 220.617 26.2271C220.842 26.4204 221.02 26.6639 221.148 26.9575C221.277 27.2511 221.342 27.5609 221.342 27.8867C221.342 28.5563 221.1 29.0934 220.617 29.498C220.466 29.6234 220.287 29.7308 220.08 29.8203ZM217.947 29.2832H218.726C219.342 29.2832 219.795 29.165 220.085 28.9287C220.386 28.6816 220.536 28.3343 220.536 27.8867C220.536 27.4248 220.386 27.0632 220.085 26.8018C219.799 26.5511 219.346 26.4258 218.726 26.4258H217.947V29.2832ZM224.856 30.9268L224.072 33H223.224L226.049 25.6685H227.075L229.895 33H229.041L228.251 30.9268H224.856ZM225.147 30.1641H227.956L226.543 26.4634L225.147 30.1641ZM232.958 26.4258V33H232.136V26.4258H230.235V25.6685H234.854V26.4258H232.958ZM237.38 25.6685V30.2124C237.38 30.5884 237.398 30.8748 237.434 31.0718C237.47 31.2651 237.534 31.437 237.627 31.5874C237.76 31.8058 237.966 31.9884 238.245 32.1353C238.535 32.2892 238.843 32.3662 239.169 32.3662C239.62 32.3662 240.023 32.2301 240.377 31.958C240.607 31.779 240.761 31.5713 240.839 31.335C240.922 31.0951 240.963 30.7209 240.963 30.2124V25.6685H241.785V30.4326C241.785 30.8229 241.747 31.1506 241.672 31.4155C241.6 31.6769 241.479 31.9168 241.307 32.1353C241.056 32.4575 240.732 32.7082 240.334 32.8872C239.966 33.0519 239.579 33.1343 239.174 33.1343C238.583 33.1343 238.052 32.9714 237.579 32.6455C237.214 32.3949 236.952 32.0977 236.795 31.7539C236.637 31.4102 236.559 30.9697 236.559 30.4326V25.6685H237.38ZM247.276 29.8203L249.032 33H248.119L246.47 29.9976C246.198 30.019 245.983 30.0298 245.826 30.0298H245.144V33H244.322V25.6685H245.826C246.305 25.6685 246.698 25.7114 247.002 25.7974C247.31 25.8833 247.58 26.0265 247.813 26.2271C248.039 26.4204 248.216 26.6639 248.345 26.9575C248.474 27.2511 248.538 27.5609 248.538 27.8867C248.538 28.5563 248.296 29.0934 247.813 29.498C247.663 29.6234 247.484 29.7308 247.276 29.8203ZM245.144 29.2832H245.922C246.538 29.2832 246.991 29.165 247.281 28.9287C247.582 28.6816 247.732 28.3343 247.732 27.8867C247.732 27.4248 247.582 27.0632 247.281 26.8018C246.995 26.5511 246.542 26.4258 245.922 26.4258H245.144V29.2832ZM254.711 26.4258H251.757V28.9019H254.384V29.6646H251.757V32.2373H254.824V33H250.936V25.6685H254.711V26.4258Z" fill="#FEFEFE"/>
<path d="M11.4802 63V53.0024H13.7214C14.6833 53.0024 15.423 53.1514 15.9406 53.4492C16.3264 53.6738 16.6389 53.9912 16.8781 54.4014C17.1271 54.8262 17.2517 55.2778 17.2517 55.7563C17.2517 56.4839 16.9416 57.126 16.3215 57.6826C16.6437 57.8486 16.9025 58.0537 17.0979 58.2979C17.5227 58.8252 17.7351 59.4331 17.7351 60.1216C17.7351 60.854 17.4909 61.4766 17.0026 61.9893C16.6657 62.3506 16.2775 62.6094 15.8381 62.7656C15.4035 62.9219 14.8566 63 14.1975 63H11.4802ZM13.0183 57.2139H13.8898C14.4416 57.2139 14.842 57.1455 15.091 57.0088C15.5402 56.7549 15.7648 56.3496 15.7648 55.793C15.7648 55.3779 15.6281 55.0386 15.3547 54.7749C15.1008 54.5308 14.6125 54.4087 13.8898 54.4087H13.0183V57.2139ZM13.0183 61.5718H14.1169C14.7272 61.5718 15.1765 61.4888 15.4646 61.3228C15.9528 61.0493 16.197 60.6294 16.197 60.063C16.197 59.8091 16.1335 59.5698 16.0065 59.3452C15.8845 59.1157 15.7209 58.9424 15.5158 58.8252C15.1984 58.6445 14.6882 58.5542 13.9851 58.5542H13.0183V61.5718ZM21.9857 53.0024V61.5571H25.7211V63H20.4257V53.0024H21.9857ZM27.672 53.0024H29.232V59.1694C29.232 59.6138 29.2491 59.9531 29.2833 60.1875C29.3224 60.417 29.3932 60.6196 29.4957 60.7954C29.6568 61.0688 29.9107 61.2959 30.2574 61.4766C30.6041 61.6523 30.9703 61.7402 31.3561 61.7402C31.9273 61.7402 32.4278 61.562 32.8575 61.2056C33.1065 61.0005 33.2726 60.7612 33.3556 60.4878C33.4386 60.2144 33.4801 59.7749 33.4801 59.1694V53.0024H35.0401V59.4551C35.0401 60.29 34.8961 60.9541 34.608 61.4473C34.3102 61.9551 33.8902 62.3628 33.3482 62.6704C32.7379 63.0269 32.0738 63.2051 31.3561 63.2051C30.36 63.2051 29.503 62.8901 28.7853 62.2603C28.3849 61.9136 28.0992 61.5254 27.9283 61.0957C27.7574 60.6611 27.672 60.1143 27.672 59.4551V53.0024ZM43.7366 54.438H39.8621V57.2065H43.3045V58.6567H39.8621V61.5498H43.8831V63H38.302V53.0024H43.7366V54.438ZM55.6145 58.73L58.0021 63H56.2517L54.091 59.1035C53.8176 59.123 53.5832 59.1328 53.3879 59.1328H52.7287V63H51.1687V53.0024H53.3879C54.3937 53.0024 55.1677 53.1562 55.7097 53.4639C56.1491 53.7178 56.5007 54.0693 56.7644 54.5186C57.0476 55.002 57.1892 55.5293 57.1892 56.1006C57.1892 56.6719 57.05 57.1895 56.7717 57.6533C56.4934 58.1172 56.1076 58.4761 55.6145 58.73ZM52.7287 57.7192H53.5124C54.1423 57.7192 54.6159 57.6289 54.9333 57.4482C55.4167 57.1748 55.6584 56.7207 55.6584 56.0859C55.6584 55.4365 55.4118 54.9702 54.9187 54.687C54.6013 54.5112 54.1325 54.4233 53.5124 54.4233H52.7287V57.7192ZM62.2821 60.4219L61.3373 63H59.704L63.476 53.0024H65.3949L69.1669 63H67.5263L66.5741 60.4219H62.2821ZM62.8168 58.9717H66.0395L64.4208 54.6138L62.8168 58.9717ZM75.7613 58.73L78.149 63H76.3985L74.2379 59.1035C73.9645 59.123 73.7301 59.1328 73.5348 59.1328H72.8756V63H71.3155V53.0024H73.5348C74.5406 53.0024 75.3145 53.1562 75.8565 53.4639C76.296 53.7178 76.6476 54.0693 76.9112 54.5186C77.1944 55.002 77.336 55.5293 77.336 56.1006C77.336 56.6719 77.1969 57.1895 76.9186 57.6533C76.6402 58.1172 76.2545 58.4761 75.7613 58.73ZM72.8756 57.7192H73.6593C74.2892 57.7192 74.7628 57.6289 75.0802 57.4482C75.5636 57.1748 75.8053 56.7207 75.8053 56.0859C75.8053 55.4365 75.5587 54.9702 75.0655 54.687C74.7481 54.5112 74.2794 54.4233 73.6593 54.4233H72.8756V57.7192ZM85.9446 54.438H82.0701V57.2065H85.5125V58.6567H82.0701V61.5498H86.0911V63H80.5101V53.0024H85.9446V54.438Z" fill="#181818"/>
<path d="M15.5444 77.73L17.9321 82H16.1816L14.021 78.1035C13.7476 78.123 13.5132 78.1328 13.3179 78.1328H12.6587V82H11.0986V72.0024H13.3179C14.3237 72.0024 15.0977 72.1562 15.6396 72.4639C16.0791 72.7178 16.4307 73.0693 16.6943 73.5186C16.9775 74.002 17.1191 74.5293 17.1191 75.1006C17.1191 75.6719 16.98 76.1895 16.7017 76.6533C16.4233 77.1172 16.0376 77.4761 15.5444 77.73ZM12.6587 76.7192H13.4424C14.0723 76.7192 14.5459 76.6289 14.8633 76.4482C15.3467 76.1748 15.5884 75.7207 15.5884 75.0859C15.5884 74.4365 15.3418 73.9702 14.8486 73.687C14.5312 73.5112 14.0625 73.4233 13.4424 73.4233H12.6587V76.7192ZM22.2121 79.4219L21.2673 82H19.634L23.406 72.0024H25.3249L29.0969 82H27.4563L26.5041 79.4219H22.2121ZM22.7468 77.9717H25.9694L24.3508 73.6138L22.7468 77.9717ZM35.6913 77.73L38.079 82H36.3285L34.1679 78.1035C33.8944 78.123 33.6601 78.1328 33.4647 78.1328H32.8056V82H31.2455V72.0024H33.4647C34.4706 72.0024 35.2445 72.1562 35.7865 72.4639C36.226 72.7178 36.5775 73.0693 36.8412 73.5186C37.1244 74.002 37.266 74.5293 37.266 75.1006C37.266 75.6719 37.1269 76.1895 36.8485 76.6533C36.5702 77.1172 36.1845 77.4761 35.6913 77.73ZM32.8056 76.7192H33.5893C34.2191 76.7192 34.6928 76.6289 35.0102 76.4482C35.4936 76.1748 35.7353 75.7207 35.7353 75.0859C35.7353 74.4365 35.4887 73.9702 34.9955 73.687C34.6781 73.5112 34.2094 73.4233 33.5893 73.4233H32.8056V76.7192ZM45.8746 73.438H42.0001V76.2065H45.4425V77.6567H42.0001V80.5498H46.0211V82H40.44V72.0024H45.8746V73.438Z" fill="#181818"/>
<path d="M11.3799 102V92.0024H12.9033L16.3164 98.0815L19.7295 92.0024H21.2456V102H19.6855V94.9395L16.9316 99.854H15.6938L12.9399 94.9395V102H11.3799ZM29.9348 93.438H26.0603V96.2065H29.5026V97.6567H26.0603V100.55H30.0813V102H24.5002V92.0024H29.9348V93.438ZM32.7572 92.0024H34.9765C36.1972 92.0024 37.2445 92.2539 38.1186 92.7568C38.8412 93.1719 39.3905 93.7139 39.7665 94.3828C40.1962 95.1445 40.411 96.0137 40.411 96.9902C40.411 98.3818 40.0106 99.5122 39.2099 100.381C38.2138 101.46 36.8026 102 34.9765 102H32.7572V92.0024ZM34.3173 93.4526V100.55H35.0204C35.8847 100.55 36.6195 100.376 37.225 100.03C38.3041 99.4097 38.8437 98.3965 38.8437 96.9902C38.8437 95.5986 38.3041 94.5928 37.225 93.9727C36.6195 93.626 35.8847 93.4526 35.0204 93.4526H34.3173ZM44.6544 92.0024V102H43.0943V92.0024H44.6544ZM47.909 92.0024H49.469V98.1694C49.469 98.6138 49.4861 98.9531 49.5203 99.1875C49.5594 99.417 49.6302 99.6196 49.7327 99.7954C49.8938 100.069 50.1478 100.296 50.4944 100.477C50.8411 100.652 51.2073 100.74 51.5931 100.74C52.1644 100.74 52.6648 100.562 53.0945 100.206C53.3436 100 53.5096 99.7612 53.5926 99.4878C53.6756 99.2144 53.7171 98.7749 53.7171 98.1694V92.0024H55.2771V98.4551C55.2771 99.29 55.1331 99.9541 54.845 100.447C54.5472 100.955 54.1272 101.363 53.5853 101.67C52.9749 102.027 52.3108 102.205 51.5931 102.205C50.597 102.205 49.74 101.89 49.0223 101.26C48.6219 100.914 48.3362 100.525 48.1653 100.096C47.9944 99.6611 47.909 99.1143 47.909 98.4551V92.0024ZM58.5391 102V92.0024H60.0625L63.4756 98.0815L66.8887 92.0024H68.4048V102H66.8447V94.9395L64.0908 99.854H62.853L60.0991 94.9395V102H58.5391ZM80.7147 97.73L83.1024 102H81.352L79.1913 98.1035C78.9179 98.123 78.6835 98.1328 78.4882 98.1328H77.829V102H76.2689V92.0024H78.4882C79.494 92.0024 80.268 92.1562 80.81 92.4639C81.2494 92.7178 81.601 93.0693 81.8646 93.5186C82.1479 94.002 82.2895 94.5293 82.2895 95.1006C82.2895 95.6719 82.1503 96.1895 81.872 96.6533C81.5937 97.1172 81.2079 97.4761 80.7147 97.73ZM77.829 96.7192H78.6127C79.2426 96.7192 79.7162 96.6289 80.0336 96.4482C80.517 96.1748 80.7587 95.7207 80.7587 95.0859C80.7587 94.4365 80.5121 93.9702 80.0189 93.687C79.7016 93.5112 79.2328 93.4233 78.6127 93.4233H77.829V96.7192ZM87.3824 99.4219L86.4376 102H84.8043L88.5763 92.0024H90.4952L94.2672 102H92.6266L91.6744 99.4219H87.3824ZM87.9171 97.9717H91.1397L89.5211 93.6138L87.9171 97.9717ZM100.862 97.73L103.249 102H101.499L99.3382 98.1035C99.0647 98.123 98.8304 98.1328 98.6351 98.1328H97.9759V102H96.4158V92.0024H98.6351C99.6409 92.0024 100.415 92.1562 100.957 92.4639C101.396 92.7178 101.748 93.0693 102.012 93.5186C102.295 94.002 102.436 94.5293 102.436 95.1006C102.436 95.6719 102.297 96.1895 102.019 96.6533C101.741 97.1172 101.355 97.4761 100.862 97.73ZM97.9759 96.7192H98.7596C99.3895 96.7192 99.8631 96.6289 100.18 96.4482C100.664 96.1748 100.906 95.7207 100.906 95.0859C100.906 94.4365 100.659 93.9702 100.166 93.687C99.8484 93.5112 99.3797 93.4233 98.7596 93.4233H97.9759V96.7192ZM111.045 93.438H107.17V96.2065H110.613V97.6567H107.17V100.55H111.191V102H105.61V92.0024H111.045V93.438Z" fill="#181818"/>
<path d="M11.4839 121V111.002H13.0073L16.4204 117.082L19.8335 111.002H21.3496V121H19.7896V113.939L17.0356 118.854H15.7979L13.0439 113.939V121H11.4839ZM30.0388 112.438H26.1643V115.207H29.6066V116.657H26.1643V119.55H30.1853V121H24.6042V111.002H30.0388V112.438ZM32.8612 111.002H35.0805C36.3012 111.002 37.3485 111.254 38.2226 111.757C38.9452 112.172 39.4945 112.714 39.8705 113.383C40.3002 114.145 40.515 115.014 40.515 115.99C40.515 117.382 40.1146 118.512 39.3139 119.381C38.3178 120.46 36.9066 121 35.0805 121H32.8612V111.002ZM34.4213 112.453V119.55H35.1244C35.9887 119.55 36.7235 119.376 37.329 119.03C38.4081 118.41 38.9477 117.396 38.9477 115.99C38.9477 114.599 38.4081 113.593 37.329 112.973C36.7235 112.626 35.9887 112.453 35.1244 112.453H34.4213ZM44.7584 111.002V121H43.1983V111.002H44.7584ZM48.013 111.002H49.573V117.169C49.573 117.614 49.5901 117.953 49.6243 118.188C49.6634 118.417 49.7342 118.62 49.8367 118.795C49.9979 119.069 50.2518 119.296 50.5984 119.477C50.9451 119.652 51.3113 119.74 51.6971 119.74C52.2684 119.74 52.7688 119.562 53.1985 119.206C53.4476 119 53.6136 118.761 53.6966 118.488C53.7796 118.214 53.8211 117.775 53.8211 117.169V111.002H55.3812V117.455C55.3812 118.29 55.2371 118.954 54.949 119.447C54.6512 119.955 54.2313 120.363 53.6893 120.67C53.0789 121.027 52.4148 121.205 51.6971 121.205C50.701 121.205 49.844 120.89 49.1263 120.26C48.7259 119.914 48.4402 119.525 48.2693 119.096C48.0984 118.661 48.013 118.114 48.013 117.455V111.002ZM58.6431 121V111.002H60.1665L63.5796 117.082L66.9927 111.002H68.5088V121H66.9487V113.939L64.1948 118.854H62.957L60.2031 113.939V121H58.6431Z" fill="#181818"/>
<path d="M11.4019 141V131.002H12.9253L16.3384 137.082L19.7515 131.002H21.2676V141H19.7075V133.939L16.9536 138.854H15.7158L12.9619 133.939V141H11.4019ZM29.9567 132.438H26.0822V135.207H29.5246V136.657H26.0822V139.55H30.1032V141H24.5222V131.002H29.9567V132.438ZM32.7792 131.002H34.9984C36.2191 131.002 37.2665 131.254 38.1405 131.757C38.8632 132.172 39.4125 132.714 39.7885 133.383C40.2182 134.145 40.433 135.014 40.433 135.99C40.433 137.382 40.0326 138.512 39.2318 139.381C38.2357 140.46 36.8246 141 34.9984 141H32.7792V131.002ZM34.3393 132.453V139.55H35.0424C35.9066 139.55 36.6415 139.376 37.247 139.03C38.3261 138.41 38.8656 137.396 38.8656 135.99C38.8656 134.599 38.3261 133.593 37.247 132.973C36.6415 132.626 35.9066 132.453 35.0424 132.453H34.3393ZM44.6764 131.002V141H43.1163V131.002H44.6764ZM47.931 131.002H49.491V137.169C49.491 137.614 49.5081 137.953 49.5423 138.188C49.5813 138.417 49.6521 138.62 49.7547 138.795C49.9158 139.069 50.1697 139.296 50.5164 139.477C50.8631 139.652 51.2293 139.74 51.615 139.74C52.1863 139.74 52.6868 139.562 53.1165 139.206C53.3655 139 53.5315 138.761 53.6146 138.488C53.6976 138.214 53.7391 137.775 53.7391 137.169V131.002H55.2991V137.455C55.2991 138.29 55.1551 138.954 54.867 139.447C54.5691 139.955 54.1492 140.363 53.6072 140.67C52.9969 141.027 52.3328 141.205 51.615 141.205C50.6189 141.205 49.762 140.89 49.0442 140.26C48.6438 139.914 48.3582 139.525 48.1873 139.096C48.0164 138.661 47.931 138.114 47.931 137.455V131.002ZM58.561 141V131.002H60.0845L63.4976 137.082L66.9106 131.002H68.4268V141H66.8667V133.939L64.1128 138.854H62.875L60.1211 133.939V141H58.561ZM76.8183 131.002L78.9276 138.393L81.1103 131.002H82.4359L84.6186 138.393L86.7353 131.002H88.3539L85.3583 141H84.6112H83.8861L81.7768 133.903L79.6601 141H78.9423H78.1952L75.1923 131.002H76.8183ZM95.9737 132.438H92.0992V135.207H95.5416V136.657H92.0992V139.55H96.1202V141H90.5392V131.002H95.9737V132.438ZM100.356 131.002V139.557H104.092V141H98.7962V131.002H100.356ZM107.881 131.002V139.557H111.616V141H106.321V131.002H107.881Z" fill="#181818"/>
<path d="M11.6916 151.002L13.801 158.393L15.9836 151.002H17.3093L19.4919 158.393L21.6086 151.002H23.2272L20.2316 161H19.4846H18.7595L16.6501 153.903L14.5334 161H13.8156H13.0686L10.0656 151.002H11.6916ZM30.8471 152.438H26.9726V155.207H30.4149V156.657H26.9726V159.55H30.9936V161H25.4125V151.002H30.8471V152.438ZM35.2296 151.002V159.557H38.9649V161H33.6695V151.002H35.2296ZM42.7542 151.002V159.557H46.4895V161H41.1941V151.002H42.7542ZM53.3283 151.002H55.5476C56.7683 151.002 57.8156 151.254 58.6896 151.757C59.4123 152.172 59.9616 152.714 60.3376 153.383C60.7673 154.145 60.9821 155.014 60.9821 155.99C60.9821 157.382 60.5817 158.512 59.781 159.381C58.7849 160.46 57.3737 161 55.5476 161H53.3283V151.002ZM54.8884 152.453V159.55H55.5915C56.4558 159.55 57.1906 159.376 57.7961 159.03C58.8752 158.41 59.4147 157.396 59.4147 155.99C59.4147 154.599 58.8752 153.593 57.7961 152.973C57.1906 152.626 56.4558 152.453 55.5915 152.453H54.8884ZM68.2797 150.797C69.2025 150.797 70.057 151.027 70.8432 151.486C71.6586 151.964 72.3007 152.604 72.7694 153.405C73.2382 154.21 73.4726 155.077 73.4726 156.005C73.4726 156.933 73.2357 157.802 72.7621 158.612C72.2982 159.408 71.661 160.041 70.8505 160.509C70.0448 160.973 69.1952 161.205 68.3017 161.205C66.9833 161.205 65.8285 160.761 64.8373 159.872C63.6752 158.837 63.0941 157.526 63.0941 155.939C63.0941 155.031 63.3285 154.186 63.7973 153.405C64.2953 152.58 64.9374 151.94 65.7235 151.486C66.5243 151.027 67.3764 150.797 68.2797 150.797ZM68.2797 152.262C67.2299 152.262 66.3485 152.663 65.6356 153.463C64.996 154.176 64.6762 155.006 64.6762 155.954C64.6762 157.14 65.0985 158.102 65.9433 158.839C66.6317 159.44 67.413 159.74 68.287 159.74C68.8974 159.74 69.4809 159.579 70.0375 159.257C70.6137 158.925 71.0653 158.476 71.3925 157.909C71.7245 157.328 71.8905 156.693 71.8905 156.005C71.8905 154.877 71.4804 153.937 70.6601 153.185C69.9862 152.57 69.1928 152.262 68.2797 152.262ZM76.1559 161V151.002H77.5255L83.026 158.356V151.002H84.5787V161H83.2091L77.7159 153.646V161H76.1559ZM93.2605 152.438H89.386V155.207H92.8284V156.657H89.386V159.55H93.407V161H87.826V151.002H93.2605V152.438Z" fill="#181818"/>
<path d="M155.859 53.5298L152.139 59.4551H154.636V57.0747H156.182V59.4551H157.368V60.876H156.182V63H154.636V60.876H150.352V59.4917L154.592 52.7461L155.859 53.5298ZM158.982 60.4585L160.498 60.063C160.635 60.605 160.803 60.998 161.004 61.2422C161.282 61.5742 161.695 61.7402 162.241 61.7402C162.818 61.7402 163.269 61.5571 163.596 61.1909C163.875 60.8833 164.014 60.5049 164.014 60.0557C164.014 59.5625 163.855 59.1694 163.538 58.8765C163.259 58.6128 162.81 58.481 162.19 58.481H161.531V57.0601H162.19C162.796 57.0601 163.225 56.9111 163.479 56.6133C163.704 56.3447 163.816 56.0249 163.816 55.6538C163.816 55.2144 163.67 54.8628 163.377 54.5991C163.108 54.3599 162.752 54.2402 162.307 54.2402C161.941 54.2402 161.636 54.3208 161.392 54.4819C161.153 54.6382 160.896 54.9238 160.623 55.3389L159.326 54.6284C159.605 54.1548 159.888 53.7935 160.176 53.5444C160.757 53.0464 161.465 52.7974 162.3 52.7974C163.286 52.7974 164.065 53.1147 164.636 53.7495C165.105 54.272 165.34 54.8945 165.34 55.6172C165.34 56.4424 165.025 57.126 164.395 57.668C165.176 58.2979 165.567 59.0938 165.567 60.0557C165.567 61.0127 165.235 61.7817 164.571 62.3628C163.931 62.9243 163.15 63.2051 162.227 63.2051C161.226 63.2051 160.418 62.8706 159.802 62.2017C159.597 61.9771 159.439 61.7476 159.326 61.5132C159.214 61.2788 159.104 60.9517 158.997 60.5317L158.982 60.4585ZM170.176 51.8745C170.777 51.8745 171.292 52.1113 171.722 52.585C172.083 52.9756 172.264 53.4443 172.264 53.9912C172.264 54.6309 172.029 55.1606 171.56 55.5806C171.155 55.9419 170.682 56.1226 170.14 56.1226C169.51 56.1226 168.982 55.8882 168.558 55.4194C168.196 55.019 168.016 54.5405 168.016 53.9839C168.016 53.3687 168.25 52.8486 168.719 52.4238C169.119 52.0576 169.605 51.8745 170.176 51.8745ZM170.154 52.9951C169.871 52.9951 169.629 53.0928 169.429 53.2881C169.234 53.4785 169.136 53.7129 169.136 53.9912C169.136 54.2695 169.234 54.5088 169.429 54.709C169.629 54.9043 169.866 55.002 170.14 55.002C170.418 55.002 170.655 54.9043 170.85 54.709C171.045 54.5088 171.143 54.2695 171.143 53.9912C171.143 53.6982 171.033 53.4541 170.813 53.2588C170.618 53.083 170.398 52.9951 170.154 52.9951ZM181.729 55.6245C181.387 55.2681 181.08 54.9946 180.806 54.8042C180.274 54.4429 179.664 54.2622 178.975 54.2622C177.877 54.2622 176.978 54.6577 176.28 55.4487C175.645 56.1665 175.328 57.0186 175.328 58.0049C175.328 59.1426 175.733 60.0776 176.544 60.8101C177.232 61.4302 178.04 61.7402 178.968 61.7402C179.769 61.7402 180.486 61.4839 181.121 60.9712C181.263 60.854 181.48 60.6465 181.773 60.3486L182.864 61.4106C182.42 61.855 182.005 62.2017 181.619 62.4507C180.838 62.9536 179.962 63.2051 178.99 63.2051C178.028 63.2051 177.142 62.9707 176.331 62.502C175.54 62.043 174.913 61.4106 174.449 60.605C173.98 59.7993 173.746 58.9326 173.746 58.0049C173.746 57.082 173.978 56.2178 174.442 55.4121C174.91 54.5918 175.547 53.9497 176.353 53.4858C177.154 53.0269 178.028 52.7974 178.975 52.7974C179.712 52.7974 180.384 52.939 180.989 53.2222C181.6 53.5005 182.21 53.9497 182.82 54.5698L181.729 55.6245Z" fill="#181818"/>
<path d="M155.859 72.5298L152.139 78.4551H154.636V76.0747H156.182V78.4551H157.368V79.876H156.182V82H154.636V79.876H150.352V78.4917L154.592 71.7461L155.859 72.5298ZM161.135 81.3701L163.15 78.5503C163.052 78.5698 162.942 78.5796 162.82 78.5796C162.195 78.5796 161.607 78.4185 161.055 78.0962C160.552 77.8032 160.161 77.415 159.883 76.9316C159.595 76.4385 159.451 75.8916 159.451 75.291C159.451 74.666 159.61 74.0801 159.927 73.5332C160.244 72.9863 160.674 72.5591 161.216 72.2515C161.743 71.9487 162.32 71.7974 162.945 71.7974C163.999 71.7974 164.876 72.1831 165.574 72.9546C166.17 73.6138 166.467 74.3926 166.467 75.291C166.467 76.0918 166.204 76.8584 165.676 77.5908L162.337 82.2637L161.135 81.3701ZM162.967 73.2402C162.376 73.2402 161.887 73.4575 161.502 73.8921C161.165 74.2729 160.996 74.7148 160.996 75.2178C160.996 75.8232 161.199 76.3066 161.604 76.668C161.975 77 162.42 77.166 162.937 77.166C163.552 77.166 164.053 76.9536 164.439 76.5288C164.761 76.1724 164.922 75.7402 164.922 75.2324C164.922 74.627 164.707 74.1265 164.278 73.731C163.916 73.4038 163.479 73.2402 162.967 73.2402ZM171.172 70.8745C171.773 70.8745 172.288 71.1113 172.718 71.585C173.079 71.9756 173.26 72.4443 173.26 72.9912C173.26 73.6309 173.025 74.1606 172.557 74.5806C172.151 74.9419 171.678 75.1226 171.136 75.1226C170.506 75.1226 169.978 74.8882 169.554 74.4194C169.192 74.019 169.012 73.5405 169.012 72.9839C169.012 72.3687 169.246 71.8486 169.715 71.4238C170.115 71.0576 170.601 70.8745 171.172 70.8745ZM171.15 71.9951C170.867 71.9951 170.625 72.0928 170.425 72.2881C170.23 72.4785 170.132 72.7129 170.132 72.9912C170.132 73.2695 170.23 73.5088 170.425 73.709C170.625 73.9043 170.862 74.002 171.136 74.002C171.414 74.002 171.651 73.9043 171.846 73.709C172.041 73.5088 172.139 73.2695 172.139 72.9912C172.139 72.6982 172.029 72.4541 171.809 72.2588C171.614 72.083 171.394 71.9951 171.15 71.9951ZM182.725 74.6245C182.383 74.2681 182.076 73.9946 181.802 73.8042C181.27 73.4429 180.66 73.2622 179.971 73.2622C178.873 73.2622 177.974 73.6577 177.276 74.4487C176.641 75.1665 176.324 76.0186 176.324 77.0049C176.324 78.1426 176.729 79.0776 177.54 79.8101C178.228 80.4302 179.036 80.7402 179.964 80.7402C180.765 80.7402 181.483 80.4839 182.117 79.9712C182.259 79.854 182.476 79.6465 182.769 79.3486L183.86 80.4106C183.416 80.855 183.001 81.2017 182.615 81.4507C181.834 81.9536 180.958 82.2051 179.986 82.2051C179.024 82.2051 178.138 81.9707 177.327 81.502C176.536 81.043 175.909 80.4106 175.445 79.605C174.976 78.7993 174.742 77.9326 174.742 77.0049C174.742 76.082 174.974 75.2178 175.438 74.4121C175.906 73.5918 176.544 72.9497 177.349 72.4858C178.15 72.0269 179.024 71.7974 179.971 71.7974C180.709 71.7974 181.38 71.939 181.985 72.2222C182.596 72.5005 183.206 72.9497 183.817 73.5698L182.725 74.6245Z" fill="#181818"/>
<path d="M156.863 93.4307H153.464L153.069 95.3643C153.225 95.2861 153.481 95.2471 153.838 95.2471C154.912 95.2471 155.793 95.6279 156.482 96.3896C157.058 97.0244 157.346 97.7861 157.346 98.6748C157.346 99.7246 156.96 100.599 156.189 101.297C155.52 101.902 154.705 102.205 153.743 102.205C153.049 102.205 152.446 102.049 151.934 101.736C151.426 101.419 150.947 100.909 150.498 100.206L151.736 99.3486C151.97 99.749 152.158 100.022 152.3 100.169C152.671 100.56 153.159 100.755 153.765 100.755C154.385 100.755 154.893 100.535 155.288 100.096C155.625 99.7148 155.793 99.2559 155.793 98.7188C155.793 98.0889 155.574 97.5737 155.134 97.1733C154.758 96.8364 154.309 96.668 153.787 96.668C153.22 96.668 152.739 96.8828 152.344 97.3125L151.143 97.0562L152.175 92.0024H156.863V93.4307ZM164.863 92.5298L161.143 98.4551H163.64V96.0747H165.186V98.4551H166.372V99.876H165.186V102H163.64V99.876H159.356V98.4917L163.596 91.7461L164.863 92.5298ZM170.909 90.8745C171.509 90.8745 172.024 91.1113 172.454 91.585C172.815 91.9756 172.996 92.4443 172.996 92.9912C172.996 93.6309 172.762 94.1606 172.293 94.5806C171.888 94.9419 171.414 95.1226 170.872 95.1226C170.242 95.1226 169.715 94.8882 169.29 94.4194C168.929 94.019 168.748 93.5405 168.748 92.9839C168.748 92.3687 168.982 91.8486 169.451 91.4238C169.851 91.0576 170.337 90.8745 170.909 90.8745ZM170.887 91.9951C170.603 91.9951 170.362 92.0928 170.162 92.2881C169.966 92.4785 169.869 92.7129 169.869 92.9912C169.869 93.2695 169.966 93.5088 170.162 93.709C170.362 93.9043 170.599 94.002 170.872 94.002C171.15 94.002 171.387 93.9043 171.582 93.709C171.778 93.5088 171.875 93.2695 171.875 92.9912C171.875 92.6982 171.766 92.4541 171.546 92.2588C171.35 92.083 171.131 91.9951 170.887 91.9951ZM182.462 94.6245C182.12 94.2681 181.812 93.9946 181.539 93.8042C181.006 93.4429 180.396 93.2622 179.708 93.2622C178.609 93.2622 177.711 93.6577 177.012 94.4487C176.378 95.1665 176.06 96.0186 176.06 97.0049C176.06 98.1426 176.465 99.0776 177.276 99.8101C177.964 100.43 178.773 100.74 179.7 100.74C180.501 100.74 181.219 100.484 181.854 99.9712C181.995 99.854 182.212 99.6465 182.505 99.3486L183.597 100.411C183.152 100.855 182.737 101.202 182.352 101.451C181.57 101.954 180.694 102.205 179.722 102.205C178.76 102.205 177.874 101.971 177.064 101.502C176.273 101.043 175.645 100.411 175.181 99.605C174.712 98.7993 174.478 97.9326 174.478 97.0049C174.478 96.082 174.71 95.2178 175.174 94.4121C175.643 93.5918 176.28 92.9497 177.086 92.4858C177.886 92.0269 178.76 91.7974 179.708 91.7974C180.445 91.7974 181.116 91.939 181.722 92.2222C182.332 92.5005 182.942 92.9497 183.553 93.5698L182.462 94.6245Z" fill="#181818"/>
<path d="M154.889 111.64L152.882 114.452C152.965 114.423 153.062 114.408 153.175 114.408C153.81 114.408 154.405 114.569 154.962 114.892C155.465 115.18 155.858 115.568 156.141 116.056C156.429 116.554 156.573 117.104 156.573 117.704C156.573 118.334 156.415 118.922 156.097 119.469C155.78 120.016 155.353 120.443 154.815 120.751C154.283 121.054 153.705 121.205 153.08 121.205C152.025 121.205 151.148 120.819 150.45 120.048C149.854 119.394 149.557 118.615 149.557 117.711C149.557 116.911 149.818 116.144 150.34 115.412L153.68 110.746L154.889 111.64ZM153.065 115.822C152.469 115.822 151.979 116.034 151.593 116.459C151.266 116.82 151.102 117.257 151.102 117.77C151.102 118.38 151.317 118.881 151.747 119.271C152.108 119.599 152.545 119.762 153.058 119.762C153.648 119.762 154.137 119.545 154.522 119.11C154.859 118.729 155.028 118.285 155.028 117.777C155.028 117.211 154.854 116.754 154.508 116.408C154.122 116.017 153.641 115.822 153.065 115.822ZM162.516 110.797C165.089 110.797 166.376 112.533 166.376 116.005C166.376 119.472 165.106 121.205 162.567 121.205C160.013 121.205 158.737 119.447 158.737 115.932C158.737 114.447 158.988 113.271 159.491 112.401C159.779 111.903 160.15 111.527 160.604 111.273C161.166 110.956 161.803 110.797 162.516 110.797ZM162.56 112.248C161.954 112.248 161.468 112.453 161.102 112.863C160.873 113.117 160.685 113.522 160.538 114.079C160.392 114.635 160.319 115.216 160.319 115.822C160.319 117.14 160.507 118.141 160.883 118.825C161.224 119.445 161.783 119.755 162.56 119.755C164.049 119.755 164.794 118.485 164.794 115.946C164.794 114.833 164.608 113.91 164.237 113.178C164.091 112.895 163.866 112.667 163.563 112.497C163.27 112.331 162.936 112.248 162.56 112.248ZM170.993 109.875C171.593 109.875 172.108 110.111 172.538 110.585C172.899 110.976 173.08 111.444 173.08 111.991C173.08 112.631 172.846 113.161 172.377 113.581C171.972 113.942 171.498 114.123 170.956 114.123C170.326 114.123 169.799 113.888 169.374 113.419C169.013 113.019 168.832 112.541 168.832 111.984C168.832 111.369 169.066 110.849 169.535 110.424C169.935 110.058 170.421 109.875 170.993 109.875ZM170.971 110.995C170.687 110.995 170.446 111.093 170.246 111.288C170.05 111.479 169.953 111.713 169.953 111.991C169.953 112.27 170.05 112.509 170.246 112.709C170.446 112.904 170.683 113.002 170.956 113.002C171.234 113.002 171.471 112.904 171.666 112.709C171.862 112.509 171.959 112.27 171.959 111.991C171.959 111.698 171.85 111.454 171.63 111.259C171.434 111.083 171.215 110.995 170.971 110.995ZM182.546 113.625C182.204 113.268 181.896 112.995 181.623 112.804C181.09 112.443 180.48 112.262 179.792 112.262C178.693 112.262 177.795 112.658 177.096 113.449C176.462 114.167 176.144 115.019 176.144 116.005C176.144 117.143 176.549 118.078 177.36 118.81C178.048 119.43 178.857 119.74 179.784 119.74C180.585 119.74 181.303 119.484 181.938 118.971C182.079 118.854 182.296 118.646 182.589 118.349L183.681 119.411C183.236 119.855 182.821 120.202 182.436 120.451C181.654 120.954 180.778 121.205 179.806 121.205C178.844 121.205 177.958 120.971 177.148 120.502C176.357 120.043 175.729 119.411 175.265 118.605C174.796 117.799 174.562 116.933 174.562 116.005C174.562 115.082 174.794 114.218 175.258 113.412C175.727 112.592 176.364 111.95 177.17 111.486C177.97 111.027 178.844 110.797 179.792 110.797C180.529 110.797 181.2 110.939 181.806 111.222C182.416 111.5 183.026 111.95 183.637 112.57L182.546 113.625Z" fill="#181818"/>
<path d="M155.889 131.64L153.882 134.452C153.965 134.423 154.062 134.408 154.175 134.408C154.81 134.408 155.405 134.569 155.962 134.892C156.465 135.18 156.858 135.568 157.141 136.056C157.429 136.554 157.573 137.104 157.573 137.704C157.573 138.334 157.415 138.922 157.097 139.469C156.78 140.016 156.353 140.443 155.815 140.751C155.283 141.054 154.705 141.205 154.08 141.205C153.025 141.205 152.148 140.819 151.45 140.048C150.854 139.394 150.557 138.615 150.557 137.711C150.557 136.911 150.818 136.144 151.34 135.412L154.68 130.746L155.889 131.64ZM154.065 135.822C153.469 135.822 152.979 136.034 152.593 136.459C152.266 136.82 152.102 137.257 152.102 137.77C152.102 138.38 152.317 138.881 152.747 139.271C153.108 139.599 153.545 139.762 154.058 139.762C154.648 139.762 155.137 139.545 155.522 139.11C155.859 138.729 156.028 138.285 156.028 137.777C156.028 137.211 155.854 136.754 155.508 136.408C155.122 136.017 154.641 135.822 154.065 135.822ZM165.127 131.64L163.12 134.452C163.203 134.423 163.301 134.408 163.413 134.408C164.048 134.408 164.644 134.569 165.2 134.892C165.703 135.18 166.096 135.568 166.38 136.056C166.668 136.554 166.812 137.104 166.812 137.704C166.812 138.334 166.653 138.922 166.336 139.469C166.018 140.016 165.591 140.443 165.054 140.751C164.522 141.054 163.943 141.205 163.318 141.205C162.263 141.205 161.387 140.819 160.689 140.048C160.093 139.394 159.795 138.615 159.795 137.711C159.795 136.911 160.056 136.144 160.579 135.412L163.919 130.746L165.127 131.64ZM163.303 135.822C162.708 135.822 162.217 136.034 161.831 136.459C161.504 136.82 161.341 137.257 161.341 137.77C161.341 138.38 161.555 138.881 161.985 139.271C162.346 139.599 162.783 139.762 163.296 139.762C163.887 139.762 164.375 139.545 164.761 139.11C165.098 138.729 165.266 138.285 165.266 137.777C165.266 137.211 165.093 136.754 164.746 136.408C164.361 136.017 163.88 135.822 163.303 135.822ZM171.538 129.875C172.139 129.875 172.654 130.111 173.084 130.585C173.445 130.976 173.626 131.444 173.626 131.991C173.626 132.631 173.392 133.161 172.923 133.581C172.517 133.942 172.044 134.123 171.502 134.123C170.872 134.123 170.345 133.888 169.92 133.419C169.558 133.019 169.378 132.541 169.378 131.984C169.378 131.369 169.612 130.849 170.081 130.424C170.481 130.058 170.967 129.875 171.538 129.875ZM171.517 130.995C171.233 130.995 170.992 131.093 170.791 131.288C170.596 131.479 170.498 131.713 170.498 131.991C170.498 132.27 170.596 132.509 170.791 132.709C170.992 132.904 171.228 133.002 171.502 133.002C171.78 133.002 172.017 132.904 172.212 132.709C172.408 132.509 172.505 132.27 172.505 131.991C172.505 131.698 172.395 131.454 172.176 131.259C171.98 131.083 171.761 130.995 171.517 130.995ZM183.091 133.625C182.75 133.268 182.442 132.995 182.169 132.804C181.636 132.443 181.026 132.262 180.337 132.262C179.239 132.262 178.34 132.658 177.642 133.449C177.007 134.167 176.69 135.019 176.69 136.005C176.69 137.143 177.095 138.078 177.906 138.81C178.594 139.43 179.402 139.74 180.33 139.74C181.131 139.74 181.849 139.484 182.483 138.971C182.625 138.854 182.842 138.646 183.135 138.349L184.227 139.411C183.782 139.855 183.367 140.202 182.982 140.451C182.2 140.954 181.324 141.205 180.352 141.205C179.39 141.205 178.504 140.971 177.693 140.502C176.902 140.043 176.275 139.411 175.811 138.605C175.342 137.799 175.108 136.933 175.108 136.005C175.108 135.082 175.34 134.218 175.804 133.412C176.273 132.592 176.91 131.95 177.715 131.486C178.516 131.027 179.39 130.797 180.337 130.797C181.075 130.797 181.746 130.939 182.352 131.222C182.962 131.5 183.572 131.95 184.183 132.57L183.091 133.625Z" fill="#181818"/>
<path d="M151.527 161.553L155.907 153.431H151.146V152.002H157.738V153.152L152.875 162.264L151.527 161.553ZM164.706 152.53L160.986 158.455H163.483V156.075H165.029V158.455H166.215V159.876H165.029V162H163.483V159.876H159.198V158.492L163.439 151.746L164.706 152.53ZM170.751 150.875C171.352 150.875 171.867 151.111 172.297 151.585C172.658 151.976 172.839 152.444 172.839 152.991C172.839 153.631 172.604 154.161 172.136 154.581C171.73 154.942 171.257 155.123 170.715 155.123C170.085 155.123 169.558 154.888 169.133 154.419C168.771 154.019 168.591 153.541 168.591 152.984C168.591 152.369 168.825 151.849 169.294 151.424C169.694 151.058 170.18 150.875 170.751 150.875ZM170.729 151.995C170.446 151.995 170.204 152.093 170.004 152.288C169.809 152.479 169.711 152.713 169.711 152.991C169.711 153.27 169.809 153.509 170.004 153.709C170.204 153.904 170.441 154.002 170.715 154.002C170.993 154.002 171.23 153.904 171.425 153.709C171.621 153.509 171.718 153.27 171.718 152.991C171.718 152.698 171.608 152.454 171.389 152.259C171.193 152.083 170.974 151.995 170.729 151.995ZM182.304 154.625C181.962 154.268 181.655 153.995 181.381 153.804C180.849 153.443 180.239 153.262 179.55 153.262C178.452 153.262 177.553 153.658 176.855 154.449C176.22 155.167 175.903 156.019 175.903 157.005C175.903 158.143 176.308 159.078 177.119 159.81C177.807 160.43 178.615 160.74 179.543 160.74C180.344 160.74 181.062 160.484 181.696 159.971C181.838 159.854 182.055 159.646 182.348 159.349L183.44 160.411C182.995 160.855 182.58 161.202 182.194 161.451C181.413 161.954 180.537 162.205 179.565 162.205C178.603 162.205 177.717 161.971 176.906 161.502C176.115 161.043 175.488 160.411 175.024 159.605C174.555 158.799 174.321 157.933 174.321 157.005C174.321 156.082 174.553 155.218 175.017 154.412C175.485 153.592 176.123 152.95 176.928 152.486C177.729 152.027 178.603 151.797 179.55 151.797C180.288 151.797 180.959 151.939 181.565 152.222C182.175 152.5 182.785 152.95 183.396 153.57L182.304 154.625Z" fill="#181818"/>
<path d="M229.655 63H228.102V54.8335L226.732 55.6172L226 54.3574L228.373 53.0024H229.655V63ZM240.128 57.0454C240.675 56.4448 241.364 56.1445 242.194 56.1445C242.98 56.1445 243.632 56.3789 244.149 56.8477C244.472 57.1455 244.701 57.4922 244.838 57.8877C244.979 58.2783 245.05 58.7886 245.05 59.4185V63H243.556V59.5356C243.556 58.8618 243.476 58.3735 243.314 58.0708C243.119 57.7046 242.772 57.5215 242.274 57.5215C242.025 57.5215 241.793 57.5776 241.579 57.6899C241.364 57.8022 241.205 57.9512 241.103 58.1367C240.937 58.4395 240.854 58.9521 240.854 59.6748V63H239.359V59.5356C239.359 58.8618 239.279 58.3735 239.118 58.0708C238.922 57.7046 238.573 57.5215 238.07 57.5215C237.816 57.5215 237.582 57.5776 237.367 57.6899C237.152 57.8022 236.994 57.9512 236.891 58.1367C236.725 58.4443 236.642 58.957 236.642 59.6748V63H235.148V56.3496H236.642V56.833C237.086 56.374 237.616 56.1445 238.231 56.1445C238.964 56.1445 239.596 56.4448 240.128 57.0454ZM248.251 56.3496V63H246.757V56.3496H248.251ZM247.504 53.1562C247.772 53.1562 248 53.249 248.185 53.4346C248.375 53.6201 248.471 53.8447 248.471 54.1084C248.471 54.377 248.375 54.604 248.185 54.7896C248 54.9751 247.772 55.0679 247.504 55.0679C247.235 55.0679 247.006 54.9751 246.815 54.7896C246.63 54.5991 246.537 54.3696 246.537 54.1011C246.537 53.8423 246.632 53.6201 246.823 53.4346C247.013 53.249 247.24 53.1562 247.504 53.1562ZM249.943 56.3496H251.437V56.833C251.916 56.374 252.479 56.1445 253.129 56.1445C253.847 56.1445 254.467 56.374 254.989 56.833C255.307 57.1162 255.536 57.4604 255.678 57.8657C255.819 58.2661 255.89 58.7837 255.89 59.4185V63H254.396V59.5356C254.396 58.8813 254.315 58.4053 254.154 58.1074C253.944 57.7168 253.556 57.5215 252.99 57.5215C252.707 57.5215 252.445 57.5825 252.206 57.7046C251.972 57.8218 251.798 57.978 251.686 58.1733C251.52 58.4712 251.437 58.9717 251.437 59.6748V63H249.943V56.3496ZM258.563 61.2861C258.832 61.2861 259.059 61.3789 259.245 61.5645C259.43 61.75 259.523 61.9722 259.523 62.231C259.523 62.4946 259.43 62.7192 259.245 62.9048C259.059 63.0903 258.832 63.1831 258.563 63.1831C258.295 63.1831 258.068 63.0903 257.882 62.9048C257.697 62.7192 257.604 62.4897 257.604 62.2163C257.604 61.9624 257.697 61.7451 257.882 61.5645C258.073 61.3789 258.3 61.2861 258.563 61.2861ZM264.796 56.3496H266.291V56.9282C266.964 56.4058 267.648 56.1445 268.341 56.1445C268.893 56.1445 269.428 56.2935 269.945 56.5913C270.497 56.9087 270.927 57.3384 271.234 57.8804C271.552 58.4272 271.71 59.0278 271.71 59.6821C271.71 60.7515 271.322 61.6328 270.546 62.3262C269.887 62.9121 269.152 63.2051 268.341 63.2051C267.653 63.2051 266.969 62.9438 266.291 62.4214V66.501H264.796V56.3496ZM268.224 57.4995C267.653 57.4995 267.184 57.7021 266.818 58.1074C266.461 58.498 266.283 59.0156 266.283 59.6602C266.283 60.4121 266.505 60.9858 266.95 61.3813C267.301 61.6938 267.716 61.8501 268.195 61.8501C268.585 61.8501 268.937 61.7573 269.25 61.5718C269.884 61.186 270.202 60.5513 270.202 59.6675C270.202 58.9399 269.977 58.3784 269.528 57.9829C269.162 57.6606 268.727 57.4995 268.224 57.4995ZM279.123 60.2461H274.098C274.171 60.6025 274.301 60.9053 274.486 61.1543C274.828 61.6182 275.324 61.8501 275.973 61.8501C276.32 61.8501 276.642 61.7744 276.94 61.623C277.238 61.4717 277.475 61.2617 277.65 60.9932L277.782 60.7808L279.071 61.3154C278.324 62.5752 277.289 63.2051 275.966 63.2051C274.94 63.2051 274.103 62.8364 273.454 62.0991C272.858 61.4204 272.56 60.6099 272.56 59.6675C272.56 58.5786 272.941 57.6851 273.703 56.9868C274.318 56.4253 275.041 56.1445 275.871 56.1445C276.818 56.1445 277.606 56.4961 278.236 57.1992C278.559 57.5557 278.798 58.0049 278.954 58.5469C279.071 58.9619 279.13 59.3867 279.13 59.8213C279.13 59.8945 279.127 60.0361 279.123 60.2461ZM277.643 59.0889C277.536 58.6689 277.377 58.3296 277.167 58.0708C276.85 57.6704 276.422 57.4702 275.885 57.4702C275.431 57.4702 275.045 57.6143 274.728 57.9023C274.416 58.1855 274.206 58.5811 274.098 59.0889H277.643ZM280.397 56.3496H281.891V56.8843C282.174 56.6548 282.409 56.5034 282.594 56.4302C282.785 56.3569 283.029 56.3203 283.327 56.3203C283.473 56.3203 283.656 56.3301 283.876 56.3496V57.6899C283.632 57.6802 283.458 57.6753 283.356 57.6753C282.755 57.6753 282.35 57.873 282.14 58.2686C281.974 58.5811 281.891 59.0913 281.891 59.7993V63H280.397V56.3496ZM289.237 60.7588C289.442 61.1738 289.638 61.4619 289.823 61.623C290.009 61.7793 290.241 61.8574 290.519 61.8574C290.836 61.8574 291.073 61.7622 291.229 61.5718C291.366 61.4106 291.435 61.2324 291.435 61.0371C291.435 60.9053 291.398 60.7881 291.325 60.6855C291.242 60.5732 290.958 60.4243 290.475 60.2388L289.794 59.9751C288.832 59.604 288.351 59.0083 288.351 58.188C288.351 57.5923 288.571 57.104 289.01 56.7231C289.455 56.3374 289.989 56.1445 290.614 56.1445C291.576 56.1445 292.313 56.6279 292.826 57.5947L291.654 58.188C291.474 57.9194 291.305 57.7339 291.149 57.6313C290.998 57.5239 290.812 57.4702 290.592 57.4702C290.353 57.4702 290.158 57.5337 290.006 57.6606C289.855 57.7827 289.779 57.9438 289.779 58.144C289.779 58.2759 289.813 58.3906 289.882 58.4883C289.955 58.5859 290.236 58.73 290.724 58.9204L291.339 59.1548C291.896 59.3696 292.299 59.6211 292.548 59.9092C292.802 60.1973 292.929 60.5537 292.929 60.9785C292.929 61.623 292.685 62.1626 292.196 62.5972C291.742 63.0024 291.178 63.2051 290.504 63.2051C289.899 63.2051 289.391 63.0464 288.981 62.729C288.576 62.4116 288.249 61.9233 288 61.2642L289.237 60.7588ZM295.697 56.3496V63H294.203V56.3496H295.697ZM294.95 53.1562C295.219 53.1562 295.446 53.249 295.631 53.4346C295.822 53.6201 295.917 53.8447 295.917 54.1084C295.917 54.377 295.822 54.604 295.631 54.7896C295.446 54.9751 295.219 55.0679 294.95 55.0679C294.682 55.0679 294.452 54.9751 294.262 54.7896C294.076 54.5991 293.983 54.3696 293.983 54.1011C293.983 53.8423 294.079 53.6201 294.269 53.4346C294.459 53.249 294.687 53.1562 294.95 53.1562ZM303.878 63H302.384V62.4214C301.71 62.9438 301.027 63.2051 300.333 63.2051C299.782 63.2051 299.247 63.0562 298.729 62.7583C298.178 62.4409 297.748 62.0112 297.44 61.4692C297.123 60.9224 296.964 60.3218 296.964 59.6675C296.964 58.5981 297.353 57.7168 298.129 57.0234C298.788 56.4375 299.523 56.1445 300.333 56.1445C301.022 56.1445 301.706 56.4058 302.384 56.9282V53.0024H303.878V63ZM300.487 57.4995C299.882 57.4995 299.389 57.707 299.008 58.1221C298.651 58.5078 298.473 59.0181 298.473 59.6528C298.473 60.3999 298.698 60.9712 299.147 61.3667C299.518 61.689 299.953 61.8501 300.451 61.8501C301.022 61.8501 301.491 61.6475 301.857 61.2422C302.213 60.8516 302.392 60.334 302.392 59.6895C302.392 58.9375 302.169 58.3638 301.725 57.9683C301.374 57.6558 300.961 57.4995 300.487 57.4995ZM311.715 60.2461H306.691C306.764 60.6025 306.894 60.9053 307.079 61.1543C307.421 61.6182 307.917 61.8501 308.566 61.8501C308.913 61.8501 309.235 61.7744 309.533 61.623C309.831 61.4717 310.067 61.2617 310.243 60.9932L310.375 60.7808L311.664 61.3154C310.917 62.5752 309.882 63.2051 308.559 63.2051C307.533 63.2051 306.696 62.8364 306.046 62.0991C305.451 61.4204 305.153 60.6099 305.153 59.6675C305.153 58.5786 305.534 57.6851 306.295 56.9868C306.911 56.4253 307.633 56.1445 308.463 56.1445C309.411 56.1445 310.199 56.4961 310.829 57.1992C311.151 57.5557 311.391 58.0049 311.547 58.5469C311.664 58.9619 311.723 59.3867 311.723 59.8213C311.723 59.8945 311.72 60.0361 311.715 60.2461ZM310.236 59.0889C310.128 58.6689 309.97 58.3296 309.76 58.0708C309.442 57.6704 309.015 57.4702 308.478 57.4702C308.024 57.4702 307.638 57.6143 307.321 57.9023C307.008 58.1855 306.798 58.5811 306.691 59.0889H310.236Z" fill="#181818"/>
<path d="M230.655 82H229.102V73.8335L227.732 74.6172L227 73.3574L229.373 72.0024H230.655V82ZM233.562 80.2861C233.831 80.2861 234.058 80.3789 234.244 80.5645C234.429 80.75 234.522 80.9722 234.522 81.231C234.522 81.4946 234.429 81.7192 234.244 81.9048C234.058 82.0903 233.831 82.1831 233.562 82.1831C233.294 82.1831 233.067 82.0903 232.881 81.9048C232.696 81.7192 232.603 81.4897 232.603 81.2163C232.603 80.9624 232.696 80.7451 232.881 80.5645C233.072 80.3789 233.299 80.2861 233.562 80.2861ZM242.256 73.4307H238.858L238.462 75.3643C238.619 75.2861 238.875 75.2471 239.231 75.2471C240.306 75.2471 241.187 75.6279 241.875 76.3896C242.452 77.0244 242.74 77.7861 242.74 78.6748C242.74 79.7246 242.354 80.5986 241.583 81.2969C240.914 81.9023 240.098 82.2051 239.136 82.2051C238.443 82.2051 237.84 82.0488 237.327 81.7363C236.819 81.4189 236.341 80.9087 235.892 80.2056L237.129 79.3486C237.364 79.749 237.552 80.0225 237.693 80.1689C238.064 80.5596 238.553 80.7549 239.158 80.7549C239.778 80.7549 240.286 80.5352 240.682 80.0957C241.019 79.7148 241.187 79.2559 241.187 78.7188C241.187 78.0889 240.967 77.5737 240.528 77.1733C240.152 76.8364 239.703 76.668 239.18 76.668C238.614 76.668 238.133 76.8828 237.737 77.3125L236.536 77.0562L237.569 72.0024H242.256V73.4307ZM252.73 76.0454C253.277 75.4448 253.965 75.1445 254.795 75.1445C255.582 75.1445 256.233 75.3789 256.751 75.8477C257.073 76.1455 257.303 76.4922 257.439 76.8877C257.581 77.2783 257.652 77.7886 257.652 78.4185V82H256.158V78.5356C256.158 77.8618 256.077 77.3735 255.916 77.0708C255.721 76.7046 255.374 76.5215 254.876 76.5215C254.627 76.5215 254.395 76.5776 254.18 76.6899C253.965 76.8022 253.807 76.9512 253.704 77.1367C253.538 77.4395 253.455 77.9521 253.455 78.6748V82H251.961V78.5356C251.961 77.8618 251.88 77.3735 251.719 77.0708C251.524 76.7046 251.175 76.5215 250.672 76.5215C250.418 76.5215 250.184 76.5776 249.969 76.6899C249.754 76.8022 249.595 76.9512 249.493 77.1367C249.327 77.4443 249.244 77.957 249.244 78.6748V82H247.75V75.3496H249.244V75.833C249.688 75.374 250.218 75.1445 250.833 75.1445C251.565 75.1445 252.198 75.4448 252.73 76.0454ZM260.853 75.3496V82H259.358V75.3496H260.853ZM260.105 72.1562C260.374 72.1562 260.601 72.249 260.787 72.4346C260.977 72.6201 261.072 72.8447 261.072 73.1084C261.072 73.377 260.977 73.604 260.787 73.7896C260.601 73.9751 260.374 74.0679 260.105 74.0679C259.837 74.0679 259.607 73.9751 259.417 73.7896C259.231 73.5991 259.139 73.3696 259.139 73.1011C259.139 72.8423 259.234 72.6201 259.424 72.4346C259.615 72.249 259.842 72.1562 260.105 72.1562ZM262.544 75.3496H264.039V75.833C264.517 75.374 265.081 75.1445 265.73 75.1445C266.448 75.1445 267.068 75.374 267.591 75.833C267.908 76.1162 268.138 76.4604 268.279 76.8657C268.421 77.2661 268.492 77.7837 268.492 78.4185V82H266.998V78.5356C266.998 77.8813 266.917 77.4053 266.756 77.1074C266.546 76.7168 266.158 76.5215 265.591 76.5215C265.308 76.5215 265.047 76.5825 264.808 76.7046C264.573 76.8218 264.4 76.978 264.288 77.1733C264.122 77.4712 264.039 77.9717 264.039 78.6748V82H262.544V75.3496ZM271.165 80.2861C271.434 80.2861 271.661 80.3789 271.846 80.5645C272.032 80.75 272.125 80.9722 272.125 81.231C272.125 81.4946 272.032 81.7192 271.846 81.9048C271.661 82.0903 271.434 82.1831 271.165 82.1831C270.896 82.1831 270.669 82.0903 270.484 81.9048C270.298 81.7192 270.206 81.4897 270.206 81.2163C270.206 80.9624 270.298 80.7451 270.484 80.5645C270.674 80.3789 270.901 80.2861 271.165 80.2861ZM277.398 75.3496H278.892V75.9282C279.566 75.4058 280.25 75.1445 280.943 75.1445C281.495 75.1445 282.029 75.2935 282.547 75.5913C283.099 75.9087 283.528 76.3384 283.836 76.8804C284.153 77.4272 284.312 78.0278 284.312 78.6821C284.312 79.7515 283.924 80.6328 283.147 81.3262C282.488 81.9121 281.753 82.2051 280.943 82.2051C280.254 82.2051 279.571 81.9438 278.892 81.4214V85.501H277.398V75.3496ZM280.826 76.4995C280.254 76.4995 279.786 76.7021 279.419 77.1074C279.063 77.498 278.885 78.0156 278.885 78.6602C278.885 79.4121 279.107 79.9858 279.551 80.3813C279.903 80.6938 280.318 80.8501 280.796 80.8501C281.187 80.8501 281.539 80.7573 281.851 80.5718C282.486 80.186 282.803 79.5513 282.803 78.6675C282.803 77.9399 282.579 77.3784 282.129 76.9829C281.763 76.6606 281.329 76.4995 280.826 76.4995ZM291.724 79.2461H286.7C286.773 79.6025 286.902 79.9053 287.088 80.1543C287.43 80.6182 287.925 80.8501 288.575 80.8501C288.921 80.8501 289.244 80.7744 289.542 80.623C289.839 80.4717 290.076 80.2617 290.252 79.9932L290.384 79.7808L291.673 80.3154C290.926 81.5752 289.891 82.2051 288.567 82.2051C287.542 82.2051 286.705 81.8364 286.055 81.0991C285.459 80.4204 285.162 79.6099 285.162 78.6675C285.162 77.5786 285.542 76.6851 286.304 75.9868C286.919 75.4253 287.642 75.1445 288.472 75.1445C289.419 75.1445 290.208 75.4961 290.838 76.1992C291.16 76.5557 291.399 77.0049 291.556 77.5469C291.673 77.9619 291.731 78.3867 291.731 78.8213C291.731 78.8945 291.729 79.0361 291.724 79.2461ZM290.245 78.0889C290.137 77.6689 289.979 77.3296 289.769 77.0708C289.451 76.6704 289.024 76.4702 288.487 76.4702C288.033 76.4702 287.647 76.6143 287.33 76.9023C287.017 77.1855 286.807 77.5811 286.7 78.0889H290.245ZM292.999 75.3496H294.493V75.8843C294.776 75.6548 295.01 75.5034 295.196 75.4302C295.386 75.3569 295.63 75.3203 295.928 75.3203C296.075 75.3203 296.258 75.3301 296.478 75.3496V76.6899C296.233 76.6802 296.06 76.6753 295.958 76.6753C295.357 76.6753 294.952 76.873 294.742 77.2686C294.576 77.5811 294.493 78.0913 294.493 78.7993V82H292.999V75.3496ZM301.839 79.7588C302.044 80.1738 302.239 80.4619 302.425 80.623C302.61 80.7793 302.842 80.8574 303.121 80.8574C303.438 80.8574 303.675 80.7622 303.831 80.5718C303.968 80.4106 304.036 80.2324 304.036 80.0371C304.036 79.9053 304 79.7881 303.926 79.6855C303.843 79.5732 303.56 79.4243 303.077 79.2388L302.396 78.9751C301.434 78.604 300.953 78.0083 300.953 77.188C300.953 76.5923 301.172 76.104 301.612 75.7231C302.056 75.3374 302.591 75.1445 303.216 75.1445C304.178 75.1445 304.915 75.6279 305.428 76.5947L304.256 77.188C304.075 76.9194 303.907 76.7339 303.75 76.6313C303.599 76.5239 303.414 76.4702 303.194 76.4702C302.955 76.4702 302.759 76.5337 302.608 76.6606C302.457 76.7827 302.381 76.9438 302.381 77.144C302.381 77.2759 302.415 77.3906 302.483 77.4883C302.557 77.5859 302.837 77.73 303.326 77.9204L303.941 78.1548C304.498 78.3696 304.9 78.6211 305.149 78.9092C305.403 79.1973 305.53 79.5537 305.53 79.9785C305.53 80.623 305.286 81.1626 304.798 81.5972C304.344 82.0024 303.78 82.2051 303.106 82.2051C302.5 82.2051 301.993 82.0464 301.583 81.729C301.177 81.4116 300.85 80.9233 300.601 80.2642L301.839 79.7588ZM308.299 75.3496V82H306.805V75.3496H308.299ZM307.552 72.1562C307.82 72.1562 308.047 72.249 308.233 72.4346C308.423 72.6201 308.519 72.8447 308.519 73.1084C308.519 73.377 308.423 73.604 308.233 73.7896C308.047 73.9751 307.82 74.0679 307.552 74.0679C307.283 74.0679 307.054 73.9751 306.863 73.7896C306.678 73.5991 306.585 73.3696 306.585 73.1011C306.585 72.8423 306.68 72.6201 306.871 72.4346C307.061 72.249 307.288 72.1562 307.552 72.1562ZM316.48 82H314.986V81.4214C314.312 81.9438 313.628 82.2051 312.935 82.2051C312.383 82.2051 311.849 82.0562 311.331 81.7583C310.779 81.4409 310.35 81.0112 310.042 80.4692C309.725 79.9224 309.566 79.3218 309.566 78.6675C309.566 77.5981 309.954 76.7168 310.73 76.0234C311.39 75.4375 312.125 75.1445 312.935 75.1445C313.624 75.1445 314.307 75.4058 314.986 75.9282V72.0024H316.48V82ZM313.089 76.4995C312.483 76.4995 311.99 76.707 311.609 77.1221C311.253 77.5078 311.075 78.0181 311.075 78.6528C311.075 79.3999 311.299 79.9712 311.749 80.3667C312.12 80.689 312.554 80.8501 313.052 80.8501C313.624 80.8501 314.092 80.6475 314.458 80.2422C314.815 79.8516 314.993 79.334 314.993 78.6895C314.993 77.9375 314.771 77.3638 314.327 76.9683C313.975 76.6558 313.562 76.4995 313.089 76.4995ZM324.317 79.2461H319.292C319.366 79.6025 319.495 79.9053 319.681 80.1543C320.022 80.6182 320.518 80.8501 321.167 80.8501C321.514 80.8501 321.836 80.7744 322.134 80.623C322.432 80.4717 322.669 80.2617 322.845 79.9932L322.977 79.7808L324.266 80.3154C323.519 81.5752 322.483 82.2051 321.16 82.2051C320.135 82.2051 319.297 81.8364 318.648 81.0991C318.052 80.4204 317.754 79.6099 317.754 78.6675C317.754 77.5786 318.135 76.6851 318.897 75.9868C319.512 75.4253 320.235 75.1445 321.065 75.1445C322.012 75.1445 322.801 75.4961 323.431 76.1992C323.753 76.5557 323.992 77.0049 324.148 77.5469C324.266 77.9619 324.324 78.3867 324.324 78.8213C324.324 78.8945 324.322 79.0361 324.317 79.2461ZM322.837 78.0889C322.73 77.6689 322.571 77.3296 322.361 77.0708C322.044 76.6704 321.617 76.4702 321.08 76.4702C320.625 76.4702 320.24 76.6143 319.922 76.9023C319.61 77.1855 319.4 77.5811 319.292 78.0889H322.837Z" fill="#181818"/>
<path d="M227.645 102V100.726L231.248 96.7192C231.946 95.9429 232.295 95.2373 232.295 94.6025C232.295 94.1924 232.156 93.8604 231.878 93.6064C231.619 93.3721 231.248 93.2549 230.765 93.2549C230.188 93.2549 229.769 93.416 229.505 93.7383C229.314 93.9678 229.146 94.3389 229 94.8516L227.571 94.4561C227.723 93.792 227.967 93.2598 228.304 92.8594C228.904 92.1514 229.737 91.7974 230.801 91.7974C231.802 91.7974 232.581 92.1074 233.138 92.7275C233.597 93.2354 233.826 93.8726 233.826 94.6392C233.826 95.5864 233.479 96.4458 232.786 97.2173L229.783 100.557H234.046V102H227.645ZM243.721 96.0454C244.268 95.4448 244.957 95.1445 245.787 95.1445C246.573 95.1445 247.225 95.3789 247.742 95.8477C248.064 96.1455 248.294 96.4922 248.431 96.8877C248.572 97.2783 248.643 97.7886 248.643 98.4185V102H247.149V98.5356C247.149 97.8618 247.068 97.3735 246.907 97.0708C246.712 96.7046 246.365 96.5215 245.867 96.5215C245.618 96.5215 245.386 96.5776 245.171 96.6899C244.957 96.8022 244.798 96.9512 244.695 97.1367C244.529 97.4395 244.446 97.9521 244.446 98.6748V102H242.952V98.5356C242.952 97.8618 242.872 97.3735 242.71 97.0708C242.515 96.7046 242.166 96.5215 241.663 96.5215C241.409 96.5215 241.175 96.5776 240.96 96.6899C240.745 96.8022 240.586 96.9512 240.484 97.1367C240.318 97.4443 240.235 97.957 240.235 98.6748V102H238.741V95.3496H240.235V95.833C240.679 95.374 241.209 95.1445 241.824 95.1445C242.557 95.1445 243.189 95.4448 243.721 96.0454ZM251.844 95.3496V102H250.35V95.3496H251.844ZM251.097 92.1562C251.365 92.1562 251.592 92.249 251.778 92.4346C251.968 92.6201 252.063 92.8447 252.063 93.1084C252.063 93.377 251.968 93.604 251.778 93.7896C251.592 93.9751 251.365 94.0679 251.097 94.0679C250.828 94.0679 250.599 93.9751 250.408 93.7896C250.223 93.5991 250.13 93.3696 250.13 93.1011C250.13 92.8423 250.225 92.6201 250.416 92.4346C250.606 92.249 250.833 92.1562 251.097 92.1562ZM253.536 95.3496H255.03V95.833C255.508 95.374 256.072 95.1445 256.722 95.1445C257.439 95.1445 258.06 95.374 258.582 95.833C258.899 96.1162 259.129 96.4604 259.271 96.8657C259.412 97.2661 259.483 97.7837 259.483 98.4185V102H257.989V98.5356C257.989 97.8813 257.908 97.4053 257.747 97.1074C257.537 96.7168 257.149 96.5215 256.583 96.5215C256.299 96.5215 256.038 96.5825 255.799 96.7046C255.564 96.8218 255.391 96.978 255.279 97.1733C255.113 97.4712 255.03 97.9717 255.03 98.6748V102H253.536V95.3496ZM262.156 100.286C262.425 100.286 262.652 100.379 262.837 100.564C263.023 100.75 263.116 100.972 263.116 101.231C263.116 101.495 263.023 101.719 262.837 101.905C262.652 102.09 262.425 102.183 262.156 102.183C261.888 102.183 261.661 102.09 261.475 101.905C261.29 101.719 261.197 101.49 261.197 101.216C261.197 100.962 261.29 100.745 261.475 100.564C261.666 100.379 261.893 100.286 262.156 100.286ZM268.389 95.3496H269.883V95.9282C270.557 95.4058 271.241 95.1445 271.934 95.1445C272.486 95.1445 273.021 95.2935 273.538 95.5913C274.09 95.9087 274.52 96.3384 274.827 96.8804C275.145 97.4272 275.303 98.0278 275.303 98.6821C275.303 99.7515 274.915 100.633 274.139 101.326C273.479 101.912 272.745 102.205 271.934 102.205C271.246 102.205 270.562 101.944 269.883 101.421V105.501H268.389V95.3496ZM271.817 96.4995C271.246 96.4995 270.777 96.7021 270.411 97.1074C270.054 97.498 269.876 98.0156 269.876 98.6602C269.876 99.4121 270.098 99.9858 270.542 100.381C270.894 100.694 271.309 100.85 271.788 100.85C272.178 100.85 272.53 100.757 272.842 100.572C273.477 100.186 273.794 99.5513 273.794 98.6675C273.794 97.9399 273.57 97.3784 273.121 96.9829C272.754 96.6606 272.32 96.4995 271.817 96.4995ZM282.715 99.2461H277.691C277.764 99.6025 277.894 99.9053 278.079 100.154C278.421 100.618 278.917 100.85 279.566 100.85C279.913 100.85 280.235 100.774 280.533 100.623C280.831 100.472 281.067 100.262 281.243 99.9932L281.375 99.7808L282.664 100.315C281.917 101.575 280.882 102.205 279.559 102.205C278.533 102.205 277.696 101.836 277.046 101.099C276.451 100.42 276.153 99.6099 276.153 98.6675C276.153 97.5786 276.534 96.6851 277.295 95.9868C277.911 95.4253 278.633 95.1445 279.463 95.1445C280.411 95.1445 281.199 95.4961 281.829 96.1992C282.151 96.5557 282.391 97.0049 282.547 97.5469C282.664 97.9619 282.723 98.3867 282.723 98.8213C282.723 98.8945 282.72 99.0361 282.715 99.2461ZM281.236 98.0889C281.128 97.6689 280.97 97.3296 280.76 97.0708C280.442 96.6704 280.015 96.4702 279.478 96.4702C279.024 96.4702 278.638 96.6143 278.321 96.9023C278.008 97.1855 277.798 97.5811 277.691 98.0889H281.236ZM283.99 95.3496H285.484V95.8843C285.767 95.6548 286.001 95.5034 286.187 95.4302C286.377 95.3569 286.622 95.3203 286.919 95.3203C287.066 95.3203 287.249 95.3301 287.469 95.3496V96.6899C287.225 96.6802 287.051 96.6753 286.949 96.6753C286.348 96.6753 285.943 96.873 285.733 97.2686C285.567 97.5811 285.484 98.0913 285.484 98.7993V102H283.99V95.3496ZM292.83 99.7588C293.035 100.174 293.23 100.462 293.416 100.623C293.602 100.779 293.833 100.857 294.112 100.857C294.429 100.857 294.666 100.762 294.822 100.572C294.959 100.411 295.027 100.232 295.027 100.037C295.027 99.9053 294.991 99.7881 294.917 99.6855C294.834 99.5732 294.551 99.4243 294.068 99.2388L293.387 98.9751C292.425 98.604 291.944 98.0083 291.944 97.188C291.944 96.5923 292.164 96.104 292.603 95.7231C293.047 95.3374 293.582 95.1445 294.207 95.1445C295.169 95.1445 295.906 95.6279 296.419 96.5947L295.247 97.188C295.066 96.9194 294.898 96.7339 294.742 96.6313C294.59 96.5239 294.405 96.4702 294.185 96.4702C293.946 96.4702 293.75 96.5337 293.599 96.6606C293.448 96.7827 293.372 96.9438 293.372 97.144C293.372 97.2759 293.406 97.3906 293.475 97.4883C293.548 97.5859 293.829 97.73 294.317 97.9204L294.932 98.1548C295.489 98.3696 295.892 98.6211 296.141 98.9092C296.395 99.1973 296.521 99.5537 296.521 99.9785C296.521 100.623 296.277 101.163 295.789 101.597C295.335 102.002 294.771 102.205 294.097 102.205C293.492 102.205 292.984 102.046 292.574 101.729C292.168 101.412 291.841 100.923 291.592 100.264L292.83 99.7588ZM299.29 95.3496V102H297.796V95.3496H299.29ZM298.543 92.1562C298.812 92.1562 299.039 92.249 299.224 92.4346C299.415 92.6201 299.51 92.8447 299.51 93.1084C299.51 93.377 299.415 93.604 299.224 93.7896C299.039 93.9751 298.812 94.0679 298.543 94.0679C298.274 94.0679 298.045 93.9751 297.854 93.7896C297.669 93.5991 297.576 93.3696 297.576 93.1011C297.576 92.8423 297.671 92.6201 297.862 92.4346C298.052 92.249 298.279 92.1562 298.543 92.1562ZM307.471 102H305.977V101.421C305.303 101.944 304.62 102.205 303.926 102.205C303.375 102.205 302.84 102.056 302.322 101.758C301.771 101.441 301.341 101.011 301.033 100.469C300.716 99.9224 300.557 99.3218 300.557 98.6675C300.557 97.5981 300.945 96.7168 301.722 96.0234C302.381 95.4375 303.116 95.1445 303.926 95.1445C304.615 95.1445 305.298 95.4058 305.977 95.9282V92.0024H307.471V102ZM304.08 96.4995C303.475 96.4995 302.981 96.707 302.601 97.1221C302.244 97.5078 302.066 98.0181 302.066 98.6528C302.066 99.3999 302.291 99.9712 302.74 100.367C303.111 100.689 303.545 100.85 304.043 100.85C304.615 100.85 305.083 100.647 305.45 100.242C305.806 99.8516 305.984 99.334 305.984 98.6895C305.984 97.9375 305.762 97.3638 305.318 96.9683C304.966 96.6558 304.554 96.4995 304.08 96.4995ZM315.308 99.2461H310.284C310.357 99.6025 310.486 99.9053 310.672 100.154C311.014 100.618 311.509 100.85 312.159 100.85C312.505 100.85 312.828 100.774 313.125 100.623C313.423 100.472 313.66 100.262 313.836 99.9932L313.968 99.7808L315.257 100.315C314.51 101.575 313.475 102.205 312.151 102.205C311.126 102.205 310.289 101.836 309.639 101.099C309.043 100.42 308.746 99.6099 308.746 98.6675C308.746 97.5786 309.126 96.6851 309.888 95.9868C310.503 95.4253 311.226 95.1445 312.056 95.1445C313.003 95.1445 313.792 95.4961 314.422 96.1992C314.744 96.5557 314.983 97.0049 315.14 97.5469C315.257 97.9619 315.315 98.3867 315.315 98.8213C315.315 98.8945 315.313 99.0361 315.308 99.2461ZM313.829 98.0889C313.721 97.6689 313.562 97.3296 313.353 97.0708C313.035 96.6704 312.608 96.4702 312.071 96.4702C311.617 96.4702 311.231 96.6143 310.914 96.9023C310.601 97.1855 310.391 97.5811 310.284 98.0889H313.829Z" fill="#181818"/>
<path d="M227.139 118.458L228.655 118.063C228.792 118.605 228.96 118.998 229.161 119.242C229.439 119.574 229.852 119.74 230.398 119.74C230.975 119.74 231.426 119.557 231.753 119.191C232.032 118.883 232.171 118.505 232.171 118.056C232.171 117.562 232.012 117.169 231.695 116.876C231.417 116.613 230.967 116.481 230.347 116.481H229.688V115.06H230.347C230.953 115.06 231.382 114.911 231.636 114.613C231.861 114.345 231.973 114.025 231.973 113.654C231.973 113.214 231.827 112.863 231.534 112.599C231.265 112.36 230.909 112.24 230.464 112.24C230.098 112.24 229.793 112.321 229.549 112.482C229.31 112.638 229.053 112.924 228.78 113.339L227.483 112.628C227.762 112.155 228.045 111.793 228.333 111.544C228.914 111.046 229.622 110.797 230.457 110.797C231.443 110.797 232.222 111.115 232.793 111.75C233.262 112.272 233.497 112.895 233.497 113.617C233.497 114.442 233.182 115.126 232.552 115.668C233.333 116.298 233.724 117.094 233.724 118.056C233.724 119.013 233.392 119.782 232.728 120.363C232.088 120.924 231.307 121.205 230.384 121.205C229.383 121.205 228.575 120.871 227.959 120.202C227.754 119.977 227.596 119.748 227.483 119.513C227.371 119.279 227.261 118.952 227.154 118.532L227.139 118.458ZM243.604 115.045C244.151 114.445 244.839 114.145 245.669 114.145C246.456 114.145 247.107 114.379 247.625 114.848C247.947 115.146 248.177 115.492 248.313 115.888C248.455 116.278 248.526 116.789 248.526 117.418V121H247.032V117.536C247.032 116.862 246.951 116.374 246.79 116.071C246.595 115.705 246.248 115.521 245.75 115.521C245.501 115.521 245.269 115.578 245.054 115.69C244.839 115.802 244.681 115.951 244.578 116.137C244.412 116.439 244.329 116.952 244.329 117.675V121H242.835V117.536C242.835 116.862 242.754 116.374 242.593 116.071C242.398 115.705 242.049 115.521 241.546 115.521C241.292 115.521 241.058 115.578 240.843 115.69C240.628 115.802 240.469 115.951 240.367 116.137C240.201 116.444 240.118 116.957 240.118 117.675V121H238.624V114.35H240.118V114.833C240.562 114.374 241.092 114.145 241.707 114.145C242.439 114.145 243.072 114.445 243.604 115.045ZM251.727 114.35V121H250.232V114.35H251.727ZM250.979 111.156C251.248 111.156 251.475 111.249 251.661 111.435C251.851 111.62 251.946 111.845 251.946 112.108C251.946 112.377 251.851 112.604 251.661 112.79C251.475 112.975 251.248 113.068 250.979 113.068C250.711 113.068 250.481 112.975 250.291 112.79C250.105 112.599 250.013 112.37 250.013 112.101C250.013 111.842 250.108 111.62 250.298 111.435C250.489 111.249 250.716 111.156 250.979 111.156ZM253.418 114.35H254.913V114.833C255.391 114.374 255.955 114.145 256.604 114.145C257.322 114.145 257.942 114.374 258.465 114.833C258.782 115.116 259.012 115.46 259.153 115.866C259.295 116.266 259.366 116.784 259.366 117.418V121H257.872V117.536C257.872 116.881 257.791 116.405 257.63 116.107C257.42 115.717 257.032 115.521 256.465 115.521C256.182 115.521 255.921 115.583 255.682 115.705C255.447 115.822 255.274 115.978 255.162 116.173C254.996 116.471 254.913 116.972 254.913 117.675V121H253.418V114.35ZM262.039 119.286C262.308 119.286 262.535 119.379 262.72 119.564C262.906 119.75 262.999 119.972 262.999 120.231C262.999 120.495 262.906 120.719 262.72 120.905C262.535 121.09 262.308 121.183 262.039 121.183C261.771 121.183 261.543 121.09 261.358 120.905C261.172 120.719 261.08 120.49 261.08 120.216C261.08 119.962 261.172 119.745 261.358 119.564C261.548 119.379 261.775 119.286 262.039 119.286ZM268.272 114.35H269.766V114.928C270.44 114.406 271.124 114.145 271.817 114.145C272.369 114.145 272.903 114.293 273.421 114.591C273.973 114.909 274.402 115.338 274.71 115.88C275.027 116.427 275.186 117.028 275.186 117.682C275.186 118.751 274.798 119.633 274.021 120.326C273.362 120.912 272.627 121.205 271.817 121.205C271.128 121.205 270.445 120.944 269.766 120.421V124.501H268.272V114.35ZM271.7 115.5C271.128 115.5 270.66 115.702 270.293 116.107C269.937 116.498 269.759 117.016 269.759 117.66C269.759 118.412 269.981 118.986 270.425 119.381C270.777 119.694 271.192 119.85 271.67 119.85C272.061 119.85 272.413 119.757 272.725 119.572C273.36 119.186 273.677 118.551 273.677 117.667C273.677 116.94 273.453 116.378 273.003 115.983C272.637 115.661 272.203 115.5 271.7 115.5ZM282.598 118.246H277.574C277.647 118.603 277.776 118.905 277.962 119.154C278.304 119.618 278.799 119.85 279.449 119.85C279.795 119.85 280.118 119.774 280.416 119.623C280.713 119.472 280.95 119.262 281.126 118.993L281.258 118.781L282.547 119.315C281.8 120.575 280.765 121.205 279.441 121.205C278.416 121.205 277.579 120.836 276.929 120.099C276.333 119.42 276.036 118.61 276.036 117.667C276.036 116.579 276.417 115.685 277.178 114.987C277.793 114.425 278.516 114.145 279.346 114.145C280.293 114.145 281.082 114.496 281.712 115.199C282.034 115.556 282.273 116.005 282.43 116.547C282.547 116.962 282.605 117.387 282.605 117.821C282.605 117.895 282.603 118.036 282.598 118.246ZM281.119 117.089C281.011 116.669 280.853 116.33 280.643 116.071C280.325 115.67 279.898 115.47 279.361 115.47C278.907 115.47 278.521 115.614 278.204 115.902C277.891 116.186 277.681 116.581 277.574 117.089H281.119ZM283.873 114.35H285.367V114.884C285.65 114.655 285.884 114.503 286.07 114.43C286.26 114.357 286.504 114.32 286.802 114.32C286.949 114.32 287.132 114.33 287.352 114.35V115.69C287.107 115.68 286.934 115.675 286.832 115.675C286.231 115.675 285.826 115.873 285.616 116.269C285.45 116.581 285.367 117.091 285.367 117.799V121H283.873V114.35ZM292.713 118.759C292.918 119.174 293.113 119.462 293.299 119.623C293.484 119.779 293.716 119.857 293.995 119.857C294.312 119.857 294.549 119.762 294.705 119.572C294.842 119.411 294.91 119.232 294.91 119.037C294.91 118.905 294.874 118.788 294.8 118.686C294.717 118.573 294.434 118.424 293.951 118.239L293.27 117.975C292.308 117.604 291.827 117.008 291.827 116.188C291.827 115.592 292.046 115.104 292.486 114.723C292.93 114.337 293.465 114.145 294.09 114.145C295.052 114.145 295.789 114.628 296.302 115.595L295.13 116.188C294.949 115.919 294.781 115.734 294.625 115.631C294.473 115.524 294.288 115.47 294.068 115.47C293.829 115.47 293.633 115.534 293.482 115.661C293.331 115.783 293.255 115.944 293.255 116.144C293.255 116.276 293.289 116.391 293.357 116.488C293.431 116.586 293.711 116.73 294.2 116.92L294.815 117.155C295.372 117.37 295.774 117.621 296.023 117.909C296.277 118.197 296.404 118.554 296.404 118.979C296.404 119.623 296.16 120.163 295.672 120.597C295.218 121.002 294.654 121.205 293.98 121.205C293.375 121.205 292.867 121.046 292.457 120.729C292.051 120.412 291.724 119.923 291.475 119.264L292.713 118.759ZM299.173 114.35V121H297.679V114.35H299.173ZM298.426 111.156C298.694 111.156 298.921 111.249 299.107 111.435C299.297 111.62 299.393 111.845 299.393 112.108C299.393 112.377 299.297 112.604 299.107 112.79C298.921 112.975 298.694 113.068 298.426 113.068C298.157 113.068 297.928 112.975 297.737 112.79C297.552 112.599 297.459 112.37 297.459 112.101C297.459 111.842 297.554 111.62 297.745 111.435C297.935 111.249 298.162 111.156 298.426 111.156ZM307.354 121H305.86V120.421C305.186 120.944 304.502 121.205 303.809 121.205C303.257 121.205 302.723 121.056 302.205 120.758C301.653 120.441 301.224 120.011 300.916 119.469C300.599 118.922 300.44 118.322 300.44 117.667C300.44 116.598 300.828 115.717 301.604 115.023C302.264 114.438 302.999 114.145 303.809 114.145C304.498 114.145 305.181 114.406 305.86 114.928V111.002H307.354V121ZM303.963 115.5C303.357 115.5 302.864 115.707 302.483 116.122C302.127 116.508 301.949 117.018 301.949 117.653C301.949 118.4 302.173 118.971 302.623 119.367C302.994 119.689 303.428 119.85 303.926 119.85C304.498 119.85 304.966 119.647 305.333 119.242C305.689 118.852 305.867 118.334 305.867 117.689C305.867 116.938 305.645 116.364 305.201 115.968C304.849 115.656 304.437 115.5 303.963 115.5ZM315.191 118.246H310.167C310.24 118.603 310.369 118.905 310.555 119.154C310.896 119.618 311.392 119.85 312.042 119.85C312.388 119.85 312.71 119.774 313.008 119.623C313.306 119.472 313.543 119.262 313.719 118.993L313.851 118.781L315.14 119.315C314.393 120.575 313.357 121.205 312.034 121.205C311.009 121.205 310.171 120.836 309.522 120.099C308.926 119.42 308.628 118.61 308.628 117.667C308.628 116.579 309.009 115.685 309.771 114.987C310.386 114.425 311.109 114.145 311.939 114.145C312.886 114.145 313.675 114.496 314.305 115.199C314.627 115.556 314.866 116.005 315.022 116.547C315.14 116.962 315.198 117.387 315.198 117.821C315.198 117.895 315.196 118.036 315.191 118.246ZM313.711 117.089C313.604 116.669 313.445 116.33 313.235 116.071C312.918 115.67 312.491 115.47 311.954 115.47C311.5 115.47 311.114 115.614 310.796 115.902C310.484 116.186 310.274 116.581 310.167 117.089H313.711Z" fill="#181818"/>
<path d="M231.859 131.53L228.139 137.455H230.636V135.075H232.182V137.455H233.368V138.876H232.182V141H230.636V138.876H226.352V137.492L230.592 130.746L231.859 131.53ZM243.175 135.045C243.722 134.445 244.411 134.145 245.241 134.145C246.027 134.145 246.679 134.379 247.196 134.848C247.519 135.146 247.748 135.492 247.885 135.888C248.026 136.278 248.097 136.789 248.097 137.418V141H246.603V137.536C246.603 136.862 246.522 136.374 246.361 136.071C246.166 135.705 245.819 135.521 245.321 135.521C245.072 135.521 244.84 135.578 244.625 135.69C244.411 135.802 244.252 135.951 244.149 136.137C243.983 136.439 243.9 136.952 243.9 137.675V141H242.406V137.536C242.406 136.862 242.326 136.374 242.165 136.071C241.969 135.705 241.62 135.521 241.117 135.521C240.863 135.521 240.629 135.578 240.414 135.69C240.199 135.802 240.041 135.951 239.938 136.137C239.772 136.444 239.689 136.957 239.689 137.675V141H238.195V134.35H239.689V134.833C240.133 134.374 240.663 134.145 241.278 134.145C242.011 134.145 242.643 134.445 243.175 135.045ZM251.298 134.35V141H249.804V134.35H251.298ZM250.551 131.156C250.819 131.156 251.046 131.249 251.232 131.435C251.422 131.62 251.518 131.845 251.518 132.108C251.518 132.377 251.422 132.604 251.232 132.79C251.046 132.975 250.819 133.068 250.551 133.068C250.282 133.068 250.053 132.975 249.862 132.79C249.677 132.599 249.584 132.37 249.584 132.101C249.584 131.842 249.679 131.62 249.87 131.435C250.06 131.249 250.287 131.156 250.551 131.156ZM252.99 134.35H254.484V134.833C254.962 134.374 255.526 134.145 256.176 134.145C256.894 134.145 257.514 134.374 258.036 134.833C258.354 135.116 258.583 135.46 258.725 135.866C258.866 136.266 258.937 136.784 258.937 137.418V141H257.443V137.536C257.443 136.881 257.362 136.405 257.201 136.107C256.991 135.717 256.603 135.521 256.037 135.521C255.753 135.521 255.492 135.583 255.253 135.705C255.019 135.822 254.845 135.978 254.733 136.173C254.567 136.471 254.484 136.972 254.484 137.675V141H252.99V134.35ZM261.61 139.286C261.879 139.286 262.106 139.379 262.292 139.564C262.477 139.75 262.57 139.972 262.57 140.231C262.57 140.495 262.477 140.719 262.292 140.905C262.106 141.09 261.879 141.183 261.61 141.183C261.342 141.183 261.115 141.09 260.929 140.905C260.744 140.719 260.651 140.49 260.651 140.216C260.651 139.962 260.744 139.745 260.929 139.564C261.12 139.379 261.347 139.286 261.61 139.286ZM267.843 134.35H269.337V134.928C270.011 134.406 270.695 134.145 271.388 134.145C271.94 134.145 272.475 134.293 272.992 134.591C273.544 134.909 273.974 135.338 274.281 135.88C274.599 136.427 274.757 137.028 274.757 137.682C274.757 138.751 274.369 139.633 273.593 140.326C272.934 140.912 272.199 141.205 271.388 141.205C270.7 141.205 270.016 140.944 269.337 140.421V144.501H267.843V134.35ZM271.271 135.5C270.7 135.5 270.231 135.702 269.865 136.107C269.508 136.498 269.33 137.016 269.33 137.66C269.33 138.412 269.552 138.986 269.997 139.381C270.348 139.694 270.763 139.85 271.242 139.85C271.632 139.85 271.984 139.757 272.296 139.572C272.931 139.186 273.249 138.551 273.249 137.667C273.249 136.94 273.024 136.378 272.575 135.983C272.208 135.661 271.774 135.5 271.271 135.5ZM282.169 138.246H277.145C277.218 138.603 277.348 138.905 277.533 139.154C277.875 139.618 278.371 139.85 279.02 139.85C279.367 139.85 279.689 139.774 279.987 139.623C280.285 139.472 280.521 139.262 280.697 138.993L280.829 138.781L282.118 139.315C281.371 140.575 280.336 141.205 279.013 141.205C277.987 141.205 277.15 140.836 276.5 140.099C275.905 139.42 275.607 138.61 275.607 137.667C275.607 136.579 275.988 135.685 276.75 134.987C277.365 134.425 278.087 134.145 278.917 134.145C279.865 134.145 280.653 134.496 281.283 135.199C281.605 135.556 281.845 136.005 282.001 136.547C282.118 136.962 282.177 137.387 282.177 137.821C282.177 137.895 282.174 138.036 282.169 138.246ZM280.69 137.089C280.583 136.669 280.424 136.33 280.214 136.071C279.896 135.67 279.469 135.47 278.932 135.47C278.478 135.47 278.092 135.614 277.775 135.902C277.462 136.186 277.252 136.581 277.145 137.089H280.69ZM283.444 134.35H284.938V134.884C285.221 134.655 285.456 134.503 285.641 134.43C285.832 134.357 286.076 134.32 286.374 134.32C286.52 134.32 286.703 134.33 286.923 134.35V135.69C286.679 135.68 286.505 135.675 286.403 135.675C285.802 135.675 285.397 135.873 285.187 136.269C285.021 136.581 284.938 137.091 284.938 137.799V141H283.444V134.35ZM292.284 138.759C292.489 139.174 292.685 139.462 292.87 139.623C293.056 139.779 293.288 139.857 293.566 139.857C293.883 139.857 294.12 139.762 294.276 139.572C294.413 139.411 294.481 139.232 294.481 139.037C294.481 138.905 294.445 138.788 294.372 138.686C294.289 138.573 294.005 138.424 293.522 138.239L292.841 137.975C291.879 137.604 291.398 137.008 291.398 136.188C291.398 135.592 291.618 135.104 292.057 134.723C292.501 134.337 293.036 134.145 293.661 134.145C294.623 134.145 295.36 134.628 295.873 135.595L294.701 136.188C294.521 135.919 294.352 135.734 294.196 135.631C294.044 135.524 293.859 135.47 293.639 135.47C293.4 135.47 293.205 135.534 293.053 135.661C292.902 135.783 292.826 135.944 292.826 136.144C292.826 136.276 292.86 136.391 292.929 136.488C293.002 136.586 293.283 136.73 293.771 136.92L294.386 137.155C294.943 137.37 295.346 137.621 295.595 137.909C295.849 138.197 295.976 138.554 295.976 138.979C295.976 139.623 295.731 140.163 295.243 140.597C294.789 141.002 294.225 141.205 293.551 141.205C292.946 141.205 292.438 141.046 292.028 140.729C291.623 140.412 291.295 139.923 291.046 139.264L292.284 138.759ZM298.744 134.35V141H297.25V134.35H298.744ZM297.997 131.156C298.266 131.156 298.493 131.249 298.678 131.435C298.869 131.62 298.964 131.845 298.964 132.108C298.964 132.377 298.869 132.604 298.678 132.79C298.493 132.975 298.266 133.068 297.997 133.068C297.729 133.068 297.499 132.975 297.309 132.79C297.123 132.599 297.03 132.37 297.03 132.101C297.03 131.842 297.125 131.62 297.316 131.435C297.506 131.249 297.733 131.156 297.997 131.156ZM306.925 141H305.431V140.421C304.757 140.944 304.074 141.205 303.38 141.205C302.829 141.205 302.294 141.056 301.776 140.758C301.225 140.441 300.795 140.011 300.487 139.469C300.17 138.922 300.011 138.322 300.011 137.667C300.011 136.598 300.399 135.717 301.176 135.023C301.835 134.438 302.57 134.145 303.38 134.145C304.069 134.145 304.752 134.406 305.431 134.928V131.002H306.925V141ZM303.534 135.5C302.929 135.5 302.436 135.707 302.055 136.122C301.698 136.508 301.52 137.018 301.52 137.653C301.52 138.4 301.745 138.971 302.194 139.367C302.565 139.689 303 139.85 303.498 139.85C304.069 139.85 304.538 139.647 304.904 139.242C305.26 138.852 305.438 138.334 305.438 137.689C305.438 136.938 305.216 136.364 304.772 135.968C304.42 135.656 304.008 135.5 303.534 135.5ZM314.762 138.246H309.738C309.811 138.603 309.94 138.905 310.126 139.154C310.468 139.618 310.963 139.85 311.613 139.85C311.959 139.85 312.282 139.774 312.58 139.623C312.877 139.472 313.114 139.262 313.29 138.993L313.422 138.781L314.711 139.315C313.964 140.575 312.929 141.205 311.605 141.205C310.58 141.205 309.743 140.836 309.093 140.099C308.498 139.42 308.2 138.61 308.2 137.667C308.2 136.579 308.581 135.685 309.342 134.987C309.958 134.425 310.68 134.145 311.51 134.145C312.458 134.145 313.246 134.496 313.876 135.199C314.198 135.556 314.438 136.005 314.594 136.547C314.711 136.962 314.77 137.387 314.77 137.821C314.77 137.895 314.767 138.036 314.762 138.246ZM313.283 137.089C313.175 136.669 313.017 136.33 312.807 136.071C312.489 135.67 312.062 135.47 311.525 135.47C311.071 135.47 310.685 135.614 310.368 135.902C310.055 136.186 309.845 136.581 309.738 137.089H313.283Z" fill="#181818"/>
<path d="M232.863 153.431H229.464L229.069 155.364C229.225 155.286 229.481 155.247 229.838 155.247C230.912 155.247 231.793 155.628 232.482 156.39C233.058 157.024 233.346 157.786 233.346 158.675C233.346 159.725 232.96 160.599 232.189 161.297C231.52 161.902 230.705 162.205 229.743 162.205C229.049 162.205 228.446 162.049 227.934 161.736C227.426 161.419 226.947 160.909 226.498 160.206L227.736 159.349C227.97 159.749 228.158 160.022 228.3 160.169C228.671 160.56 229.159 160.755 229.765 160.755C230.385 160.755 230.893 160.535 231.288 160.096C231.625 159.715 231.793 159.256 231.793 158.719C231.793 158.089 231.574 157.574 231.134 157.173C230.758 156.836 230.309 156.668 229.787 156.668C229.22 156.668 228.739 156.883 228.344 157.312L227.143 157.056L228.175 152.002H232.863V153.431ZM243.336 156.045C243.883 155.445 244.572 155.145 245.402 155.145C246.188 155.145 246.84 155.379 247.357 155.848C247.68 156.146 247.909 156.492 248.046 156.888C248.188 157.278 248.258 157.789 248.258 158.418V162H246.764V158.536C246.764 157.862 246.684 157.374 246.522 157.071C246.327 156.705 245.98 156.521 245.482 156.521C245.233 156.521 245.001 156.578 244.787 156.69C244.572 156.802 244.413 156.951 244.311 157.137C244.145 157.439 244.062 157.952 244.062 158.675V162H242.567V158.536C242.567 157.862 242.487 157.374 242.326 157.071C242.13 156.705 241.781 156.521 241.278 156.521C241.024 156.521 240.79 156.578 240.575 156.69C240.36 156.802 240.202 156.951 240.099 157.137C239.933 157.444 239.85 157.957 239.85 158.675V162H238.356V155.35H239.85V155.833C240.294 155.374 240.824 155.145 241.439 155.145C242.172 155.145 242.804 155.445 243.336 156.045ZM251.459 155.35V162H249.965V155.35H251.459ZM250.712 152.156C250.98 152.156 251.208 152.249 251.393 152.435C251.583 152.62 251.679 152.845 251.679 153.108C251.679 153.377 251.583 153.604 251.393 153.79C251.208 153.975 250.98 154.068 250.712 154.068C250.443 154.068 250.214 153.975 250.023 153.79C249.838 153.599 249.745 153.37 249.745 153.101C249.745 152.842 249.84 152.62 250.031 152.435C250.221 152.249 250.448 152.156 250.712 152.156ZM253.151 155.35H254.645V155.833C255.124 155.374 255.688 155.145 256.337 155.145C257.055 155.145 257.675 155.374 258.197 155.833C258.515 156.116 258.744 156.46 258.886 156.866C259.027 157.266 259.098 157.784 259.098 158.418V162H257.604V158.536C257.604 157.881 257.523 157.405 257.362 157.107C257.152 156.717 256.764 156.521 256.198 156.521C255.915 156.521 255.653 156.583 255.414 156.705C255.18 156.822 255.006 156.978 254.894 157.173C254.728 157.471 254.645 157.972 254.645 158.675V162H253.151V155.35ZM261.771 160.286C262.04 160.286 262.267 160.379 262.453 160.564C262.638 160.75 262.731 160.972 262.731 161.231C262.731 161.495 262.638 161.719 262.453 161.905C262.267 162.09 262.04 162.183 261.771 162.183C261.503 162.183 261.276 162.09 261.09 161.905C260.905 161.719 260.812 161.49 260.812 161.216C260.812 160.962 260.905 160.745 261.09 160.564C261.281 160.379 261.508 160.286 261.771 160.286ZM268.004 155.35H269.499V155.928C270.172 155.406 270.856 155.145 271.549 155.145C272.101 155.145 272.636 155.293 273.153 155.591C273.705 155.909 274.135 156.338 274.442 156.88C274.76 157.427 274.918 158.028 274.918 158.682C274.918 159.751 274.53 160.633 273.754 161.326C273.095 161.912 272.36 162.205 271.549 162.205C270.861 162.205 270.177 161.944 269.499 161.421V165.501H268.004V155.35ZM271.432 156.5C270.861 156.5 270.392 156.702 270.026 157.107C269.669 157.498 269.491 158.016 269.491 158.66C269.491 159.412 269.713 159.986 270.158 160.381C270.509 160.694 270.924 160.85 271.403 160.85C271.793 160.85 272.145 160.757 272.458 160.572C273.092 160.186 273.41 159.551 273.41 158.667C273.41 157.94 273.185 157.378 272.736 156.983C272.37 156.661 271.935 156.5 271.432 156.5ZM282.331 159.246H277.306C277.379 159.603 277.509 159.905 277.694 160.154C278.036 160.618 278.532 160.85 279.181 160.85C279.528 160.85 279.85 160.774 280.148 160.623C280.446 160.472 280.683 160.262 280.858 159.993L280.99 159.781L282.279 160.315C281.532 161.575 280.497 162.205 279.174 162.205C278.148 162.205 277.311 161.836 276.662 161.099C276.066 160.42 275.768 159.61 275.768 158.667C275.768 157.579 276.149 156.685 276.911 155.987C277.526 155.425 278.249 155.145 279.079 155.145C280.026 155.145 280.814 155.496 281.444 156.199C281.767 156.556 282.006 157.005 282.162 157.547C282.279 157.962 282.338 158.387 282.338 158.821C282.338 158.895 282.335 159.036 282.331 159.246ZM280.851 158.089C280.744 157.669 280.585 157.33 280.375 157.071C280.058 156.67 279.63 156.47 279.093 156.47C278.639 156.47 278.253 156.614 277.936 156.902C277.624 157.186 277.414 157.581 277.306 158.089H280.851ZM283.605 155.35H285.099V155.884C285.382 155.655 285.617 155.503 285.802 155.43C285.993 155.357 286.237 155.32 286.535 155.32C286.681 155.32 286.864 155.33 287.084 155.35V156.69C286.84 156.68 286.667 156.675 286.564 156.675C285.963 156.675 285.558 156.873 285.348 157.269C285.182 157.581 285.099 158.091 285.099 158.799V162H283.605V155.35ZM292.445 159.759C292.65 160.174 292.846 160.462 293.031 160.623C293.217 160.779 293.449 160.857 293.727 160.857C294.044 160.857 294.281 160.762 294.438 160.572C294.574 160.411 294.643 160.232 294.643 160.037C294.643 159.905 294.606 159.788 294.533 159.686C294.45 159.573 294.167 159.424 293.683 159.239L293.002 158.975C292.04 158.604 291.559 158.008 291.559 157.188C291.559 156.592 291.779 156.104 292.218 155.723C292.663 155.337 293.197 155.145 293.822 155.145C294.784 155.145 295.521 155.628 296.034 156.595L294.862 157.188C294.682 156.919 294.513 156.734 294.357 156.631C294.206 156.524 294.02 156.47 293.8 156.47C293.561 156.47 293.366 156.534 293.214 156.661C293.063 156.783 292.987 156.944 292.987 157.144C292.987 157.276 293.021 157.391 293.09 157.488C293.163 157.586 293.444 157.73 293.932 157.92L294.547 158.155C295.104 158.37 295.507 158.621 295.756 158.909C296.01 159.197 296.137 159.554 296.137 159.979C296.137 160.623 295.893 161.163 295.404 161.597C294.95 162.002 294.386 162.205 293.712 162.205C293.107 162.205 292.599 162.046 292.189 161.729C291.784 161.412 291.457 160.923 291.208 160.264L292.445 159.759ZM298.905 155.35V162H297.411V155.35H298.905ZM298.158 152.156C298.427 152.156 298.654 152.249 298.839 152.435C299.03 152.62 299.125 152.845 299.125 153.108C299.125 153.377 299.03 153.604 298.839 153.79C298.654 153.975 298.427 154.068 298.158 154.068C297.89 154.068 297.66 153.975 297.47 153.79C297.284 153.599 297.191 153.37 297.191 153.101C297.191 152.842 297.287 152.62 297.477 152.435C297.667 152.249 297.895 152.156 298.158 152.156ZM307.086 162H305.592V161.421C304.918 161.944 304.235 162.205 303.542 162.205C302.99 162.205 302.455 162.056 301.938 161.758C301.386 161.441 300.956 161.011 300.648 160.469C300.331 159.922 300.172 159.322 300.172 158.667C300.172 157.598 300.561 156.717 301.337 156.023C301.996 155.438 302.731 155.145 303.542 155.145C304.23 155.145 304.914 155.406 305.592 155.928V152.002H307.086V162ZM303.695 156.5C303.09 156.5 302.597 156.707 302.216 157.122C301.859 157.508 301.681 158.018 301.681 158.653C301.681 159.4 301.906 159.971 302.355 160.367C302.726 160.689 303.161 160.85 303.659 160.85C304.23 160.85 304.699 160.647 305.065 160.242C305.421 159.852 305.6 159.334 305.6 158.689C305.6 157.938 305.377 157.364 304.933 156.968C304.582 156.656 304.169 156.5 303.695 156.5ZM314.923 159.246H309.899C309.972 159.603 310.102 159.905 310.287 160.154C310.629 160.618 311.125 160.85 311.774 160.85C312.121 160.85 312.443 160.774 312.741 160.623C313.039 160.472 313.275 160.262 313.451 159.993L313.583 159.781L314.872 160.315C314.125 161.575 313.09 162.205 311.767 162.205C310.741 162.205 309.904 161.836 309.254 161.099C308.659 160.42 308.361 159.61 308.361 158.667C308.361 157.579 308.742 156.685 309.503 155.987C310.119 155.425 310.841 155.145 311.671 155.145C312.619 155.145 313.407 155.496 314.037 156.199C314.359 156.556 314.599 157.005 314.755 157.547C314.872 157.962 314.931 158.387 314.931 158.821C314.931 158.895 314.928 159.036 314.923 159.246ZM313.444 158.089C313.336 157.669 313.178 157.33 312.968 157.071C312.65 156.67 312.223 156.47 311.686 156.47C311.232 156.47 310.846 156.614 310.529 156.902C310.216 157.186 310.006 157.581 309.899 158.089H313.444Z" fill="#181818"/>
<line x1="128.477" y1="47.6338" x2="128.477" y2="174.837" stroke="black"/>
<line x1="208.082" y1="47.6338" x2="208.082" y2="174.837" stroke="black"/>
</svg>
