<svg xmlns="http://www.w3.org/2000/svg" xmlns:xlink="http://www.w3.org/1999/xlink" width="29.155" height="28.321" viewBox="0 0 29.155 28.321">
  <defs>
    <clipPath id="clip-path">
      <rect id="Rectangle_435" data-name="Rectangle 435" width="29.155" height="28.321" fill="#2c2320" stroke="#2c2320" stroke-width="0.4"/>
    </clipPath>
  </defs>
  <g id="Group_605" data-name="Group 605" transform="translate(2 2)">
    <g id="Mask_Group_604" data-name="Mask Group 604" transform="translate(-2 -2)" clip-path="url(#clip-path)">
      <path id="Path_14575" data-name="Path 14575" d="M137.325,8.458a.506.506,0,0,1-.506-.506A6.92,6.92,0,0,0,123.33,5.759a.506.506,0,1,1-.96-.32,7.931,7.931,0,0,1,15.461,2.513.506.506,0,0,1-.506.506" transform="translate(-115.316 1.458)" fill="#2c2320" stroke="#2c2320" stroke-width="0.4"/>
      <path id="Path_14576" data-name="Path 14576" d="M428.453,118.466a4.9,4.9,0,0,1-1.53-.265.506.506,0,0,1,.32-.96,3.9,3.9,0,0,0,1.21.212,3.916,3.916,0,1,0,0-7.833,2.957,2.957,0,0,0-.942.123.507.507,0,0,1-.32-.961,3.939,3.939,0,0,1,1.262-.174,4.929,4.929,0,1,1,0,9.858" transform="translate(-405.7 -102.206)" fill="#2c2320" stroke="#2c2320" stroke-width="0.4"/>
      <path id="Path_14577" data-name="Path 14577" d="M4.914,118.466A4.929,4.929,0,1,1,8.465,110.1a.506.506,0,0,1-.728.7,3.917,3.917,0,1,0-2.823,6.647,3.6,3.6,0,0,0,1.2-.209.506.506,0,0,1,.342.953,4.627,4.627,0,0,1-1.541.268" transform="translate(1.458 -102.206)" fill="#2c2320" stroke="#2c2320" stroke-width="0.4"/>
      <path id="Path_14578" data-name="Path 14578" d="M90,311.432a.507.507,0,0,1-.5-.442,48.236,48.236,0,0,0-1.8-8.074.506.506,0,0,1,.968-.3,49.309,49.309,0,0,1,1.835,8.246.506.506,0,0,1-.438.566.547.547,0,0,1-.065,0" transform="translate(-82.227 -287.041)" fill="#2c2320" stroke="#2c2320" stroke-width="0.4"/>
      <path id="Path_14579" data-name="Path 14579" d="M427.091,311.428a.58.58,0,0,1-.066,0,.505.505,0,0,1-.437-.566,49.1,49.1,0,0,1,1.836-8.246.506.506,0,1,1,.967.3,48.331,48.331,0,0,0-1.8,8.074.506.506,0,0,1-.5.442" transform="translate(-405.707 -287.037)" fill="#2c2320" stroke="#2c2320" stroke-width="0.4"/>
      <path id="Path_14580" data-name="Path 14580" d="M136.345,536.849h-10.87a.506.506,0,0,1,0-1.013h10.87a.506.506,0,0,1,0,1.013m-12.628,0H122.2a.506.506,0,0,1,0-1.013h1.519a.506.506,0,0,1,0,1.013" transform="translate(-114.694 -509.986)" fill="#2c2320" stroke="#2c2320" stroke-width="0.4"/>
      <path id="Path_14581" data-name="Path 14581" d="M106.5,473.642a.506.506,0,0,1-.075-1.007,53.016,53.016,0,0,1,15.727,0,.507.507,0,0,1,.426.576.514.514,0,0,1-.576.426,51.962,51.962,0,0,0-15.426,0,.545.545,0,0,1-.076.006" transform="translate(-99.709 -449.102)" fill="#2c2320" stroke="#2c2320" stroke-width="0.4"/>
      <path id="Path_14582" data-name="Path 14582" d="M107.221,488.068a.506.506,0,0,1-.406-.2,4.5,4.5,0,0,1-.815-2.611.506.506,0,0,1,.49-.522.488.488,0,0,1,.522.49,3.518,3.518,0,0,0,.614,2.035.506.506,0,0,1-.4.81" transform="translate(-99.716 -461.205)" fill="#2c2320" stroke="#2c2320" stroke-width="0.4"/>
      <path id="Path_14583" data-name="Path 14583" d="M432.972,488.156a.507.507,0,0,1-.414-.8,4,4,0,0,0,.625-2.064.5.5,0,0,1,.537-.474.506.506,0,0,1,.473.537,4.969,4.969,0,0,1-.805,2.582.507.507,0,0,1-.415.215" transform="translate(-411.321 -461.293)" fill="#2c2320" stroke="#2c2320" stroke-width="0.4"/>
      <path id="Path_14584" data-name="Path 14584" d="M180.915,272.895a.5.5,0,0,1-.156-.025,15.142,15.142,0,0,0-9.339,0,.506.506,0,1,1-.309-.964,16.145,16.145,0,0,1,9.96,0,.506.506,0,0,1-.156.988" transform="translate(-161.528 -257.319)" fill="#2c2320" stroke="#2c2320" stroke-width="0.4"/>
    </g>
  </g>
</svg>
