<svg xmlns="http://www.w3.org/2000/svg" xmlns:xlink="http://www.w3.org/1999/xlink" width="35.192" height="35.264" viewBox="0 0 35.192 35.264">
  <defs>
    <clipPath id="clip-path">
      <rect id="Rectangle_434" data-name="Rectangle 434" width="35.192" height="35.264" fill="#2c2320" stroke="#2c2320" stroke-width="0.4"/>
    </clipPath>
  </defs>
  <g id="Group_603" data-name="Group 603" transform="translate(2 2)">
    <g id="Group_602" data-name="Group 602" transform="translate(-2 -2)" clip-path="url(#clip-path)">
      <path id="Path_14570" data-name="Path 14570" d="M3.744,33.33a2.32,2.32,0,0,1-2.29-2.289c0-.6.392-10.894.985-16.567a1.523,1.523,0,0,0-.7-1.448A3.653,3.653,0,0,1,0,9.923c0-1.4,1.3-8.615,3.744-8.615,2.511,0,3.78,7.159,3.78,8.615a3.652,3.652,0,0,1-1.745,3.1,1.528,1.528,0,0,0-.693,1.458.618.618,0,0,1-.562.669.609.609,0,0,1-.669-.562,2.745,2.745,0,0,1,1.267-2.611A2.424,2.424,0,0,0,6.289,9.923c0-2.083-1.561-7.379-2.545-7.379-.888,0-2.508,5.174-2.508,7.379A2.424,2.424,0,0,0,2.4,11.979a2.745,2.745,0,0,1,1.27,2.613c-.59,5.645-.979,15.852-.979,16.449A1.069,1.069,0,0,0,3.744,32.1a1.087,1.087,0,0,0,1.09-1.054c0-.54-.284-7.816-.725-13.474a.618.618,0,0,1,.568-.664.626.626,0,0,1,.664.568c.443,5.686.729,13.024.729,13.57A2.31,2.31,0,0,1,3.744,33.33" transform="translate(1.585 0.349)" fill="#2c2320" stroke="#2c2320" stroke-width="0.4"/>
      <path id="Path_14571" data-name="Path 14571" d="M444.71,33.312a2.32,2.32,0,0,1-2.29-2.289c0-.689.366-9.835.875-15.54a1.456,1.456,0,0,0-.851-1.5,2.4,2.4,0,0,1-1.478-2.047c0-.512.319-5.2.877-10.1a.618.618,0,0,1,1.228.139c-.543,4.773-.869,9.482-.869,9.963,0,.324.3.685.8.943a2.7,2.7,0,0,1,1.528,2.7c-.507,5.678-.87,14.753-.87,15.435a1.069,1.069,0,0,0,1.054,1.054,1.088,1.088,0,0,0,1.091-1.054c0-.538-.284-7.811-.726-13.474a.618.618,0,0,1,.568-.664.626.626,0,0,1,.664.568c.444,5.691.729,13.025.729,13.57a2.311,2.311,0,0,1-2.327,2.289m.981-18.173a.618.618,0,0,1-.577-.84,2.628,2.628,0,0,1,1.336-1.429c.478-.252.8-.622.8-.929,0-.48-.326-5.19-.869-9.963a.618.618,0,0,1,1.228-.139c.557,4.9.877,9.59.877,10.1A2.42,2.42,0,0,1,447,13.977a1.406,1.406,0,0,0-.729.766.618.618,0,0,1-.577.4" transform="translate(-414.883 0.367)" fill="#2c2320" stroke="#2c2320" stroke-width="0.4"/>
      <path id="Path_14572" data-name="Path 14572" d="M497.856,10.686a.618.618,0,0,1-.618-.618V.618a.618.618,0,1,1,1.236,0v9.45a.618.618,0,0,1-.618.618" transform="translate(-468.029 1.585)" fill="#2c2320" stroke="#2c2320" stroke-width="0.4"/>
      <path id="Path_14573" data-name="Path 14573" d="M143.9,91.6a12.539,12.539,0,0,1-8.259-3.169.618.618,0,1,1,.816-.929,11.152,11.152,0,0,0,14.923,0,.618.618,0,0,1,.816.929,12.585,12.585,0,0,1-8.3,3.169m6.542-21.663a.615.615,0,0,1-.337-.1,11.168,11.168,0,0,0-6.2-1.861,11,11,0,0,0-6.128,1.822.618.618,0,1,1-.685-1.028,12.676,12.676,0,0,1,13.693.033.618.618,0,0,1-.339,1.135" transform="translate(-126.323 -61.481)" fill="#2c2320" stroke="#2c2320" stroke-width="0.4"/>
      <path id="Path_14574" data-name="Path 14574" d="M151.318,160.693a8.051,8.051,0,0,1,0-16.1,7.845,7.845,0,0,1,4.1,1.146.618.618,0,0,1-.646,1.053,6.611,6.611,0,0,0-3.457-.963,6.87,6.87,0,1,0,5.262,2.5.618.618,0,0,1,.96-.779,8.026,8.026,0,0,1-6.223,13.147" transform="translate(-133.74 -134.975)" fill="#2c2320" stroke="#2c2320" stroke-width="0.4"/>
    </g>
  </g>
</svg>
