<svg xmlns="http://www.w3.org/2000/svg" xmlns:xlink="http://www.w3.org/1999/xlink" width="41.417" height="39.038" viewBox="0 0 41.417 39.038">
  <defs>
    <clipPath id="clip-path">
      <rect id="Rectangle_433" data-name="Rectangle 433" width="41.417" height="39.038" fill="#2c2320" stroke="#2c2320" stroke-width="0.4"/>
    </clipPath>
  </defs>
  <g id="Group_601" data-name="Group 601" transform="translate(2 2)">
    <g id="Group_600" data-name="Group 600" transform="translate(-2 -2)" clip-path="url(#clip-path)">
      <path id="Path_14567" data-name="Path 14567" d="M96.937,114.962H96.9a2.614,2.614,0,0,1-1.878-.825L84.748,103.859a2.715,2.715,0,0,1-.011-3.813l3.837-3.8a.692.692,0,1,1,.973.984l-3.823,3.784a1.335,1.335,0,0,0,0,1.867l10.29,10.29a1.258,1.258,0,0,0,.9.408,1.355,1.355,0,0,0,.966-.408L112.57,98.487a1.341,1.341,0,0,0,0-1.869l-2.726-2.726a1.967,1.967,0,0,1-.568-1.425,1.793,1.793,0,0,1,.647-1.42c.656-.622,1.25-1.173,1.717-1.6.541-.5.9-.831,1-.95a1.583,1.583,0,1,0-2.187-2.288c-.2.2-1.172,1.251-2.584,2.786a1.932,1.932,0,0,1-1.445.629A1.966,1.966,0,0,1,105,89.052l-2.726-2.726a1.338,1.338,0,0,0-1.869,0L96.1,90.676a.692.692,0,1,1-.984-.973l4.312-4.353a2.745,2.745,0,0,1,3.828,0l2.726,2.726a.57.57,0,0,0,.893-.041c1.415-1.536,2.4-2.6,2.6-2.807a3.021,3.021,0,0,1,4.191,0,2.969,2.969,0,0,1,0,4.191c-.066.09-.334.339-1.089,1.038-.464.43-1.055.978-1.732,1.619a.442.442,0,0,0-.191.392.609.609,0,0,0,.164.447l2.726,2.726a2.744,2.744,0,0,1,0,3.826L98.863,114.149a2.709,2.709,0,0,1-1.927.813" transform="translate(-77.134 -77.529)" fill="#2c2320" stroke="#2c2320" stroke-width="0.4"/>
      <path id="Path_14568" data-name="Path 14568" d="M23.247,23.708a1.712,1.712,0,0,1-.811-.207,41.094,41.094,0,0,1-12.4-8.54,3.919,3.919,0,0,1-1.107-2.378,2.471,2.471,0,0,0-.716-1.6.692.692,0,0,1,.964-.992,3.806,3.806,0,0,1,1.115,2.36,2.566,2.566,0,0,0,.722,1.633,39.371,39.371,0,0,0,12.051,8.285c.151.081.277.07.331-.015s.018-.28-.165-.483L3.119,1.659a1.077,1.077,0,0,0-1.478.014A1.074,1.074,0,0,0,1.67,3.138c.042.031.355.318.83.759.947.879,2.563,2.377,4.417,4.04a.692.692,0,1,1-.925,1.029C4.132,7.3,2.51,5.793,1.56,4.911c-.454-.42-.751-.7-.842-.773A2.49,2.49,0,0,1,.663.7,2.488,2.488,0,0,1,4.082.666l20.15,20.151a1.774,1.774,0,0,1,.331,2.173,1.518,1.518,0,0,1-1.316.717" transform="translate(1.606 1.605)" fill="#2c2320" stroke="#2c2320" stroke-width="0.4"/>
      <path id="Path_14569" data-name="Path 14569" d="M517.364,121.655a.643.643,0,0,1-.46-.192l-.041-.041a.692.692,0,0,1,.978-.978.715.715,0,0,1,.02,1,.706.706,0,0,1-.5.213" transform="translate(-482.933 -111.16)" fill="#2c2320" stroke="#2c2320" stroke-width="0.4"/>
    </g>
  </g>
</svg>
