<svg xmlns="http://www.w3.org/2000/svg" width="201.475" height="201.474" viewBox="0 0 201.475 201.474">
  <path id="Path_2021" data-name="Path 2021" d="M100.738,5.247A100.737,100.737,0,1,1,0,105.985,100.737,100.737,0,0,1,100.738,5.247m-8.262,154.41c23.818-.322,44.653-15.767,58.505-36.588,43.458-65.321-41.253-112.946-63.127-49.125-7.2,21-.206,31.271-14.325,52.362-3.638,5.433-5,10.634-4.649,15.243-4.152.783-7.81.75-11.187-.677-3.416-1.448-5.558-3.35-9.315-2.245a8.1,8.1,0,0,0-5.16,10.392,8.2,8.2,0,0,0,1.545,2.724,6.884,6.884,0,0,1,2.159,6.415,8.178,8.178,0,0,0,.416,3.106,8.1,8.1,0,0,0,10.389,5.159c3.664-1.388,4.219-4.2,6.066-7.418,1.918-3.335,5.012-5.632,9.073-7.577,4.237,5.182,11.413,8.339,19.61,8.229m.546-45.154c11.553-2.1,8.079-23.4,14.116-39.341,2.386-6.3,6.255-11.757,13.123-14.863-7.349-1.4-14.246,4.924-17.659,11.565-6.5,12.657-5.977,32.489-9.58,42.639m32.522-34.482c-3.561-.833-7.23,1.838-8.195,5.968s1.141,8.148,4.7,8.981,7.232-1.84,8.195-5.967-1.139-8.15-4.7-8.982m7.307-20.539c11.993,6.332,16.391,22.435,12.668,35.941-5.9,21.407-23.063,41.672-45.353,44.322-6.268.745-12.9-3.808-15.049-7.762-5.1,11.328,3.307,19.221,14.976,17.13,26.1-4.677,47.246-28.693,52.461-51.162,5.107-22.017-5.138-38.852-19.7-38.469" transform="translate(0 -5.247)" fill="#2c2320" fill-rule="evenodd"/>
</svg>
