<svg xmlns="http://www.w3.org/2000/svg" width="209.715" height="209.713" viewBox="0 0 209.715 209.713">
  <path id="Path_2022" data-name="Path 2022" d="M1393.324,4.208a104.857,104.857,0,1,1-104.857,104.857A104.856,104.856,0,0,1,1393.324,4.208m71.882,104.857c-1.933-16.934-22.522-27.376-38.552-30.158-25.543-4.436-56.184,6.711-73.144,23.8l-24.015-18.544c-3.3-2.472-8.681-2-7.993,3.735,2.292,16.908,2.292,25.43,0,42.338-.688,5.728,4.7,6.205,7.993,3.734l24.015-18.545c16.96,17.087,47.6,28.234,73.144,23.8,16.03-2.784,36.619-13.226,38.552-30.158m-23.732-10.509c-2.708,1.566-3.26,5.676-1.231,9.179s5.866,5.076,8.574,3.508,3.257-5.676,1.23-9.181-5.866-5.072-8.573-3.506" transform="translate(-1288.467 -4.208)" fill="#2d231f" fill-rule="evenodd"/>
</svg>
