<svg xmlns="http://www.w3.org/2000/svg" width="209.715" height="209.713" viewBox="0 0 209.715 209.713">
  <path id="Path_2023" data-name="Path 2023" d="M302.2,130.085l15.033-8.679-11.448-3.067a4.589,4.589,0,1,1,2.375-8.866l20.315,5.443,17.423-10.06L328.476,94.8l-20.314,5.443a4.589,4.589,0,0,1-2.375-8.866l11.447-3.068L302.2,79.628a4.589,4.589,0,1,1,4.589-7.949l15.033,8.679L318.756,68.91a4.589,4.589,0,1,1,8.866-2.376l5.444,20.315,17.423,10.059V76.787l-14.87-14.869a4.589,4.589,0,1,1,6.489-6.49l8.381,8.381V46.45a4.589,4.589,0,1,1,9.178,0V63.809l8.38-8.381a4.589,4.589,0,0,1,6.49,6.49l-14.87,14.869V96.908L377.09,86.849l5.444-20.315A4.589,4.589,0,0,1,391.4,68.91l-3.068,11.448,15.033-8.679a4.589,4.589,0,0,1,4.589,7.949l-15.032,8.678,11.447,3.068a4.589,4.589,0,1,1-2.376,8.866L381.68,94.8l-17.424,10.059,17.423,10.06,20.314-5.443a4.589,4.589,0,1,1,2.376,8.866l-11.448,3.067,15.033,8.679a4.589,4.589,0,0,1-4.589,7.949l-15.033-8.679L391.4,140.8a4.589,4.589,0,0,1-8.866,2.376l-5.444-20.314-17.423-10.059v20.12l14.87,14.87a4.589,4.589,0,0,1-6.49,6.49l-8.38-8.381v17.359a4.589,4.589,0,1,1-9.178,0V145.9l-8.381,8.381a4.589,4.589,0,0,1-6.489-6.49l14.87-14.87v-20.12l-17.424,10.059-5.443,20.314a4.589,4.589,0,1,1-8.866-2.376l3.068-11.447-15.033,8.679a4.589,4.589,0,0,1-4.589-7.949M355.078,0A104.856,104.856,0,1,0,459.935,104.857,104.857,104.857,0,0,0,355.078,0" transform="translate(-250.22)" fill="#2c2320"/>
</svg>
