<svg xmlns="http://www.w3.org/2000/svg" width="209.715" height="209.713" viewBox="0 0 209.715 209.713">
  <path id="Path_2024" data-name="Path 2024" d="M865.316,4.582A104.856,104.856,0,1,1,760.459,109.439,104.858,104.858,0,0,1,865.316,4.582m34.139,85.73a12.191,12.191,0,0,1-3.479,1.475c6.16,5.6,8.389,17.479,9.125,26.224-12.619-10.94-23.941-3-36.99-9.866-5.325,14.546-23.042,9.3-32.845,22.248-2.539-12.22-5.83-24.092,2.993-34.974a23.169,23.169,0,0,1-9.071-1.037c-6.634,6.838-10.608,16.055-10.608,27.358a48.057,48.057,0,0,0,96.111,0c0-13.729-5.861-24.378-15.236-31.428M869.478,69.395c-2.458-10.483-11.324-8.87-14.781-17.026-2.782,9.573-7.855,12.46.66,20.822C842.042,69.6,832.606,81.267,822.4,79.93c8.928,14.717,16.513,6.718,27.165,9.422-2.338,9.684-13.446,10.283-9.739,28.116,9.243-7,22.538.045,25.236-22.575,8.515,16.271,20.342,6.6,31.12,11.365-3.338-16.388-12.922-9.349-16.384-18.692,10.261-3.94,16.322,3.525,23.454-12.143-10.316,3.631-12.308-6.032-28.455-2.707,9.06-12.049,23.432-12.612,23.432-12.612l-4.214-9.042c-13.026,1.511-20.52,10.753-24.536,18.333" transform="translate(-760.459 -4.582)" fill="#2c2320" fill-rule="evenodd"/>
</svg>
