<svg xmlns="http://www.w3.org/2000/svg" width="209.713" height="209.713" viewBox="0 0 209.713 209.713">
  <path id="Path_2025" data-name="Path 2025" d="M1122.843,4.582a104.856,104.856,0,1,1-104.856,104.855A104.856,104.856,0,0,1,1122.843,4.582m45.384,90.263c-3.039-10.731-10.777-18.42-20.55-23.07a14.326,14.326,0,0,1-1.165,1.909,17.173,17.173,0,0,1-9.67,6.431,13.511,13.511,0,0,1-11.226-2.025,14.426,14.426,0,0,1-5.089-8.01,16.764,16.764,0,0,1-.511-3.584c-19.045.856-37.46,10.324-42.546,28.414a2.345,2.345,0,0,0,.87,2.838A9.733,9.733,0,0,0,1080.466,99a4.7,4.7,0,0,0,4.563-.479c2.282-1.523,3.947-2.582,5.886-2.375,3.2.337,4.77,3.91,7.727,4.076a4.83,4.83,0,0,0,3.7-1.7s4.034-5.208,9.025-.415c0-.03,1.678,2.08,3.858,1.995,2.838-.112,3.4-3.381,5.944-4.315a5.5,5.5,0,0,1,6.789,2.944c3.329,3.539,7.073-.624,7.073-.624,1.715-1.649,3.2-2.113,4.411-2.014,3.1.251,3.776,3.992,7.058,4.132,3.559.151,5.277-4.074,8.929-4.1,1.757-.015,3.338.995,5.445,2.4a4.683,4.683,0,0,0,4.43.53,8.284,8.284,0,0,0,1.774-.916,2.889,2.889,0,0,0,1.148-3.289m-42.289-32.2c-1.486,4.287.373,9.307,2.827,11.069,4.247,3.048,10.425.87,13.391-3.2,1.651-2.265,2.767-6.269.315-8.409-2.738-2.4-6.788-1.8-9.623.25a.117.117,0,0,1-.169-.157,8.685,8.685,0,0,1,2.657-2.849c.5-.339.427-.876-.079-1.242a5.171,5.171,0,0,0-2.355-.966c-3.419-.43-5.95,2.581-6.964,5.506m18.491-5.778c2.81-2.437,8.343-6.912,15.883-8.614a.939.939,0,0,0,.744-1.384l-1.264-2.843a1.281,1.281,0,0,0-1.822-.543,60.7,60.7,0,0,0-16.138,12.208,11.35,11.35,0,0,1,2.6,1.176m-21.586,108.611s23.162.136,32.6.077c3.738-.056,5.806-1.531,7.052-5.369l15.523-53.335a3.048,3.048,0,0,0-1.516-3.949,7.328,7.328,0,0,0-4.725-.143c-2.79.723-4.832,3.2-7.412,3.708a4.658,4.658,0,0,1-3.6-.77c-2.573-1.717-4.361-2.845-6.647-2.232-2.609.7-4.248,3.677-6.819,3.921-3.856.368-4.887-4.553-9.056-4.1-3.1.335-4.319,3.8-7.255,4.038-3.37.272-4.537-4.7-8.145-4.695s-4.775,4.967-8.145,4.695c-2.935-.238-4.152-3.7-7.255-4.038-4.169-.45-5.2,4.471-9.056,4.1-2.571-.244-4.21-3.222-6.819-3.921-2.284-.613-4.072.515-6.647,2.232a4.653,4.653,0,0,1-3.595.77c-2.583-.511-4.624-2.985-7.414-3.708a7.329,7.329,0,0,0-4.725.143,3.047,3.047,0,0,0-1.516,3.949l15.523,53.335c1.246,3.838,3.315,5.313,7.052,5.369,9.437.059,32.6-.077,32.6-.077" transform="translate(-1017.987 -4.582)" fill="#2c2320" fill-rule="evenodd"/>
</svg>
