<svg xmlns="http://www.w3.org/2000/svg" width="209.715" height="209.713" viewBox="0 0 209.715 209.713">
  <path id="Path_2026" data-name="Path 2026" d="M612.165,6.934A104.857,104.857,0,1,1,507.308,111.791,104.857,104.857,0,0,1,612.165,6.934M634.274,63.9c-6.953,0-13.164,6.437-17.278,14.567q1.215,1.535,2.314,3.225.762,1.171,1.468,2.409c4.035-3.637,8.711-5.892,13.813-5.892a17.377,17.377,0,0,1,3.85.433q.695-1.223,1.447-2.381a37.263,37.263,0,0,1,5.525-6.732c-3.282-3.438-7.086-5.629-11.139-5.629M601.1,98.661c-14.747,0-26.7,24.314-26.7,41.028s11.956,27.572,26.7,27.572,26.7-10.859,26.7-27.572-11.956-41.028-26.7-41.028M563.82,83.617c-12.927,0-23.4,21.313-23.4,35.963s10.477,24.169,23.4,24.169a25.142,25.142,0,0,0,5.32-.562q-.158-1.711-.157-3.5c0-9.929,3.8-22.25,9.815-31.506a45.877,45.877,0,0,1,4.611-5.987c-4.18-10.007-11.392-18.579-19.589-18.579m70.771,0c-7.481,0-14.141,7.138-18.426,15.991a42.48,42.48,0,0,1,7.233,8.575c6.022,9.256,9.815,21.577,9.815,31.506a39.186,39.186,0,0,1-.2,4.009c.522.032,1.049.051,1.581.051,12.927,0,23.406-9.519,23.406-24.169s-10.479-35.963-23.406-35.963m-35.385-9.912c-7.068,0-13.4,6.371-17.7,14.542.847,1.061,1.654,2.184,2.417,3.356a52.623,52.623,0,0,1,3.666,6.705,21.9,21.9,0,0,1,13.507-5.06,20.66,20.66,0,0,1,10.662,3.1,50.31,50.31,0,0,1,2.726-4.749c.762-1.172,1.568-2.295,2.414-3.356-4.29-8.171-10.626-14.542-17.7-14.542m60.128-4.969c-6.161,0-11.741,5.055-15.793,11.864a32.586,32.586,0,0,1,11.154,11c5.348,8.216,8.713,19.157,8.713,27.977a33.8,33.8,0,0,1-.617,6.5c10.738-1.533,18.959-10.205,18.959-22.9,0-14.031-10.035-34.443-22.416-34.443" transform="translate(-507.308 -6.934)" fill="#2c2320" fill-rule="evenodd"/>
</svg>
