<svg width="226" height="159" viewBox="0 0 226 159" fill="none" xmlns="http://www.w3.org/2000/svg">
<path d="M125.252 75.1264C132.089 75.8041 138.659 76.7602 145 78C144.601 71.8846 142.939 44.5157 143.527 21.3688C143.1 21.4595 142.679 21.6338 142.271 21.9028C141.842 22.185 141.628 22.1646 141.236 21.8488C140.097 20.9303 138.815 20.7419 137.462 21.3587C136.941 21.5963 136.478 21.4384 135.946 21.3493C133.669 20.9663 131.364 21.2524 129.071 21.2281C128.964 21.2274 128.858 21.3407 128.75 21.397C128.231 21.6659 127.748 21.7449 127.161 21.4634C125.933 20.8732 124.714 21.003 123.591 21.7886C123.295 21.9958 123.068 22.0677 122.732 21.8348C122.158 21.4376 121.586 21.2594 121 21.2156C123.472 31.3726 124.935 43.107 125.348 56.093C125.552 62.4922 125.487 68.9125 125.252 75.1272V75.1264Z" fill="#181818"/>
<path d="M45.8376 78.2637C43.5226 78.484 41.2408 78.7004 39 78.9076C39.5345 80.385 40.3247 81.7569 41.4471 82.7352C41.2996 84.3397 41.9669 85.5397 43.4925 86.2723C43.9544 86.4941 44.3113 86.7591 44.4078 87.3022C44.6913 88.8882 45.7318 89.7008 47.2404 90.0451C47.6413 90.1368 48.0499 90.1337 48.2476 90.716C48.6578 91.9262 49.5731 92.7311 50.8036 93.0893C51.3583 93.2503 51.3065 93.4059 51.176 93.9119C50.8917 95.0142 50.8384 96.1658 51.668 97.1225C52.0836 97.6016 52.218 98.1809 52.398 98.7424C57.5826 96.5247 62.5069 95.481 67.2836 95.5765C72.1647 95.6736 76.9492 96.9854 81.505 99.4749C85.8515 101.85 90.103 105.361 94.1715 109.93C94.4619 109.848 94.7153 110.046 95.0142 110.166C97.1678 111.022 99.3947 110.562 101.597 110.438C101.844 110.424 102.074 110.151 102.316 110.005C102.697 109.777 103.031 109.799 103.428 110.06C105.105 111.165 106.405 111.14 107.942 109.935C108.429 109.553 108.738 109.596 109.182 109.965C110.639 111.176 112.074 111.333 113.608 110.391C114.057 110.116 114.292 110.106 114.745 110.388C116.238 111.314 117.74 111.172 119.092 110.059C119.486 109.734 119.756 109.573 120.259 109.997C120.512 110.21 120.763 110.387 121.013 110.532C122.112 101.643 123.443 89.3873 124 76.1007C96.074 73.4902 69.027 76.0591 45.8361 78.2629L45.8376 78.2637Z" fill="#181818"/>
<path d="M46 23.5768C44.488 20.8395 41.6547 19.1833 38.1551 19.015C33.1218 18.7692 27.9317 21.5649 25.2398 25.9647C21.588 31.9322 22.9448 37.974 25.4552 45.2043C25.8012 45.4508 26.2051 45.6389 26.6653 45.7598C26.8931 45.8198 27.0807 45.9004 27.2398 46C30.4322 42.5287 34.606 37.8468 38.8979 32.6292C41.4825 29.4874 43.8532 26.4649 46 23.576V23.5768Z" fill="#181818"/>
<path d="M73 18.9718C72.4355 18.0792 71.6172 17.5261 70.4976 17.4836C70.3618 17.4781 70.2259 17.464 70.0993 17.431C70.1001 17.4263 70.1017 17.4216 70.1024 17.4169C70.2538 16.5015 69.8905 15.5193 69.1902 14.9198C68.4898 14.3202 67.4805 14.1191 66.6039 14.3933C66.2196 14.5135 65.7934 14.7155 65.4393 14.5214C64.9339 14.244 65.0332 13.4127 64.5837 13.0497C64.2809 12.8045 63.8368 12.865 63.4734 13.001C63.0317 13.1668 62.6489 13.3671 62.2188 13.3161C62.0254 13.0465 61.9556 12.6545 61.8756 12.2286C61.4431 9.935 59.3227 8.6118 57.3204 9.10132C53.6068 15.9577 47.8093 24.135 39.9761 33.5513C35.5506 38.8716 31.2485 43.6348 28 47.1219C28.3626 48.1575 29.0691 48.9315 30.0482 49.3527C30.0761 49.3644 30.1017 49.377 30.1274 49.3888C29.6328 50.3403 29.3331 51.4168 29.2648 52.4917C29.2298 53.0425 29.2578 53.6185 29.5117 54.1072C29.7656 54.5959 30.2943 54.9715 30.8347 54.8961C31.3044 54.8301 31.7314 54.4466 32.1949 54.5472C32.58 54.6313 32.8223 55.0304 32.903 55.421C32.9838 55.8115 32.9488 56.2177 33.0156 56.6106C33.1732 57.5283 33.9131 58.241 34.7905 58.5412C35.2657 59.6506 35.136 60.9557 35.8208 62C60.7909 51.097 69.3268 33.9458 72.9992 18.9711L73 18.9718Z" fill="#181818"/>
<path d="M20.9663 32.1882C12.5695 29.3558 6.01365 31.8939 1 36.5649C1.77638 38.1458 3.05752 39.4891 4.60576 40.0639C6.5169 40.7734 8.51407 41.1472 10.5972 40.6714C12.3311 40.2759 14.0989 40.0092 15.887 40.2096C17.9287 40.4376 19.9629 40.7334 22 41C21.5737 39.5605 21.2387 38.156 21.044 36.7886C20.8109 35.156 20.783 33.6335 20.9656 32.1889L20.9663 32.1882Z" fill="#181818"/>
<path d="M21.7148 30.3549C22.1003 28.5636 22.8034 26.8777 23.8381 25.2382C26.8137 20.5226 32.5501 17.5318 38.1172 17.7896C41.9184 17.967 45.05 19.6491 46.8705 22.4494C50.6647 17.4179 53.7237 12.817 56 8.72174C55.0347 6.26367 53.4217 5.51402 50.0833 5.89427C50.5804 4.84722 51.0509 3.94036 51.4442 3.00096C51.7946 2.16379 52.0412 1.17329 51.4403 0.456931C50.7903 -0.318282 49.7782 0.0890724 48.9112 0.265644C48.695 0.309787 48.4984 0.438344 48.2869 0.511916C46.6872 1.06719 45.1889 1.88887 43.5306 2.28848C42.5185 2.53243 41.7724 3.1543 41.2238 3.98992C40.8227 4.60095 40.5293 4.61954 40.0502 4.06427C39.7068 3.66621 39.2995 3.34559 38.8617 3.13107C38.8047 2.67492 38.6611 2.23427 38.4122 1.84008C37.6662 0.659059 35.8643 0.164193 34.7726 1.04086C34.3949 1.34444 34.1335 1.76651 33.7932 2.11113C33.453 2.45576 32.9692 2.73223 32.497 2.61761C31.634 2.40774 31.4888 1.14696 30.6975 0.746571C30.0615 0.425179 29.2663 0.810075 28.8223 1.36457C28.3783 1.91907 28.1606 2.61684 27.7938 3.224C27.427 3.83194 26.809 4.38798 26.0973 4.33377C25.249 4.26949 24.6193 3.37269 23.7695 3.38121C22.9173 3.39051 22.3859 4.26562 21.9637 5.00056C21.5415 5.73551 20.8119 6.5386 19.9964 6.29233C19.3916 6.10956 18.9757 5.37849 18.3475 5.44587C17.9971 5.48304 17.7193 5.78197 17.6023 6.11188C17.3315 6.87548 17.2862 8.51652 17.6249 9.65726C17.6093 9.6774 17.5929 9.69521 17.5773 9.71612C17.5437 9.76259 17.4041 9.72619 17.3159 9.7409C15.2924 10.0747 14.1726 11.155 13.8081 13.2181C13.7192 13.7207 13.5623 14.1149 13.2338 14.5192C10.8677 17.4295 8.25821 20.1037 5.45358 22.5958C2.7824 24.9695 1.07419 27.9123 0.184576 31.3501C-0.111181 32.4924 -0.0393881 33.7717 0.313336 35C1.0141 34.3564 1.72891 33.7624 2.45777 33.2211C8.20826 28.9454 14.6837 27.9836 21.714 30.3549H21.7148Z" fill="#181818"/>
<path d="M65.0358 97.0413C64.5481 104.004 69.1657 118.62 71.2074 124.675C71.2346 124.695 71.261 124.716 71.2835 124.739C72.2061 125.698 73.0991 126.649 72.9042 128.207C72.7947 129.08 73.0269 129.995 73.0859 130.892C73.2638 133.594 73.4742 136.295 73.576 139C76.1177 138.89 78.4918 138.733 80.5365 138.572C81.3822 134.857 82.2031 131.138 82.652 127.345C82.7382 126.618 83.0767 126.274 83.6367 125.832C85.0493 124.715 86.6405 123.499 86.7158 121.556C86.7718 120.113 87.5685 119.397 88.4671 118.744C90.5646 117.219 91.6814 114.29 90.9009 111.734C90.6997 111.076 90.8496 110.934 91.4693 110.987C91.9928 111.032 92.5107 111.037 93 110.912C83.2018 99.909 73.6606 96.5796 65.0358 97.0413Z" fill="#181818"/>
<path d="M85.9941 74.132C91.1708 73.9338 96.4448 73.8371 101.795 73.8874C109.441 73.959 116.758 74.3293 123.79 75C124.017 68.8027 124.079 62.4049 123.881 56.0307C123.474 42.9435 122.032 31.251 119.573 21.0116C119.24 21.0753 118.901 21.1602 118.551 21.253C117.263 21.5942 115.807 20.4856 114.421 21.3159C114.387 21.3363 114.35 21.356 114.321 21.3835C113.961 21.7224 113.614 21.5352 113.21 21.437C110.809 20.8543 108.61 21.904 106.347 22.4174C106.172 22.4575 106.014 22.6431 105.879 22.7909C105.556 23.1471 105.194 23.1612 104.788 22.9765C103.467 22.3758 102.325 22.8742 101.358 23.7383C100.841 24.1999 100.65 24.0552 100.202 23.6935C99.2684 22.9411 98.187 22.3506 96.9821 22.9269C96.0363 23.379 95.2974 23.0614 94.3539 22.8978C92.2293 22.5291 89.9927 22.6753 87.819 22.8436C86.9476 22.9112 85.7197 22.8444 85 22.2995C86.7782 29.305 87.8321 36.8783 88.1387 44.8855C88.6882 59.2536 86.6341 70.917 85.9972 74.1312L85.9941 74.132Z" fill="#F48120"/>
<path d="M84.6983 73.3844C85.2298 70.8699 87.484 59.1981 86.9059 44.6656C86.6305 37.7483 85.6683 29.5124 83.2596 21.0814C82.3797 20.7244 81.4128 20.8015 80.283 21.3174C79.6405 21.6104 79.3573 21.5587 78.9941 20.8732C78.0559 19.1036 75.9546 18.5099 74.2001 19.4282C72.5574 26.0904 69.9501 33.2028 65.3672 39.942C60.8681 46.5586 54.8209 52.2592 47.3948 56.8857C43.7353 59.1657 39.6817 61.2214 35.2586 63.0466C34.62 64.5895 35.2221 65.9998 36.4295 67.1718C37.2397 67.9591 37.4988 69.1828 37.2598 70.1258C36.7787 72.0273 37.4849 73.5918 38.1514 75.1772C38.236 75.7763 38.3563 76.3901 38.5138 77C40.8542 76.7849 43.2395 76.5589 45.6621 76.3299C57.6788 75.1918 70.8324 73.9465 84.6983 73.3836V73.3844Z" fill="#F48120"/>
<path d="M70 124.478C67.8791 118.147 63.5497 104.205 63.9406 97C60.0773 97.3884 56.409 98.5176 53 100.022C53.2237 100.845 53.2717 101.655 53.1393 102.547C53.0503 103.145 53.2895 103.84 53.7431 104.352C54.0659 104.716 54.1572 105.131 54.1108 105.601C54.0264 106.458 54.278 107.225 54.8322 107.863C55.2339 108.326 55.2076 108.693 54.9421 109.257C54.2671 110.693 54.5474 111.987 55.3965 113.39C56.1226 114.59 56.6412 115.938 56.1195 117.609C55.5954 119.289 56.0289 121.146 56.4841 122.869C56.6141 123.36 56.9988 123.934 57.5708 124.118C59.1213 124.62 59.4302 125.771 59.3063 127.22C59.2769 127.563 59.3373 127.919 59.4031 128.266C59.5308 130.696 59.2784 135.101 58.7467 138.461C58.6677 138.519 58.612 138.595 58.5733 138.68C60.7166 138.867 62.9599 138.966 65.2101 139C66.019 136.144 66.7095 133.254 67.3481 130.348C67.7204 128.652 67.8899 126.875 68.7205 125.294C68.9062 124.94 69.438 124.638 70 124.48V124.478Z" fill="#181818"/>
<path d="M163.974 83.5172C151.337 79.5954 138.597 77.2597 126.025 76C125.459 89.5375 124.106 102.001 123 110.978C123.818 111.068 124.652 110.805 125.546 110.196C125.936 109.93 126.188 109.878 126.599 110.191C128.02 111.272 129.517 111.254 130.949 110.232C131.378 109.925 131.612 110.018 132.003 110.226C133.383 110.959 135.062 110.802 136.135 109.715C136.617 109.226 136.834 109.183 137.375 109.581C138.974 110.757 140.752 110.584 142.167 109.176C142.56 108.786 142.893 108.58 143.521 108.736C144.657 109.017 145.763 108.815 146.657 107.961C147.099 107.54 147.43 107.627 147.907 107.985C148.813 108.667 149.847 108.927 150.979 108.527C151.557 108.322 152.153 108.28 152.758 108.464C153.957 108.827 155.059 108.667 156.046 107.847C156.332 107.609 156.669 107.525 157.065 107.595C158.037 107.768 158.869 107.557 159.596 107.067C164.555 101.925 167.444 94.8601 168 93.4206C166.483 90.1841 165.14 86.8801 163.975 83.518L163.974 83.5172Z" fill="#181818"/>
<path d="M177.852 140.34C177.735 142.495 177.384 144.547 175.73 146.152C173.435 148.379 172.701 151.358 172.097 154.358C171.753 156.069 172.31 156.836 174.021 156.937C175.793 157.043 177.578 157 179.354 156.921C180.313 156.879 181.102 156.47 181.433 155.387C181.963 153.645 182.411 151.902 181.858 150.096C181.39 148.569 181.58 147.115 182.082 145.651C182.859 143.384 183.832 141.188 184.456 138.865C184.967 136.962 185.484 135.061 186 133.161C183.955 133.001 181.322 132.672 178.547 132C178.324 134.781 178.004 137.554 177.852 140.34Z" fill="#181818"/>
<path d="M203 132C200.35 132.583 197.644 132.875 195.368 133.016C195.554 136.25 195.963 139.477 195.814 142.722C195.731 144.526 195.614 146.426 194.454 147.874C193.082 149.588 192.16 151.476 191.438 153.528C191.144 154.363 190.544 155.08 190.133 155.879C189.941 156.253 189.929 156.698 190.283 157.02C191.13 158.91 190.347 159.113 193.076 158.959C193.337 158.978 193.601 158.967 193.876 158.944C196.382 158.974 198.988 159.512 200.037 155.254V155.252C200.088 155.046 200.089 154.845 200.044 154.643C200.108 151.448 200.651 148.633 201.048 146.975C201.19 146.46 201.328 145.945 201.463 145.43C201.467 145.417 201.47 145.409 201.47 145.409V145.405C201.625 144.814 201.775 144.222 201.913 143.627C202.585 140.706 203.267 137.782 202.777 134.734C202.654 133.966 202.799 133.186 202.927 132.407C202.949 132.271 202.975 132.137 203 132.002V132Z" fill="#181818"/>
<path d="M190 124.702C181.629 116.634 174.737 107.476 169.477 97.4224C169.057 96.6197 168.65 95.8114 168.251 95C167.679 96.3523 166.689 98.5035 165.281 100.902C164.413 102.379 163.315 104.062 162 105.718C162.739 105.786 163.288 106.161 163.735 106.947C163.918 107.27 164.345 107.587 164.703 107.647C165.443 107.771 165.644 108.254 165.903 108.843C166.482 110.158 166.763 111.734 168.46 112.185C168.546 112.246 168.634 112.303 168.724 112.357C168.785 112.498 168.761 112.707 168.797 112.862C169.208 114.64 170.229 115.748 172.112 115.911C172.393 115.936 172.716 115.918 172.761 116.313C172.996 118.389 174.448 119.235 176.239 119.707C175.247 121.848 175.537 123.772 177.143 124.776C177.951 125.281 178.049 125.849 178.055 126.688C178.066 128.062 178.009 129.432 177.918 130.799C180.833 131.511 183.621 131.845 185.718 132C186.172 130.343 186.626 128.688 187.076 127.03C187.257 126.366 187.52 125.865 188.305 125.72C188.996 125.591 189.553 125.216 189.999 124.703L190 124.702Z" fill="#181818"/>
<path d="M208.802 109.586C208.318 109.12 208.141 108.701 208.517 108C209.502 106.169 209.176 104.535 207.535 103.271C206.81 102.713 207.135 102.566 207.608 102.16C209.432 100.589 209.416 98.1211 207.557 96.6164C207.074 96.2254 207.004 95.9907 207.349 95.4773C208.15 94.2836 208.301 93.0875 207.807 92L172 99.9113C177.163 108.798 184.301 117.877 194.141 126.399C194.913 126.607 195.174 127.13 195.212 127.902C195.28 129.268 195.36 130.634 195.432 132C197.896 131.852 200.856 131.541 203.676 130.906C204.061 129.332 204.566 127.791 205.101 126.267C205.744 124.436 205.86 122.304 207.834 121.066C208.207 120.831 208.292 120.151 208.487 119.668C208.653 119.259 208.734 118.832 209.035 118.464C209.836 117.487 210.079 116.386 209.639 115.185C209.452 114.673 209.426 114.196 209.655 113.667C210.319 112.135 210.019 110.761 208.8 109.586H208.802Z" fill="#181818"/>
<path d="M163 82C161.167 76.3444 159.82 70.5322 158.973 64.6025C157.465 54.0353 157.624 43.1501 159.434 33.1232C160.254 28.5843 161.409 24.2169 162.862 20.1197C161.853 19.9138 160.841 20.0351 159.946 20.7995C159.542 21.1448 159.195 21.3234 158.722 20.8355C157.829 19.913 156.62 19.8347 155.563 20.2129C154.546 20.5771 153.746 20.5465 152.722 20.2129C150.903 19.6193 149.238 20.8151 147.49 21.1378C147.021 21.2239 146.683 21.4056 146.196 21.1636C145.84 20.9874 145.481 20.8645 145.124 20.794C144.529 44.4125 146.256 72.5197 146.6 77.8088C152.241 78.9709 157.698 80.3672 162.999 81.9992L163 82Z" fill="#181818"/>
<path d="M224.363 72.4648C224.474 71.569 225.55 71.0051 225.597 70.1039C225.64 69.3072 224.877 68.7379 224.228 68.2776C223.578 67.8166 222.887 67.0941 223.139 66.3376C223.359 65.6723 224.254 65.2801 224.199 64.5809C224.162 64.1067 223.662 63.7872 223.189 63.7516C222.717 63.7161 222.255 63.8816 221.792 63.9798C221.567 64.0278 221.314 64.0556 221.122 63.928C220.86 63.754 220.833 63.3695 220.93 63.0694C221.028 62.7692 221.217 62.5039 221.297 62.1992C221.475 61.5239 221.078 60.8509 220.523 60.3945C220.53 60.3342 220.532 60.273 220.523 60.2119C220.467 59.8027 220.069 59.6163 219.825 59.3293C219.745 59.2365 219.678 59.1375 219.616 59.0362C219.734 58.9604 219.846 58.8745 219.947 58.7747C220.286 58.439 220.487 57.9393 220.38 57.4736C220.273 57.0141 219.902 56.6722 219.549 56.3605C219.103 55.9668 218.658 55.573 218.212 55.1785C217.41 54.47 216.576 53.7405 216.03 52.8038C215.925 52.6243 215.842 52.3969 215.753 52.1741C215.817 51.1801 215.633 50.1467 215.959 49.1759C216.203 48.4488 215.954 47.4648 215.303 46.9473C214.129 46.0121 213.477 45.0158 214.047 43.4726C214.141 43.2181 213.987 42.8197 213.847 42.5389C213.527 41.9015 213.482 41.2533 213.486 40.5486C213.493 39.0998 212.799 37.9751 211.51 37.333C210.872 37.0151 210.536 36.657 210.404 35.9337C210.128 34.4276 209.282 33.364 207.71 33.0283C207.154 32.9099 206.803 32.65 206.645 32.0382C206.243 30.4733 205.236 29.5512 203.587 29.4019C203.062 29.3548 202.748 29.1475 202.613 28.5379C202.233 26.8199 201.018 25.8367 199.265 25.8615C198.6 25.8707 198.291 25.6402 197.98 25.108C197.134 23.6569 195.809 23.0636 194.191 23.3908C193.606 23.5091 193.238 23.4124 192.861 23.0791C192.815 23.021 192.771 22.9808 192.734 22.9599C191.908 22.123 190.87 21.8661 189.738 22.0572C189.501 22.0974 189.193 22.0889 189.076 22.5128C188.251 22.502 187.525 22.4355 187.111 22.0719C187.11 22.0711 187.109 22.0704 187.107 22.0696C186.833 21.6998 186.489 21.3951 186.085 21.1738C185.59 20.7932 185.115 20.5999 184.373 20.7569C183.163 21.0129 181.245 19.5865 180.324 20.3392C178.421 20.7437 176.514 20.6602 174.603 20.6919C174.208 20.6989 173.817 20.8342 173.506 21.1406C173.229 21.4113 173.017 21.4539 172.607 21.1591C170.408 19.5734 168.044 19.7791 165.704 20.7909C165.399 20.9224 165.162 21.0091 164.899 21.0191C160.266 33.839 158.804 49.2525 161.007 64.4618C162.373 73.8896 165.459 85.7271 172.114 98L206.703 90.0821C206.699 90.0774 206.696 90.0728 206.691 90.0689C206.301 89.6706 206.22 89.4106 206.504 88.9419C207.201 87.7963 207.141 86.6375 206.452 85.502C206.21 85.1044 206.015 84.6859 206.388 84.2836C207.158 83.4529 207.188 82.448 207.029 81.437C206.927 80.7903 207.13 80.4121 207.598 79.982C208.548 79.1087 208.934 77.9677 208.638 76.6875C208.523 76.1917 208.641 75.8815 208.919 75.4823C209.602 74.5023 209.792 73.3907 209.32 72.2691C209.05 71.627 209.073 71.0036 209.194 70.3909C209.138 70.1782 209.092 69.95 209.054 69.7102C209.47 69.2832 209.826 68.8237 210.083 68.4207C211.312 66.4915 209.686 65.5455 209.943 63.6588C210.054 62.8381 210.721 62.2742 211.299 61.6499C211.657 62.0151 211.87 62.4846 211.777 63.1746C211.648 64.1253 211.214 65.1146 211.579 66.0011C211.954 66.9115 213.078 67.4105 213.27 68.3766C213.467 69.3683 212.596 70.2022 211.976 70.9989C211.355 71.7957 211.079 73.212 212.003 73.6173C212.663 73.9074 213.486 73.4046 214.131 73.7272C214.76 74.0412 214.818 74.9246 214.649 75.6084C214.481 76.2922 214.174 77.0016 214.386 77.6738C214.629 78.445 215.505 78.8673 216.311 78.8472C216.904 78.8325 217.468 78.6314 218.014 78.3846C218.857 79.0855 219.204 79.5419 220.594 79.2982C220.963 79.2332 221.368 79.1481 221.595 78.8495C221.947 78.3854 221.859 77.4742 222.439 77.4309C222.718 77.41 222.939 77.649 223.188 77.7774C223.897 78.1433 224.719 77.5871 225.297 77.0364C225.577 76.7703 225.862 76.4786 225.961 76.1043C226.312 74.7745 224.193 73.8316 224.363 72.4671L224.363 72.4648Z" fill="#181818"/>
<path d="M57.2931 142.114C56.5601 143.353 56.1525 144.756 55.5017 146.033C54.3047 148.383 53.0699 150.741 53.0032 153.496C52.9573 155.398 53.3908 155.856 55.266 155.97C57.3709 156.099 59.4477 155.781 61.5341 155.596C62.3124 155.526 62.6407 154.947 62.7593 154.355C63.0239 153.04 63.3329 151.709 62.9861 150.342C62.282 147.565 62.5755 144.872 63.4389 142.153C63.6331 141.54 63.8184 140.926 64 140.309C61.8076 140.269 59.7783 140.166 57.915 140C57.7304 140.879 57.5221 141.613 57.2924 142.113L57.2931 142.114Z" fill="#181818"/>
<path d="M73.4911 144.833C73.4348 146.016 73.1037 147.062 72.259 147.998C70.3215 150.144 68.6655 152.475 68.0864 155.438C67.7812 156.999 68.2645 157.818 69.8565 157.927C72.326 158.096 74.797 157.927 77.2672 157.876C77.8296 157.865 78.2497 157.606 78.3676 157.12C78.8631 155.074 79.3204 152.995 78.7527 150.901C78.5031 149.981 78.4376 149.09 78.4551 148.156C78.4909 146.196 79.0411 144.331 79.4536 142.447C79.6324 141.631 79.8158 140.815 80 140C78.0724 140.151 75.873 140.295 73.5352 140.398C73.5679 141.875 73.5619 143.353 73.4911 144.833V144.833Z" fill="#181818"/>
</svg>
