<svg width="249" height="131" viewBox="0 0 249 131" fill="none" xmlns="http://www.w3.org/2000/svg">
<path d="M62.8096 89.0481C62.852 89.056 62.8944 89.0646 62.9369 89.0726C62.8951 89.0646 62.8527 89.0567 62.8096 89.0481Z" fill="#2B2B29"/>
<path d="M62.6608 89.0186C62.4413 88.9755 62.2151 88.9299 61.9917 88.8835C62.6011 86.2619 63.7065 82.2531 65.5102 78.0484C67.3052 73.8628 69.4226 70.3656 71.8032 67.654C72.7256 66.6036 73.6884 65.6711 74.6884 64.857C75.5027 57.0948 75.8846 49.1943 75.821 41.3666C75.7693 35.0128 75.4271 28.6935 74.8024 22.5839C74.083 15.5425 73.1486 10.3959 72.6148 7.78491C65.6527 10.378 64.1594 10.5184 59.6926 13.2551C60.1077 14.4855 60.7191 16.4254 61.3862 18.9682C62.4784 23.1299 63.926 29.7484 64.6203 37.6476C65.4001 46.5317 65.0878 55.1933 63.6912 63.3923C62.2198 72.0315 59.5341 80.1729 55.6927 87.6591C55.6867 87.6578 55.6808 87.6571 55.6748 87.6558C57.8279 88.0443 59.7059 88.3991 61.1382 88.7048C61.6429 88.8127 62.2496 88.9398 62.802 89.047C62.7549 89.0378 62.7072 89.0285 62.6594 89.0192L62.6608 89.0186Z" fill="#2B2B29"/>
<path d="M73.1156 7.59717C73.0247 7.63158 72.9346 7.66468 72.8457 7.69843C72.9352 7.66534 73.0247 7.63158 73.1156 7.59717Z" fill="#2B2B29"/>
<path d="M73.6174 7.4082C73.4915 7.45586 73.3688 7.50219 73.2461 7.54785C73.3681 7.50219 73.4915 7.45519 73.6174 7.4082Z" fill="#2B2B29"/>
<path d="M63.2319 89.1277C63.1882 89.1191 63.1437 89.1105 63.0986 89.1025C63.1437 89.1111 63.1882 89.1191 63.2319 89.127C63.2319 89.127 63.2319 89.127 63.2319 89.1277Z" fill="#2B2B29"/>
<path d="M96.2867 64.1357C94.369 63.2078 92.1953 62.6121 89.8253 62.3652C85.7458 61.9397 82.4633 62.7054 82.4309 62.7134L82.4229 62.7154C78.9694 63.5036 75.803 65.513 73.0113 68.6886C70.7427 71.2698 68.7156 74.6194 66.9862 78.6441C65.3954 82.3472 64.3516 85.9523 63.7236 88.511C65.0605 87.8968 67.0074 87.09 69.329 86.3865C71.9125 85.6042 74.423 85.1151 76.791 84.933C79.7777 84.7034 82.5476 84.9648 85.0243 85.7081C88.4195 86.728 91.2769 88.6493 93.5613 91.4384C97.1375 85.2157 99.9299 77.5812 101.888 68.6753C100.383 66.7354 98.5022 65.2079 96.2867 64.1357Z" fill="#2B2B29"/>
<path d="M74.124 7.21782C74.6565 9.78845 75.6359 15.0819 76.3833 22.3841C77.0139 28.546 77.3607 34.9196 77.4138 41.327C77.4748 48.7424 77.1392 56.2233 76.4177 63.5923C78.1989 62.4308 80.0855 61.6194 82.0649 61.1673C82.2638 61.1203 85.6377 60.34 89.9394 60.7795C92.5023 61.0416 94.8624 61.6849 96.9538 62.6922C99.0082 63.6817 100.801 65.0252 102.307 66.6951C102.458 65.9452 102.604 65.188 102.744 64.4216C104.43 55.1815 105.292 44.6998 105.306 33.267C105.324 18.0854 103.82 5.20711 103.142 0.179688C93.2749 0.612538 83.3533 3.74839 74.1253 7.21715L74.124 7.21782Z" fill="#2B2B29"/>
<path d="M94.7446 92.2645C94.6995 92.2579 94.6551 92.2512 94.6113 92.2446C94.6558 92.2512 94.7002 92.2579 94.7446 92.2645Z" fill="#2B2B29"/>
<path d="M106.468 21.0505C109.719 20.9288 119.249 20.6084 130.636 20.5661C143.525 20.5184 161.482 20.8282 174.051 22.5662C175.173 15.2699 176.652 9.33445 177.775 5.42159C178.295 3.60878 178.778 2.08586 179.184 0.874669C179.31 0.883935 179.435 0.893862 179.56 0.903128C169.923 0.152589 156.774 0.147956 149.264 0.032794C139.698 -0.114137 130.318 0.276355 120.491 0.343864C114.761 0.382913 109.269 -0.0446426 103.544 0.163841C103.899 0.150604 104.253 0.140676 104.607 0.132072C105.103 3.83579 106.003 11.4696 106.468 21.0505H106.468Z" fill="#F48120"/>
<path d="M93.5918 92.0842C93.6389 92.0922 93.686 92.0994 93.7344 92.1074C93.6866 92.0994 93.6389 92.0922 93.5918 92.0842Z" fill="#2B2B29"/>
<path d="M93.8817 92.1315C93.8697 92.1295 93.8577 92.1275 93.8457 92.1255C93.8811 92.1315 93.9171 92.1369 93.9531 92.1429C93.9291 92.1389 93.9057 92.1355 93.8817 92.1315Z" fill="#2B2B29"/>
<path d="M94.0728 92.1615C94.0324 92.1549 93.9919 92.149 93.9521 92.1423C94.0105 92.1516 94.0695 92.1609 94.1292 92.1701C94.11 92.1668 94.0921 92.1642 94.0728 92.1615Z" fill="#2B2B29"/>
<path d="M94.1357 92.1716C94.1357 92.1716 94.1364 92.1716 94.1371 92.1716C94.1704 92.177 94.2044 92.1823 94.2385 92.1877C94.2044 92.1823 94.1698 92.177 94.1357 92.1716Z" fill="#2B2B29"/>
<path d="M93.4654 92.0638C93.4084 92.0545 93.3527 92.0453 93.2976 92.036C93.2957 92.036 93.293 92.0353 93.291 92.0347C93.354 92.0453 93.4183 92.0558 93.484 92.0671C93.4774 92.0658 93.4714 92.0651 93.4654 92.0638Z" fill="#2B2B29"/>
<path d="M92.5872 92.7688C90.4572 90.0506 87.7716 88.1928 84.5654 87.2298C79.3613 85.6665 73.6585 86.7354 69.7905 87.9068C66.9378 88.7712 64.6474 89.8123 63.4518 90.4014C63.7323 92.0772 63.9683 93.8397 64.024 95.7703C64.1573 100.396 65.4431 107.232 65.4531 108.962C65.4683 111.522 65.2104 116.831 64.5181 118.419C64.1467 119.271 63.3503 120.882 63.0161 121.657C62.725 122.331 61.2635 124.254 61.0473 124.955C60.8988 125.436 60.6885 126.444 61.4717 126.515C62.1355 126.574 66.6739 126.94 67.1142 126.748C68.4344 126.17 68.4212 123.262 69.6486 122.671C70.4556 122.283 68.88 125.094 69.8813 125.115C71.823 125.157 72.3952 121.597 72.6247 120.61C72.7288 120.162 73.3621 117.807 73.4755 117.261C73.5888 116.715 74.0742 109.566 74.8057 108.044C75.1724 107.28 75.551 105.725 75.9038 103.991C76.6113 105.38 77.4031 106.709 77.3739 108.4C77.3103 112.054 79.2174 117.656 77.9097 121.152C76.5616 124.755 75.4011 125.806 74.4071 130.397C74.1803 131.445 79.5238 130.909 80.5025 130.422C81.4494 129.951 81.0569 128.311 82.464 127.053C83.468 126.156 82.0841 129.587 83.3387 129.531C86.1231 129.409 86.6337 119.898 86.7856 119.13C86.9069 118.515 88.0369 105.194 88.7444 103.125C89.3963 101.219 90.7749 96.6691 92.5872 92.7681V92.7688Z" fill="#2B2B29"/>
<path d="M225.926 88.266C226.578 85.2645 227.758 83.2234 229.041 81.1749C223.883 78.644 218.553 77.2614 213.132 77.0582C207.449 76.8451 201.646 77.9186 195.885 80.249C189.139 82.9785 184.014 86.8238 181.431 89.0007C181.299 89.1112 181.174 89.2178 181.057 89.319C181.051 89.3124 181.047 89.3058 181.042 89.2985C183.93 93.2782 188.708 100.122 189.817 103.313C191.885 109.261 192.422 114.95 191.385 118.606C190.348 122.262 186.78 126.759 188.871 126.789C192.842 126.846 194.41 127.388 195.319 126.104C196.415 124.555 195.857 124.026 196.488 122.713C197.119 121.401 196.294 124.97 197.42 124.813C199.832 124.477 199.244 119.552 199.556 117.835C199.556 117.835 201.559 113.185 202.276 108.766C202.276 108.766 204.76 101.105 204.215 98.8748C204.029 98.113 203.776 97.3115 203.487 96.4849C206.959 99.6049 210.239 103.047 212 107.35C213.124 110.097 213.598 113.036 213.977 115.952C214.265 118.164 214.81 120.718 214.374 122.942C214.003 124.837 211.387 130.415 211.914 130.852C212.402 131.256 216.275 130.718 218.53 130.579C218.712 130.568 219.456 127.972 219.62 127.962C220.006 127.936 219.927 129.889 220.319 129.844C222.297 129.619 222.667 127.728 222.667 126.23C222.667 124.408 222.29 122.441 222.667 120.182C223.147 117.296 223.733 114.426 224.218 111.54C224.91 107.419 226.537 106.042 227.194 101.945C227.795 98.1971 225.119 91.9777 225.926 88.2673V88.266Z" fill="#2B2B29"/>
<path d="M179.572 88.5006C176.114 78.4431 173.877 67.9157 172.911 57.1328C172.808 55.9805 172.72 54.8243 172.645 53.666C169.288 60.1892 163.896 65.7852 156.574 70.3341C149.85 74.5117 141.492 77.8196 131.729 80.1672C126.947 81.3168 119.214 82.8431 109.525 83.5863C105.094 83.9259 101.824 83.9781 100.511 83.9834C100.421 83.9834 100.34 83.9834 100.268 83.9834C100.075 83.9834 99.1747 83.9821 98.7728 83.9821C97.5693 86.9664 96.2331 89.7316 94.7676 92.2692C95.2212 92.3373 95.7085 92.4068 96.2271 92.479C96.3359 92.4942 96.4459 92.5094 96.5573 92.5246C109.17 94.2468 138.858 96.9564 146.381 96.2389C167.264 94.2474 166.313 93.9615 179.656 88.7507C179.627 88.668 179.599 88.5846 179.57 88.5019L179.572 88.5006Z" fill="#2B2B29"/>
<path d="M100.896 82.3908C104.506 82.3537 117.427 81.9758 131.389 78.6149C140.979 76.3064 149.174 73.064 155.748 68.9764C163.802 63.9695 169.426 57.6719 172.469 50.2566C172.451 49.7939 172.435 49.3313 172.421 48.868C165.014 48.3855 156.886 48.4888 148.256 49.1764C141.258 49.7344 133.918 50.6749 126.438 51.9727C115.62 53.8498 107.627 55.9425 105.414 56.5448C105.068 59.3471 104.657 62.058 104.181 64.671C102.991 71.1936 101.391 77.1171 99.3945 82.3947C99.9131 82.3947 100.556 82.3947 100.897 82.3914L100.896 82.3908Z" fill="#2B2B29"/>
<path d="M248.016 13.5126C248.016 13.5126 246.487 17.3248 244.822 18.7174C243.688 19.6658 242.767 20.3813 241.739 20.552C241.982 20.0073 242.199 19.4454 242.38 18.867C242.38 18.867 244.138 13.7787 243.024 12.1962C241.911 10.6137 239.658 8.80484 237.028 10.3569C234.398 11.9089 232.379 16.9734 234.252 19.4275C234.824 20.1774 235.535 20.9452 236.332 21.6176C235.986 22.0055 235.624 22.3834 235.25 22.7447C231.345 15.6636 225.865 13.9712 217.776 10.5515C205.266 5.26195 196.454 3.27772 185.875 1.60125C184.397 1.36695 182.686 1.17171 180.819 1.00757C180.39 2.26773 179.861 3.91574 179.291 5.90527C177.987 10.4555 176.195 17.7729 175.067 26.7926C173.799 36.9242 173.608 47.0962 174.5 57.026C175.436 67.4568 177.576 77.644 180.873 87.3897C181.478 86.892 182.188 86.3301 183.001 85.7265C185.656 83.7535 189.933 80.9499 195.234 78.7983C201.21 76.3726 207.24 75.2527 213.157 75.4691C218.867 75.6783 224.476 77.1397 229.891 79.8215C229.826 79.9254 229.761 80.028 229.697 80.1312C230.922 78.1821 232.175 76.0833 233.109 73.0355C237.439 64.6141 238.84 51.1481 239.786 45.9618C240.721 40.8292 239.18 32.7652 237.122 27.0243C238.091 26.052 239.113 24.8885 240.028 23.5635C240.854 23.7263 241.691 23.6925 242.505 23.3848C245.535 22.2391 247.505 19.3309 247.886 17.575C248.267 15.8191 247.998 13.6959 248.015 13.5126H248.016ZM240.034 17.08C239.717 17.5035 239.12 18.1535 238.578 18.3289C238.563 18.3335 238.549 18.3381 238.534 18.3421C238.49 18.354 238.447 18.3633 238.405 18.3679C238.391 18.3699 238.376 18.3712 238.363 18.3719C238.349 18.3726 238.335 18.3732 238.321 18.3732C238.307 18.3732 238.293 18.3732 238.279 18.3719C238.004 18.356 237.764 18.1621 237.612 17.6803C237.415 17.0555 237.516 16.3453 237.805 15.7238C237.851 15.6259 237.901 15.5299 237.955 15.4366C238.138 15.1262 238.367 14.8482 238.628 14.6278C239.103 14.2267 239.898 14.0414 240.326 14.4518C240.446 14.5669 240.537 14.7284 240.583 14.9448C240.738 15.6576 240.465 16.5015 240.034 17.08Z" fill="#2B2B29"/>
<path d="M54.0531 87.3649C57.5312 80.6882 60.0676 73.4714 61.6173 65.8323C56.0803 67.7589 49.524 69.3533 42.1104 70.5744C35.9009 71.597 29.0781 72.3621 21.8302 72.8479C15.7262 73.2576 10.3358 73.3972 6.43464 73.4343C6.34843 73.3641 6.26355 73.294 6.18066 73.2245C7.82321 74.5978 10.1594 76.2035 13.0917 77.2624C20.567 79.9621 19.502 79.1798 24.5782 81.3626C28.5509 83.0702 43.7198 85.5316 54.0631 87.3669C54.0598 87.3669 54.0558 87.3656 54.0525 87.3649H54.0531Z" fill="#2B2B29"/>
<path d="M4.66808 71.8563C8.58976 71.847 14.6851 71.7352 21.7407 71.2619C28.9349 70.7788 35.704 70.0196 41.861 69.0057C49.5393 67.7409 56.3575 66.0267 61.9674 64.0047C62.0185 63.7221 62.0696 63.4395 62.118 63.1556C63.4939 55.0969 63.8036 46.5782 63.0404 37.8358C62.0536 26.544 59.502 17.7671 58.3037 14.1276C58.7997 13.8093 59.2606 13.52 59.6929 13.2546C58.5524 13.9536 57.2189 14.8206 55.5498 15.9418C53.7713 17.1364 48.8662 18.1934 45.7091 20.5972C34.4865 14.2117 26.5987 18.4356 26.5987 18.4356C26.5987 18.4356 27.734 21.455 29.6444 24.9542C17.195 20.0916 8.85302 24.5584 8.85302 24.5584C8.85302 24.5584 14.717 39.5877 22.8554 45.2552C21.5968 47.2897 20.2049 49.1296 18.6479 50.7869C14.2999 55.4152 10.0659 55.171 4.57392 57.3141C4.37631 56.8151 3.90019 56.3365 2.91082 56.271C1.09454 56.1519 0.930083 56.8481 0.930083 56.8481C0.930083 56.8481 -0.944552 67.3008 0.629027 69.8079C1.30939 70.892 2.69265 70.7781 3.56797 70.7205C3.78547 70.9502 4.21716 71.4241 4.84845 72.0304C4.78611 71.9708 4.72577 71.9125 4.66808 71.8556V71.8563Z" fill="#2B2B29"/>
<path d="M173.816 24.1376C161.341 22.4141 143.472 22.107 130.64 22.1547C119.286 22.1964 109.787 22.5154 106.538 22.6372C106.68 25.9848 106.766 29.5475 106.762 33.2466C106.754 40.8937 106.368 48.1217 105.612 54.8461C108.498 54.0777 116.131 52.1484 126.165 50.4078C133.693 49.1019 141.082 48.1548 148.129 47.5936C156.78 46.9039 164.937 46.7967 172.382 47.2746C172.254 40.4026 172.625 33.4624 173.494 26.5414C173.596 25.726 173.704 24.9245 173.816 24.1376Z" fill="#F48120"/>
</svg>
