<svg width="236" height="125" viewBox="0 0 236 125" fill="none" xmlns="http://www.w3.org/2000/svg">
<path d="M59.7373 84.6919C59.7777 84.6994 59.818 84.7076 59.8584 84.7152C59.8187 84.7076 59.7783 84.7001 59.7373 84.6919Z" fill="#2B2B29"/>
<path d="M59.5954 84.6642C59.3866 84.6233 59.1716 84.5798 58.959 84.5358C59.5386 82.0424 60.59 78.2297 62.3054 74.2307C64.0127 70.2498 66.0264 66.9237 68.2906 64.3447C69.1678 63.3458 70.0836 62.4588 71.0347 61.6846C71.8091 54.3021 72.1724 46.788 72.1119 39.3432C72.0627 33.3003 71.7372 27.2901 71.1431 21.4794C70.4588 14.7824 69.5702 9.88758 69.0625 7.4043C62.441 9.87058 61.0207 10.004 56.7725 12.6069C57.1673 13.7771 57.7488 15.6221 58.3832 18.0405C59.4219 21.9987 60.7987 28.2934 61.459 35.8062C62.2007 44.2557 61.9037 52.4936 60.5755 60.2915C59.176 68.5081 56.6217 76.2513 52.9682 83.3713C52.9625 83.37 52.9568 83.3694 52.9512 83.3681C54.999 83.7376 56.7851 84.075 58.1473 84.3658C58.6273 84.4684 59.2044 84.5893 59.7297 84.6913C59.6849 84.6825 59.6395 84.6736 59.5941 84.6648L59.5954 84.6642Z" fill="#2B2B29"/>
<path d="M69.5389 7.22559C69.4525 7.25832 69.3667 7.28979 69.2822 7.3219C69.3674 7.29042 69.4525 7.25832 69.5389 7.22559Z" fill="#2B2B29"/>
<path d="M70.0163 7.0459C69.8964 7.09122 69.7798 7.13528 69.6631 7.17872C69.7791 7.13528 69.8964 7.09059 70.0163 7.0459Z" fill="#2B2B29"/>
<path d="M60.1385 84.7676C60.0969 84.7594 60.0546 84.7512 60.0117 84.7437C60.0546 84.7518 60.0969 84.7594 60.1385 84.7669C60.1385 84.7669 60.1385 84.7669 60.1385 84.7676Z" fill="#2B2B29"/>
<path d="M91.5766 60.9986C89.7527 60.1161 87.6853 59.5496 85.4313 59.3148C81.5513 58.91 78.4295 59.6383 78.3986 59.6459L78.391 59.6477C75.1064 60.3975 72.0949 62.3085 69.4398 65.3288C67.2822 67.7837 65.3542 70.9695 63.7094 74.7973C62.1964 78.3192 61.2037 81.748 60.6064 84.1815C61.8779 83.5974 63.7296 82.8301 65.9376 82.1609C68.3947 81.4169 70.7825 80.9517 73.0346 80.7786C75.8752 80.5602 78.5096 80.8088 80.8651 81.5157C84.0942 82.4857 86.8118 84.3131 88.9845 86.9657C92.3858 81.0474 95.0416 73.7864 96.904 65.3162C95.4723 63.4712 93.6837 62.0184 91.5766 60.9986Z" fill="#2B2B29"/>
<path d="M70.498 6.86474C71.0045 9.30962 71.936 14.3442 72.6468 21.2892C73.2465 27.1496 73.5764 33.2114 73.6268 39.3054C73.6849 46.358 73.3657 53.473 72.6796 60.4816C74.3736 59.3768 76.1679 58.6051 78.0504 58.1752C78.2396 58.1305 81.4485 57.3883 85.5398 57.8063C87.9773 58.0556 90.2219 58.6674 92.2111 59.6255C94.1649 60.5665 95.8697 61.8444 97.3019 63.4325C97.4457 62.7193 97.5851 61.9992 97.7182 61.2703C99.3214 52.4822 100.141 42.5132 100.155 31.6396C100.172 17.2007 98.7412 4.95239 98.0966 0.170898C88.7121 0.582575 79.2758 3.56503 70.4993 6.86411L70.498 6.86474Z" fill="#2B2B29"/>
<path d="M90.1102 87.7513C90.0673 87.745 90.025 87.7387 89.9834 87.7324C90.0257 87.7387 90.0679 87.745 90.1102 87.7513Z" fill="#2B2B29"/>
<path d="M101.259 20.0208C104.351 19.905 113.416 19.6003 124.245 19.56C136.503 19.5147 153.582 19.8093 165.536 21.4623C166.603 14.523 168.01 8.87784 169.079 5.15638C169.573 3.43225 170.032 1.98382 170.419 0.831882C170.538 0.840695 170.657 0.850137 170.776 0.85895C161.611 0.145125 149.104 0.140719 141.962 0.0311898C132.864 -0.108554 123.943 0.262837 114.597 0.327043C109.146 0.364182 103.924 -0.0424588 98.4785 0.155826C98.8166 0.143236 99.1533 0.133794 99.4895 0.125611C99.9612 3.64815 100.817 10.9085 101.26 20.0208H101.259Z" fill="#2B2B29"/>
<path d="M89.0137 87.5796C89.0585 87.5871 89.1032 87.5941 89.1493 87.6016C89.1039 87.5941 89.0585 87.5871 89.0137 87.5796Z" fill="#2B2B29"/>
<path d="M89.2891 87.6244C89.2777 87.6225 89.2663 87.6206 89.2549 87.6187C89.2885 87.6244 89.3228 87.6295 89.357 87.6352C89.3342 87.6314 89.312 87.6282 89.2891 87.6244Z" fill="#2B2B29"/>
<path d="M89.4712 87.6535C89.4328 87.6472 89.3943 87.6415 89.3564 87.6353C89.4119 87.6441 89.4681 87.6529 89.5248 87.6617C89.5065 87.6585 89.4895 87.656 89.4712 87.6535Z" fill="#2B2B29"/>
<path d="M89.5303 87.6631C89.5303 87.6631 89.5309 87.6631 89.5315 87.6631C89.5633 87.6682 89.5956 87.6733 89.628 87.6784C89.5956 87.6733 89.5626 87.6682 89.5303 87.6631Z" fill="#2B2B29"/>
<path d="M88.8934 87.5599C88.8392 87.5511 88.7862 87.5423 88.7338 87.5335C88.732 87.5335 88.7294 87.5329 88.7275 87.5322C88.7875 87.5423 88.8486 87.5524 88.9111 87.5631C88.9048 87.5618 88.8991 87.5612 88.8934 87.5599Z" fill="#2B2B29"/>
<path d="M88.0579 88.231C86.0321 85.6458 83.4779 83.8788 80.4286 82.963C75.479 81.4761 70.0551 82.4927 66.3764 83.6069C63.6632 84.429 61.4848 85.4192 60.3477 85.9794C60.6145 87.5732 60.839 89.2495 60.892 91.0857C61.0187 95.4851 62.2416 101.987 62.2511 103.632C62.2656 106.067 62.0203 111.116 61.3618 112.626C61.0087 113.436 60.2512 114.969 59.9333 115.706C59.6565 116.347 58.2665 118.176 58.0609 118.843C57.9196 119.3 57.7197 120.259 58.4645 120.326C59.0958 120.383 63.4122 120.731 63.8309 120.548C65.0866 119.999 65.074 117.232 66.2414 116.671C67.0089 116.301 65.5104 118.975 66.4628 118.995C68.3094 119.034 68.8537 115.649 69.0719 114.71C69.1709 114.284 69.7732 112.045 69.8811 111.525C69.9889 111.006 70.4506 104.206 71.1462 102.759C71.495 102.032 71.8551 100.554 72.1906 98.9044C72.8635 100.225 73.6166 101.489 73.5888 103.098C73.5283 106.573 75.3421 111.901 74.0984 115.226C72.8162 118.653 71.7126 119.653 70.7672 124.019C70.5515 125.015 75.6335 124.505 76.5644 124.042C77.465 123.594 77.0916 122.034 78.4299 120.838C79.3848 119.985 78.0685 123.248 79.2618 123.195C81.91 123.079 82.3956 114.033 82.5401 113.302C82.6555 112.718 83.7302 100.048 84.4031 98.0804C85.0231 96.2675 86.3342 91.9405 88.0579 88.2304V88.231Z" fill="#2B2B29"/>
<path d="M214.874 83.9489C215.494 81.0942 216.616 79.1529 217.837 77.2047C212.931 74.7976 207.861 73.4826 202.706 73.2894C197.3 73.0867 191.781 74.1077 186.303 76.3241C179.886 78.92 175.012 82.5773 172.555 84.6476C172.43 84.7527 172.311 84.8541 172.199 84.9504C172.194 84.9441 172.19 84.9378 172.186 84.9309C174.932 88.7159 179.476 95.2247 180.531 98.26C182.498 103.916 183.009 109.327 182.023 112.805C181.037 116.282 177.643 120.559 179.631 120.588C183.408 120.642 184.899 121.157 185.764 119.936C186.807 118.462 186.276 117.959 186.876 116.711C187.476 115.463 186.691 118.857 187.763 118.708C190.056 118.388 189.497 113.705 189.794 112.071C189.794 112.071 191.699 107.649 192.381 103.446C192.381 103.446 194.743 96.1601 194.225 94.0388C194.048 93.3142 193.808 92.5519 193.533 91.7657C196.835 94.7331 199.954 98.007 201.629 102.099C202.698 104.712 203.149 107.507 203.51 110.28C203.783 112.384 204.302 114.813 203.887 116.929C203.534 118.731 201.046 124.036 201.547 124.451C202.011 124.836 205.695 124.324 207.84 124.192C208.013 124.181 208.72 121.713 208.876 121.703C209.244 121.678 209.169 123.536 209.541 123.493C211.423 123.279 211.774 121.481 211.774 120.056C211.774 118.323 211.416 116.452 211.774 114.304C212.231 111.559 212.788 108.83 213.249 106.084C213.908 102.165 215.455 100.855 216.08 96.9589C216.652 93.3942 214.107 87.479 214.874 83.9501V83.9489Z" fill="#2B2B29"/>
<path d="M170.787 84.1716C167.498 74.606 165.37 64.5936 164.452 54.3382C164.354 53.2423 164.27 52.1426 164.199 51.041C161.006 57.2451 155.878 62.5673 148.914 66.8937C142.519 70.867 134.569 74.0131 125.284 76.2458C120.736 77.3392 113.382 78.7908 104.167 79.4977C99.9524 79.8206 96.8426 79.8703 95.5932 79.8754C95.5074 79.8754 95.4305 79.8754 95.3623 79.8754C95.1788 79.8754 94.3224 79.8741 93.9402 79.8741C92.7955 82.7124 91.5247 85.3424 90.1309 87.7558C90.5622 87.8206 91.0258 87.8867 91.519 87.9553C91.6224 87.9698 91.7271 87.9843 91.8331 87.9988C103.829 89.6367 132.065 92.2137 139.22 91.5314C159.081 89.6373 158.177 89.3653 170.867 84.4095C170.84 84.3308 170.812 84.2515 170.785 84.1728L170.787 84.1716Z" fill="#F48120"/>
<path d="M95.9607 78.3608C99.3935 78.3256 111.682 77.9662 124.961 74.7697C134.082 72.5741 141.877 69.4903 148.129 65.6026C155.789 60.8407 161.138 54.8512 164.033 47.7986C164.015 47.3586 164 46.9186 163.986 46.4779C156.942 46.019 149.212 46.1172 141.004 46.7713C134.348 47.3019 127.367 48.1964 120.253 49.4308C109.964 51.216 102.362 53.2064 100.257 53.7792C99.9283 56.4444 99.5373 59.0227 99.0845 61.5079C97.953 67.7114 96.4306 73.3452 94.5322 78.3646C95.0254 78.3646 95.6365 78.3646 95.9613 78.3615L95.9607 78.3608Z" fill="#F48120"/>
<path d="M235.883 12.8518C235.883 12.8518 234.429 16.4776 232.845 17.802C231.767 18.704 230.891 19.3845 229.913 19.5469C230.145 19.0288 230.351 18.4944 230.522 17.9443C230.522 17.9443 232.194 13.1048 231.135 11.5998C230.077 10.0947 227.934 8.37434 225.433 9.85046C222.932 11.3266 221.011 16.1433 222.792 18.4774C223.336 19.1906 224.013 19.9208 224.771 20.5604C224.441 20.9292 224.097 21.2887 223.741 21.6323C220.028 14.8976 214.815 13.288 207.122 10.0355C195.224 5.00476 186.843 3.1176 176.782 1.52314C175.376 1.3003 173.749 1.11461 171.973 0.958496C171.565 2.15702 171.062 3.72441 170.52 5.61661C169.28 9.94425 167.576 16.9037 166.502 25.4822C165.296 35.1182 165.115 44.7926 165.963 54.2366C166.853 64.1572 168.889 73.8461 172.024 83.1151C172.6 82.6417 173.276 82.1073 174.048 81.5332C176.573 79.6567 180.641 76.9903 185.683 74.9439C191.367 72.6368 197.101 71.5718 202.729 71.7776C208.16 71.9765 213.495 73.3664 218.644 75.917C218.582 76.0159 218.521 76.1134 218.46 76.2116C219.625 74.3578 220.817 72.3618 221.705 69.463C225.823 61.4536 227.156 48.6463 228.055 43.7137C228.945 38.8321 227.479 31.1626 225.522 25.7025C226.444 24.7778 227.416 23.6712 228.286 22.411C229.071 22.5659 229.867 22.5338 230.642 22.2411C233.524 21.1514 235.397 18.3855 235.76 16.7155C236.122 15.0455 235.866 13.0262 235.882 12.8518H235.883ZM228.291 16.2447C227.99 16.6475 227.422 17.2657 226.907 17.4325C226.893 17.4369 226.879 17.4413 226.865 17.4451C226.823 17.4564 226.782 17.4652 226.742 17.4696C226.729 17.4715 226.715 17.4728 226.702 17.4734C226.689 17.474 226.675 17.4747 226.662 17.4747C226.649 17.4747 226.636 17.4747 226.622 17.4734C226.361 17.4583 226.132 17.2739 225.988 16.8156C225.801 16.2214 225.896 15.546 226.171 14.9549C226.215 14.8617 226.263 14.7704 226.315 14.6817C226.488 14.3865 226.706 14.1221 226.955 13.9125C227.406 13.531 228.162 13.3548 228.569 13.745C228.683 13.8546 228.77 14.0081 228.814 14.214C228.961 14.8919 228.702 15.6945 228.291 16.2447Z" fill="#2B2B29"/>
<path d="M51.4096 83.0912C54.7175 76.741 57.1299 69.8772 58.6037 62.6118C53.3376 64.4442 47.102 65.9606 40.051 67.122C34.1454 68.0946 27.6563 68.8222 20.763 69.2843C14.9575 69.6739 9.83075 69.8067 6.12046 69.842C6.03847 69.7752 5.95774 69.7085 5.87891 69.6424C7.4411 70.9486 9.66299 72.4757 12.4519 73.4829C19.5615 76.0505 18.5486 75.3064 23.3765 77.3825C27.1549 79.0065 41.5817 81.3475 51.419 83.0931C51.4159 83.0931 51.4121 83.0918 51.409 83.0912H51.4096Z" fill="#2B2B29"/>
<path d="M4.43973 68.341C8.16957 68.3322 13.9668 68.2258 20.6772 67.7757C27.5195 67.3162 33.9574 66.5942 39.8133 65.6298C47.116 64.4269 53.6006 62.7965 58.9362 60.8735C58.9847 60.6047 59.0333 60.3359 59.0793 60.0659C60.388 52.4014 60.6825 44.2994 59.9566 35.9847C59.0181 25.2452 56.5913 16.8977 55.4517 13.4362C55.9234 13.1335 56.3617 12.8584 56.7729 12.606C55.6882 13.2707 54.4199 14.0953 52.8324 15.1616C51.141 16.2978 46.4758 17.3031 43.4731 19.5894C32.7995 13.5162 25.2976 17.5335 25.2976 17.5335C25.2976 17.5335 26.3773 20.4052 28.1943 23.7332C16.3539 19.1084 8.41995 23.3568 8.41995 23.3568C8.41995 23.3568 13.9971 37.6509 21.7374 43.0411C20.5404 44.9761 19.2166 46.726 17.7357 48.3022C13.6004 52.7042 9.57346 52.4719 4.35017 54.5101C4.16223 54.0355 3.7094 53.5804 2.76843 53.5181C1.04099 53.4048 0.884586 54.067 0.884586 54.067C0.884586 54.067 -0.898347 64.0083 0.598257 66.3927C1.24533 67.4238 2.56093 67.3155 3.39343 67.2608C3.60029 67.4792 4.01087 67.9299 4.61127 68.5065C4.55199 68.4499 4.4946 68.3945 4.43973 68.3403V68.341Z" fill="#2B2B29"/>
<path d="M165.314 22.9566C153.449 21.3175 136.454 21.0254 124.249 21.0707C113.451 21.1104 104.416 21.4138 101.327 21.5296C101.462 24.7135 101.544 28.1019 101.54 31.6201C101.532 38.893 101.165 45.7675 100.446 52.163C103.19 51.4322 110.451 49.5973 119.994 47.9417C127.153 46.6998 134.181 45.799 140.883 45.2652C149.111 44.6093 156.869 44.5073 163.949 44.9618C163.828 38.426 164.181 31.8253 165.007 25.2429C165.104 24.4674 165.207 23.7051 165.314 22.9566Z" fill="#2B2B29"/>
</svg>
