<svg width="243" height="129" viewBox="0 0 243 129" fill="none" xmlns="http://www.w3.org/2000/svg">
<path d="M61.5098 87.2046C61.5513 87.2124 61.5929 87.2208 61.6344 87.2286C61.5935 87.2208 61.552 87.213 61.5098 87.2046Z" fill="#2B2B29"/>
<path d="M61.3638 87.176C61.1488 87.1338 60.9274 87.0891 60.7085 87.0437C61.3053 84.4764 62.3879 80.5506 64.1542 76.4329C65.9121 72.334 67.9856 68.9092 70.3169 66.2537C71.2202 65.2251 72.1631 64.3118 73.1424 63.5146C73.9399 55.9131 74.3139 48.1762 74.2516 40.5105C74.2009 34.2883 73.8658 28.0997 73.2541 22.1167C72.5495 15.221 71.6345 10.181 71.1118 7.62402C64.2938 10.1635 62.8314 10.3009 58.4571 12.981C58.8636 14.1859 59.4624 16.0856 60.1157 18.5758C61.1852 22.6514 62.6028 29.1329 63.2827 36.8685C64.0464 45.5687 63.7406 54.051 62.3729 62.0803C60.9319 70.5406 58.3019 78.5135 54.54 85.8447C54.5341 85.8434 54.5283 85.8427 54.5225 85.8414C56.631 86.2219 58.4701 86.5693 59.8728 86.8688C60.367 86.9744 60.9612 87.0988 61.5021 87.2038C61.456 87.1948 61.4092 87.1857 61.3625 87.1766L61.3638 87.176Z" fill="#2B2B29"/>
<path d="M71.6022 7.43994C71.5132 7.47365 71.4249 7.50605 71.3379 7.53911C71.4256 7.5067 71.5132 7.47365 71.6022 7.43994Z" fill="#2B2B29"/>
<path d="M72.0932 7.25488C71.9698 7.30155 71.8496 7.34692 71.7295 7.39164C71.849 7.34692 71.9698 7.3009 72.0932 7.25488Z" fill="#2B2B29"/>
<path d="M61.9225 87.2824C61.8797 87.274 61.8362 87.2656 61.792 87.2578C61.8362 87.2662 61.8797 87.274 61.9225 87.2818C61.9225 87.2818 61.9225 87.2818 61.9225 87.2824Z" fill="#2B2B29"/>
<path d="M94.2933 62.808C92.4152 61.8993 90.2865 61.316 87.9656 61.0742C83.9705 60.6575 80.7561 61.4074 80.7242 61.4152L80.7164 61.4171C77.3344 62.1891 74.2336 64.1568 71.4997 67.2667C69.2781 69.7944 67.2929 73.0747 65.5993 77.0161C64.0414 80.6425 63.0193 84.173 62.4043 86.6787C63.7135 86.0773 65.6201 85.2872 67.8936 84.5982C70.4236 83.8321 72.8822 83.3531 75.2012 83.1749C78.126 82.9499 80.8385 83.206 83.264 83.9338C86.5889 84.9326 89.3871 86.8142 91.6243 89.5455C95.1264 83.4516 97.861 75.9752 99.7786 67.2537C98.3045 65.354 96.4629 63.858 94.2933 62.808Z" fill="#2B2B29"/>
<path d="M72.5889 7.06821C73.1103 9.58562 74.0695 14.7695 74.8013 21.9206C75.4189 27.9548 75.7585 34.1965 75.8105 40.4712C75.8702 47.7331 75.5416 55.0592 74.8351 62.2757C76.5794 61.1381 78.4269 60.3435 80.3653 59.9008C80.5601 59.8548 83.8642 59.0906 88.0768 59.521C90.5867 59.7777 92.8979 60.4077 94.9461 61.3942C96.9579 62.3631 98.7132 63.6789 100.188 65.3142C100.336 64.5798 100.48 63.8383 100.617 63.0878C102.267 54.039 103.111 43.7742 103.125 32.5781C103.143 17.7108 101.67 5.09913 101.006 0.175781C91.3433 0.599671 81.6271 3.6706 72.5902 7.06756L72.5889 7.06821Z" fill="#F48120"/>
<path d="M92.7829 90.3544C92.7387 90.3479 92.6952 90.3414 92.6523 90.335C92.6959 90.3414 92.7394 90.3479 92.7829 90.3544Z" fill="#2B2B29"/>
<path d="M104.263 20.6148C107.447 20.4955 116.78 20.1818 127.93 20.1403C140.552 20.0936 158.138 20.397 170.446 22.099C171.545 14.9538 172.994 9.14121 174.094 5.30935C174.603 3.53407 175.076 2.04268 175.474 0.856562C175.597 0.865636 175.72 0.875358 175.842 0.884432C166.405 0.14943 153.527 0.144893 146.173 0.0321151C136.805 -0.111774 127.619 0.270634 117.996 0.336746C112.384 0.374986 107.006 -0.0437184 101.399 0.160449C101.747 0.147486 102.094 0.137764 102.44 0.129338C102.926 3.75638 103.807 11.2321 104.263 20.6148H104.263Z" fill="#2B2B29"/>
<path d="M91.6543 90.1777C91.7004 90.1855 91.7465 90.1926 91.7939 90.2004C91.7472 90.1926 91.7004 90.1855 91.6543 90.1777Z" fill="#2B2B29"/>
<path d="M91.9376 90.2242C91.9259 90.2222 91.9141 90.2202 91.9023 90.2183C91.937 90.2242 91.9722 90.2294 92.0075 90.2353C91.984 90.2314 91.9611 90.2281 91.9376 90.2242Z" fill="#2B2B29"/>
<path d="M92.126 90.2542C92.0864 90.2477 92.0468 90.2418 92.0078 90.2354C92.065 90.2444 92.1228 90.2535 92.1812 90.2626C92.1624 90.2593 92.1448 90.2567 92.126 90.2542Z" fill="#2B2B29"/>
<path d="M92.1865 90.2637C92.1865 90.2637 92.1872 90.2637 92.1878 90.2637C92.2205 90.2689 92.2538 90.2742 92.2871 90.2794C92.2538 90.2742 92.2198 90.2689 92.1865 90.2637Z" fill="#2B2B29"/>
<path d="M91.5311 90.1579C91.4753 90.1488 91.4207 90.1398 91.3668 90.1307C91.3649 90.1307 91.3623 90.13 91.3604 90.1294C91.422 90.1398 91.485 90.1501 91.5493 90.1612C91.5428 90.1599 91.537 90.1592 91.5311 90.1579Z" fill="#2B2B29"/>
<path d="M90.6706 90.8484C88.5847 88.1864 85.9547 86.3671 82.8149 85.424C77.7185 83.8931 72.1337 84.9398 68.3458 86.0871C65.5521 86.9335 63.3092 87.9531 62.1383 88.5299C62.413 90.1711 62.6442 91.8971 62.6987 93.7877C62.8293 98.3177 64.0884 105.012 64.0982 106.707C64.1131 109.214 63.8605 114.413 63.1825 115.967C62.8189 116.802 62.0389 118.38 61.7117 119.139C61.4266 119.799 59.9953 121.682 59.7836 122.369C59.6381 122.839 59.4323 123.827 60.1992 123.896C60.8493 123.954 65.2937 124.312 65.7249 124.124C67.0178 123.559 67.0048 120.71 68.2068 120.132C68.9972 119.751 67.4542 122.505 68.4348 122.525C70.3362 122.566 70.8966 119.08 71.1213 118.113C71.2233 117.674 71.8434 115.369 71.9545 114.834C72.0655 114.299 72.5409 107.298 73.2572 105.807C73.6163 105.059 73.9871 103.537 74.3326 101.838C75.0255 103.198 75.8008 104.5 75.7722 106.156C75.7099 109.734 77.5776 115.221 76.297 118.644C74.9767 122.173 73.8403 123.202 72.8669 127.698C72.6448 128.724 77.8776 128.199 78.8361 127.722C79.7634 127.261 79.379 125.655 80.757 124.423C81.7401 123.544 80.3849 126.904 81.6135 126.85C84.3403 126.73 84.8403 117.416 84.989 116.664C85.1079 116.062 86.2144 103.016 86.9073 100.99C87.5457 99.1233 88.8958 94.6679 90.6706 90.8477V90.8484Z" fill="#2B2B29"/>
<path d="M221.249 86.4392C221.888 83.4999 223.043 81.501 224.299 79.4949C219.248 77.0164 214.028 75.6624 208.72 75.4634C203.154 75.2547 197.471 76.306 191.83 78.5882C185.223 81.2611 180.205 85.0269 177.674 87.1587C177.546 87.2669 177.423 87.3713 177.308 87.4704C177.303 87.4639 177.298 87.4575 177.294 87.4503C180.122 91.3476 184.801 98.0495 185.887 101.175C187.912 106.999 188.439 112.571 187.423 116.151C186.407 119.731 182.913 124.136 184.961 124.165C188.85 124.221 190.385 124.751 191.275 123.494C192.349 121.977 191.802 121.459 192.42 120.173C193.038 118.888 192.23 122.383 193.333 122.229C195.695 121.9 195.119 117.078 195.424 115.396C195.424 115.396 197.386 110.842 198.089 106.514C198.089 106.514 200.521 99.0127 199.988 96.8284C199.805 96.0824 199.558 95.2975 199.274 94.4879C202.675 97.5433 205.887 100.914 207.611 105.128C208.711 107.818 209.176 110.696 209.547 113.552C209.829 115.718 210.363 118.219 209.936 120.398C209.573 122.253 207.011 127.715 207.527 128.143C208.004 128.539 211.798 128.012 214.006 127.876C214.185 127.865 214.912 125.324 215.073 125.313C215.451 125.288 215.374 127.201 215.758 127.157C217.695 126.936 218.057 125.084 218.057 123.617C218.057 121.833 217.688 119.907 218.057 117.695C218.528 114.868 219.101 112.058 219.576 109.231C220.254 105.196 221.847 103.847 222.49 99.8352C223.079 96.1647 220.459 90.074 221.249 86.4405V86.4392Z" fill="#2B2B29"/>
<path d="M175.854 86.6686C172.468 76.8193 170.277 66.5098 169.332 55.9502C169.23 54.8218 169.145 53.6894 169.071 52.5552C165.783 58.9433 160.503 64.4234 153.333 68.8782C146.748 72.9693 138.562 76.2087 129.002 78.5077C124.319 79.6336 116.746 81.1282 107.258 81.8561C102.919 82.1886 99.7165 82.2398 98.43 82.245C98.3417 82.245 98.2625 82.245 98.1924 82.245C98.0034 82.245 97.1215 82.2437 96.728 82.2437C95.5493 85.1662 94.2408 87.8741 92.8057 90.3591C93.2498 90.4259 93.7271 90.494 94.235 90.5646C94.3415 90.5795 94.4493 90.5944 94.5584 90.6093C106.91 92.2958 135.984 94.9493 143.351 94.2467C163.801 92.2965 162.87 92.0165 175.937 86.9136C175.909 86.8326 175.881 86.7509 175.853 86.6699L175.854 86.6686Z" fill="#2B2B29"/>
<path d="M98.8078 80.6852C102.342 80.6489 114.996 80.2789 128.669 76.9875C138.06 74.7268 146.086 71.5515 152.524 67.5485C160.411 62.6453 165.919 56.4781 168.899 49.2163C168.881 48.7632 168.865 48.3102 168.852 47.8565C161.598 47.384 153.638 47.4851 145.187 48.1585C138.334 48.7049 131.145 49.6259 123.821 50.8969C113.226 52.7351 105.399 54.7845 103.231 55.3743C102.893 58.1186 102.49 60.7734 102.024 63.3323C100.859 69.7198 99.2916 75.5208 97.3369 80.6891C97.8447 80.6891 98.474 80.6891 98.8084 80.6859L98.8078 80.6852Z" fill="#2B2B29"/>
<path d="M242.881 13.233C242.881 13.233 241.384 16.9663 239.753 18.33C238.643 19.2588 237.741 19.9595 236.734 20.1267C236.972 19.5932 237.185 19.043 237.361 18.4765C237.361 18.4765 239.083 13.4935 237.993 11.9438C236.902 10.3941 234.696 8.62267 232.121 10.1426C229.545 11.6625 227.567 16.6221 229.402 19.0255C229.962 19.7598 230.658 20.5117 231.439 21.1702C231.1 21.55 230.745 21.9201 230.379 22.274C226.556 15.3394 221.188 13.6821 213.267 10.3331C201.016 5.15312 192.387 3.20997 182.026 1.56821C180.579 1.33876 178.904 1.14756 177.075 0.986816C176.655 2.22089 176.137 3.83479 175.578 5.78312C174.302 10.2392 172.547 17.4051 171.442 26.2381C170.2 36.16 170.013 46.1214 170.887 55.8456C171.804 66.0604 173.9 76.0367 177.128 85.5807C177.72 85.0933 178.416 84.543 179.212 83.9519C181.812 82.0198 186.001 79.2742 191.192 77.1671C197.044 74.7916 202.949 73.6949 208.743 73.9069C214.336 74.1117 219.829 75.5428 225.131 78.1691C225.067 78.2709 225.004 78.3713 224.941 78.4725C226.141 76.5637 227.368 74.5084 228.282 71.5236C232.523 63.2766 233.895 50.0893 234.821 45.0104C235.737 39.984 234.228 32.087 232.213 26.4649C233.162 25.5128 234.163 24.3734 235.059 23.0758C235.867 23.2352 236.687 23.2021 237.484 22.9008C240.452 21.7788 242.381 18.9308 242.754 17.2113C243.127 15.4918 242.863 13.4125 242.88 13.233H242.881ZM235.064 16.7265C234.754 17.1413 234.169 17.7778 233.638 17.9495C233.624 17.9541 233.61 17.9586 233.596 17.9625C233.553 17.9742 233.511 17.9832 233.469 17.9878C233.455 17.9897 233.441 17.991 233.427 17.9917C233.414 17.9923 233.4 17.993 233.387 17.993C233.373 17.993 233.359 17.993 233.346 17.9917C233.076 17.9761 232.841 17.7862 232.692 17.3144C232.499 16.7025 232.598 16.007 232.881 15.3984C232.926 15.3025 232.975 15.2085 233.029 15.1171C233.207 14.8131 233.432 14.5409 233.688 14.3251C234.153 13.9323 234.931 13.7508 235.35 14.1527C235.468 14.2655 235.557 14.4236 235.602 14.6356C235.754 15.3336 235.487 16.16 235.064 16.7265Z" fill="#2B2B29"/>
<path d="M52.9342 85.5561C56.3402 79.0176 58.8241 71.9502 60.3417 64.4692C54.9193 66.356 48.4988 67.9174 41.2386 69.1132C35.1577 70.1146 28.4762 70.8639 21.3783 71.3396C15.4007 71.7408 10.1218 71.8776 6.30145 71.9139C6.21703 71.8452 6.13391 71.7765 6.05273 71.7084C7.66127 73.0533 9.94907 74.6257 12.8207 75.6628C20.1413 78.3066 19.0983 77.5405 24.0694 79.6781C27.9599 81.3503 42.8147 83.7608 52.9439 85.5581C52.9406 85.5581 52.9367 85.5568 52.9335 85.5561H52.9342Z" fill="#2B2B29"/>
<path d="M4.57144 70.3685C8.41193 70.3594 14.3811 70.2498 21.2906 69.7864C28.3359 69.3133 34.9649 68.5698 40.9944 67.5769C48.5137 66.3383 55.1908 64.6596 60.6846 62.6795C60.7346 62.4027 60.7846 62.1259 60.832 61.8479C62.1795 53.956 62.4828 45.6137 61.7353 37.0523C60.769 25.9942 58.2702 17.3991 57.0967 13.8349C57.5825 13.5231 58.0338 13.2399 58.4572 12.98C57.3402 13.6644 56.0343 14.5135 54.3998 15.6115C52.6581 16.7814 47.8546 17.8165 44.7628 20.1706C33.7726 13.9172 26.0481 18.0537 26.0481 18.0537C26.0481 18.0537 27.1598 21.0106 29.0307 24.4373C16.8391 19.6754 8.66974 24.0497 8.66974 24.0497C8.66974 24.0497 14.4123 38.7679 22.3823 44.318C21.1497 46.3104 19.7866 48.1123 18.2619 49.7353C14.0038 54.2678 9.85748 54.0286 4.47923 56.1273C4.28571 55.6386 3.81945 55.17 2.85056 55.1058C1.07188 54.9892 0.910828 55.671 0.910828 55.671C0.910828 55.671 -0.924998 65.9072 0.616005 68.3624C1.28228 69.4241 2.63691 69.3126 3.4941 69.2562C3.7071 69.4811 4.12986 69.9452 4.74808 70.5389C4.68703 70.4806 4.62794 70.4236 4.57144 70.3678V70.3685Z" fill="#2B2B29"/>
<path d="M170.217 23.6377C158.001 21.9499 140.502 21.6492 127.935 21.6958C116.816 21.7367 107.514 22.0491 104.332 22.1683C104.471 25.4467 104.556 28.9357 104.552 32.5582C104.543 40.0469 104.165 47.1253 103.426 53.7105C106.251 52.958 113.727 51.0687 123.553 49.364C130.925 48.0852 138.161 47.1577 145.062 46.6081C153.534 45.9327 161.522 45.8277 168.813 46.2957C168.688 39.566 169.051 32.7695 169.902 25.9918C170.002 25.1932 170.108 24.4083 170.217 23.6377Z" fill="#2B2B29"/>
</svg>
